<?xml version="1.0" encoding="utf-8" standalone="no"?>
<!DOCTYPE svg PUBLIC "-//W3C//DTD SVG 1.1//EN"
  "http://www.w3.org/Graphics/SVG/1.1/DTD/svg11.dtd">
<!-- Created with matplotlib (https://matplotlib.org/) -->
<svg height="266.374219pt" version="1.1" viewBox="0 0 386.049062 266.374219" width="386.049062pt" xmlns="http://www.w3.org/2000/svg" xmlns:xlink="http://www.w3.org/1999/xlink">
 <metadata>
  <rdf:RDF xmlns:cc="http://creativecommons.org/ns#" xmlns:dc="http://purl.org/dc/elements/1.1/" xmlns:rdf="http://www.w3.org/1999/02/22-rdf-syntax-ns#">
   <cc:Work>
    <dc:type rdf:resource="http://purl.org/dc/dcmitype/StillImage"/>
    <dc:date>2021-05-13T17:10:44.598730</dc:date>
    <dc:format>image/svg+xml</dc:format>
    <dc:creator>
     <cc:Agent>
      <dc:title>Matplotlib v3.3.2, https://matplotlib.org/</dc:title>
     </cc:Agent>
    </dc:creator>
   </cc:Work>
  </rdf:RDF>
 </metadata>
 <defs>
  <style type="text/css">*{stroke-linecap:butt;stroke-linejoin:round;}</style>
 </defs>
 <g id="figure_1">
  <g id="patch_1">
   <path d="M 0 266.374219 
L 386.049062 266.374219 
L 386.049062 0 
L 0 0 
z
" style="fill:#ffffff;"/>
  </g>
  <g id="axes_1">
   <g id="patch_2">
    <path d="M 44.049063 224.64 
L 378.849063 224.64 
L 378.849063 7.2 
L 44.049063 7.2 
z
" style="fill:#eaeaf2;"/>
   </g>
   <g id="matplotlib.axis_1">
    <g id="xtick_1">
     <g id="text_1">
      <!-- 0 -->
      <g style="fill:#262626;" transform="translate(124.690547 242.013594)scale(0.11 -0.11)">
       <defs>
        <path d="M 4.15625 35.296875 
Q 4.15625 48 6.765625 55.734375 
Q 9.375 63.484375 14.515625 67.671875 
Q 19.671875 71.875 27.484375 71.875 
Q 33.25 71.875 37.59375 69.546875 
Q 41.9375 67.234375 44.765625 62.859375 
Q 47.609375 58.5 49.21875 52.21875 
Q 50.828125 45.953125 50.828125 35.296875 
Q 50.828125 22.703125 48.234375 14.96875 
Q 45.65625 7.234375 40.5 3 
Q 35.359375 -1.21875 27.484375 -1.21875 
Q 17.140625 -1.21875 11.234375 6.203125 
Q 4.15625 15.140625 4.15625 35.296875 
z
M 13.1875 35.296875 
Q 13.1875 17.671875 17.3125 11.828125 
Q 21.4375 6 27.484375 6 
Q 33.546875 6 37.671875 11.859375 
Q 41.796875 17.71875 41.796875 35.296875 
Q 41.796875 52.984375 37.671875 58.78125 
Q 33.546875 64.59375 27.390625 64.59375 
Q 21.34375 64.59375 17.71875 59.46875 
Q 13.1875 52.9375 13.1875 35.296875 
z
" id="ArialMT-48"/>
       </defs>
       <use xlink:href="#ArialMT-48"/>
      </g>
     </g>
    </g>
    <g id="xtick_2">
     <g id="text_2">
      <!-- 1 -->
      <g style="fill:#262626;" transform="translate(292.090547 242.013594)scale(0.11 -0.11)">
       <defs>
        <path d="M 37.25 0 
L 28.46875 0 
L 28.46875 56 
Q 25.296875 52.984375 20.140625 49.953125 
Q 14.984375 46.921875 10.890625 45.40625 
L 10.890625 53.90625 
Q 18.265625 57.375 23.78125 62.296875 
Q 29.296875 67.234375 31.59375 71.875 
L 37.25 71.875 
z
" id="ArialMT-49"/>
       </defs>
       <use xlink:href="#ArialMT-49"/>
      </g>
     </g>
    </g>
    <g id="text_3">
     <!-- Survived -->
     <g style="fill:#262626;" transform="translate(188.10625 256.789219)scale(0.12 -0.12)">
      <defs>
       <path d="M 4.5 23 
L 13.421875 23.78125 
Q 14.0625 18.40625 16.375 14.96875 
Q 18.703125 11.53125 23.578125 9.40625 
Q 28.46875 7.28125 34.578125 7.28125 
Q 39.984375 7.28125 44.140625 8.890625 
Q 48.296875 10.5 50.3125 13.296875 
Q 52.34375 16.109375 52.34375 19.4375 
Q 52.34375 22.796875 50.390625 25.3125 
Q 48.4375 27.828125 43.953125 29.546875 
Q 41.0625 30.671875 31.203125 33.03125 
Q 21.34375 35.40625 17.390625 37.5 
Q 12.25 40.1875 9.734375 44.15625 
Q 7.234375 48.140625 7.234375 53.078125 
Q 7.234375 58.5 10.296875 63.203125 
Q 13.375 67.921875 19.28125 70.359375 
Q 25.203125 72.796875 32.421875 72.796875 
Q 40.375 72.796875 46.453125 70.234375 
Q 52.546875 67.671875 55.8125 62.6875 
Q 59.078125 57.71875 59.328125 51.421875 
L 50.25 50.734375 
Q 49.515625 57.515625 45.28125 60.984375 
Q 41.0625 64.453125 32.8125 64.453125 
Q 24.21875 64.453125 20.28125 61.296875 
Q 16.359375 58.15625 16.359375 53.71875 
Q 16.359375 49.859375 19.140625 47.359375 
Q 21.875 44.875 33.421875 42.265625 
Q 44.96875 39.65625 49.265625 37.703125 
Q 55.515625 34.8125 58.484375 30.390625 
Q 61.46875 25.984375 61.46875 20.21875 
Q 61.46875 14.5 58.203125 9.4375 
Q 54.9375 4.390625 48.796875 1.578125 
Q 42.671875 -1.21875 35.015625 -1.21875 
Q 25.296875 -1.21875 18.71875 1.609375 
Q 12.15625 4.4375 8.421875 10.125 
Q 4.6875 15.828125 4.5 23 
z
" id="ArialMT-83"/>
       <path d="M 40.578125 0 
L 40.578125 7.625 
Q 34.515625 -1.171875 24.125 -1.171875 
Q 19.53125 -1.171875 15.546875 0.578125 
Q 11.578125 2.34375 9.640625 5 
Q 7.71875 7.671875 6.9375 11.53125 
Q 6.390625 14.109375 6.390625 19.734375 
L 6.390625 51.859375 
L 15.1875 51.859375 
L 15.1875 23.09375 
Q 15.1875 16.21875 15.71875 13.8125 
Q 16.546875 10.359375 19.234375 8.375 
Q 21.921875 6.390625 25.875 6.390625 
Q 29.828125 6.390625 33.296875 8.421875 
Q 36.765625 10.453125 38.203125 13.9375 
Q 39.65625 17.4375 39.65625 24.078125 
L 39.65625 51.859375 
L 48.4375 51.859375 
L 48.4375 0 
z
" id="ArialMT-117"/>
       <path d="M 6.5 0 
L 6.5 51.859375 
L 14.40625 51.859375 
L 14.40625 44 
Q 17.4375 49.515625 20 51.265625 
Q 22.5625 53.03125 25.640625 53.03125 
Q 30.078125 53.03125 34.671875 50.203125 
L 31.640625 42.046875 
Q 28.421875 43.953125 25.203125 43.953125 
Q 22.3125 43.953125 20.015625 42.21875 
Q 17.71875 40.484375 16.75 37.40625 
Q 15.28125 32.71875 15.28125 27.15625 
L 15.28125 0 
z
" id="ArialMT-114"/>
       <path d="M 21 0 
L 1.265625 51.859375 
L 10.546875 51.859375 
L 21.6875 20.796875 
Q 23.484375 15.765625 25 10.359375 
Q 26.171875 14.453125 28.265625 20.21875 
L 39.796875 51.859375 
L 48.828125 51.859375 
L 29.203125 0 
z
" id="ArialMT-118"/>
       <path d="M 6.640625 61.46875 
L 6.640625 71.578125 
L 15.4375 71.578125 
L 15.4375 61.46875 
z
M 6.640625 0 
L 6.640625 51.859375 
L 15.4375 51.859375 
L 15.4375 0 
z
" id="ArialMT-105"/>
       <path d="M 42.09375 16.703125 
L 51.171875 15.578125 
Q 49.03125 7.625 43.21875 3.21875 
Q 37.40625 -1.171875 28.375 -1.171875 
Q 17 -1.171875 10.328125 5.828125 
Q 3.65625 12.84375 3.65625 25.484375 
Q 3.65625 38.578125 10.390625 45.796875 
Q 17.140625 53.03125 27.875 53.03125 
Q 38.28125 53.03125 44.875 45.953125 
Q 51.46875 38.875 51.46875 26.03125 
Q 51.46875 25.25 51.421875 23.6875 
L 12.75 23.6875 
Q 13.234375 15.140625 17.578125 10.59375 
Q 21.921875 6.0625 28.421875 6.0625 
Q 33.25 6.0625 36.671875 8.59375 
Q 40.09375 11.140625 42.09375 16.703125 
z
M 13.234375 30.90625 
L 42.1875 30.90625 
Q 41.609375 37.453125 38.875 40.71875 
Q 34.671875 45.796875 27.984375 45.796875 
Q 21.921875 45.796875 17.796875 41.75 
Q 13.671875 37.703125 13.234375 30.90625 
z
" id="ArialMT-101"/>
       <path d="M 40.234375 0 
L 40.234375 6.546875 
Q 35.296875 -1.171875 25.734375 -1.171875 
Q 19.53125 -1.171875 14.328125 2.25 
Q 9.125 5.671875 6.265625 11.796875 
Q 3.421875 17.921875 3.421875 25.875 
Q 3.421875 33.640625 6 39.96875 
Q 8.59375 46.296875 13.765625 49.65625 
Q 18.953125 53.03125 25.34375 53.03125 
Q 30.03125 53.03125 33.6875 51.046875 
Q 37.359375 49.078125 39.65625 45.90625 
L 39.65625 71.578125 
L 48.390625 71.578125 
L 48.390625 0 
z
M 12.453125 25.875 
Q 12.453125 15.921875 16.640625 10.984375 
Q 20.84375 6.0625 26.5625 6.0625 
Q 32.328125 6.0625 36.34375 10.765625 
Q 40.375 15.484375 40.375 25.140625 
Q 40.375 35.796875 36.265625 40.765625 
Q 32.171875 45.75 26.171875 45.75 
Q 20.3125 45.75 16.375 40.96875 
Q 12.453125 36.1875 12.453125 25.875 
z
" id="ArialMT-100"/>
      </defs>
      <use xlink:href="#ArialMT-83"/>
      <use x="66.699219" xlink:href="#ArialMT-117"/>
      <use x="122.314453" xlink:href="#ArialMT-114"/>
      <use x="155.615234" xlink:href="#ArialMT-118"/>
      <use x="205.615234" xlink:href="#ArialMT-105"/>
      <use x="227.832031" xlink:href="#ArialMT-118"/>
      <use x="277.832031" xlink:href="#ArialMT-101"/>
      <use x="333.447266" xlink:href="#ArialMT-100"/>
     </g>
    </g>
   </g>
   <g id="matplotlib.axis_2">
    <g id="ytick_1">
     <g id="line2d_1">
      <path clip-path="url(#p43d303fdcd)" d="M 44.049063 196.351724 
L 378.849063 196.351724 
" style="fill:none;stroke:#ffffff;stroke-linecap:round;"/>
     </g>
     <g id="text_4">
      <!-- 0 -->
      <g style="fill:#262626;" transform="translate(28.432031 200.288521)scale(0.11 -0.11)">
       <use xlink:href="#ArialMT-48"/>
      </g>
     </g>
    </g>
    <g id="ytick_2">
     <g id="line2d_2">
      <path clip-path="url(#p43d303fdcd)" d="M 44.049063 156.345893 
L 378.849063 156.345893 
" style="fill:none;stroke:#ffffff;stroke-linecap:round;"/>
     </g>
     <g id="text_5">
      <!-- 20 -->
      <g style="fill:#262626;" transform="translate(22.315 160.282689)scale(0.11 -0.11)">
       <defs>
        <path d="M 50.34375 8.453125 
L 50.34375 0 
L 3.03125 0 
Q 2.9375 3.171875 4.046875 6.109375 
Q 5.859375 10.9375 9.828125 15.625 
Q 13.8125 20.3125 21.34375 26.46875 
Q 33.015625 36.03125 37.109375 41.625 
Q 41.21875 47.21875 41.21875 52.203125 
Q 41.21875 57.421875 37.46875 61 
Q 33.734375 64.59375 27.734375 64.59375 
Q 21.390625 64.59375 17.578125 60.78125 
Q 13.765625 56.984375 13.71875 50.25 
L 4.6875 51.171875 
Q 5.609375 61.28125 11.65625 66.578125 
Q 17.71875 71.875 27.9375 71.875 
Q 38.234375 71.875 44.234375 66.15625 
Q 50.25 60.453125 50.25 52 
Q 50.25 47.703125 48.484375 43.546875 
Q 46.734375 39.40625 42.65625 34.8125 
Q 38.578125 30.21875 29.109375 22.21875 
Q 21.1875 15.578125 18.9375 13.203125 
Q 16.703125 10.84375 15.234375 8.453125 
z
" id="ArialMT-50"/>
       </defs>
       <use xlink:href="#ArialMT-50"/>
       <use x="55.615234" xlink:href="#ArialMT-48"/>
      </g>
     </g>
    </g>
    <g id="ytick_3">
     <g id="line2d_3">
      <path clip-path="url(#p43d303fdcd)" d="M 44.049063 116.340061 
L 378.849063 116.340061 
" style="fill:none;stroke:#ffffff;stroke-linecap:round;"/>
     </g>
     <g id="text_6">
      <!-- 40 -->
      <g style="fill:#262626;" transform="translate(22.315 120.276858)scale(0.11 -0.11)">
       <defs>
        <path d="M 32.328125 0 
L 32.328125 17.140625 
L 1.265625 17.140625 
L 1.265625 25.203125 
L 33.9375 71.578125 
L 41.109375 71.578125 
L 41.109375 25.203125 
L 50.78125 25.203125 
L 50.78125 17.140625 
L 41.109375 17.140625 
L 41.109375 0 
z
M 32.328125 25.203125 
L 32.328125 57.46875 
L 9.90625 25.203125 
z
" id="ArialMT-52"/>
       </defs>
       <use xlink:href="#ArialMT-52"/>
       <use x="55.615234" xlink:href="#ArialMT-48"/>
      </g>
     </g>
    </g>
    <g id="ytick_4">
     <g id="line2d_4">
      <path clip-path="url(#p43d303fdcd)" d="M 44.049063 76.33423 
L 378.849063 76.33423 
" style="fill:none;stroke:#ffffff;stroke-linecap:round;"/>
     </g>
     <g id="text_7">
      <!-- 60 -->
      <g style="fill:#262626;" transform="translate(22.315 80.271027)scale(0.11 -0.11)">
       <defs>
        <path d="M 49.75 54.046875 
L 41.015625 53.375 
Q 39.84375 58.546875 37.703125 60.890625 
Q 34.125 64.65625 28.90625 64.65625 
Q 24.703125 64.65625 21.53125 62.3125 
Q 17.390625 59.28125 14.984375 53.46875 
Q 12.59375 47.65625 12.5 36.921875 
Q 15.671875 41.75 20.265625 44.09375 
Q 24.859375 46.4375 29.890625 46.4375 
Q 38.671875 46.4375 44.84375 39.96875 
Q 51.03125 33.5 51.03125 23.25 
Q 51.03125 16.5 48.125 10.71875 
Q 45.21875 4.9375 40.140625 1.859375 
Q 35.0625 -1.21875 28.609375 -1.21875 
Q 17.625 -1.21875 10.6875 6.859375 
Q 3.765625 14.9375 3.765625 33.5 
Q 3.765625 54.25 11.421875 63.671875 
Q 18.109375 71.875 29.4375 71.875 
Q 37.890625 71.875 43.28125 67.140625 
Q 48.6875 62.40625 49.75 54.046875 
z
M 13.875 23.1875 
Q 13.875 18.65625 15.796875 14.5 
Q 17.71875 10.359375 21.1875 8.171875 
Q 24.65625 6 28.46875 6 
Q 34.03125 6 38.03125 10.484375 
Q 42.046875 14.984375 42.046875 22.703125 
Q 42.046875 30.125 38.078125 34.390625 
Q 34.125 38.671875 28.125 38.671875 
Q 22.171875 38.671875 18.015625 34.390625 
Q 13.875 30.125 13.875 23.1875 
z
" id="ArialMT-54"/>
       </defs>
       <use xlink:href="#ArialMT-54"/>
       <use x="55.615234" xlink:href="#ArialMT-48"/>
      </g>
     </g>
    </g>
    <g id="ytick_5">
     <g id="line2d_5">
      <path clip-path="url(#p43d303fdcd)" d="M 44.049063 36.328398 
L 378.849063 36.328398 
" style="fill:none;stroke:#ffffff;stroke-linecap:round;"/>
     </g>
     <g id="text_8">
      <!-- 80 -->
      <g style="fill:#262626;" transform="translate(22.315 40.265195)scale(0.11 -0.11)">
       <defs>
        <path d="M 17.671875 38.8125 
Q 12.203125 40.828125 9.5625 44.53125 
Q 6.9375 48.25 6.9375 53.421875 
Q 6.9375 61.234375 12.546875 66.546875 
Q 18.171875 71.875 27.484375 71.875 
Q 36.859375 71.875 42.578125 66.421875 
Q 48.296875 60.984375 48.296875 53.171875 
Q 48.296875 48.1875 45.671875 44.5 
Q 43.0625 40.828125 37.75 38.8125 
Q 44.34375 36.671875 47.78125 31.875 
Q 51.21875 27.09375 51.21875 20.453125 
Q 51.21875 11.28125 44.71875 5.03125 
Q 38.234375 -1.21875 27.640625 -1.21875 
Q 17.046875 -1.21875 10.546875 5.046875 
Q 4.046875 11.328125 4.046875 20.703125 
Q 4.046875 27.6875 7.59375 32.390625 
Q 11.140625 37.109375 17.671875 38.8125 
z
M 15.921875 53.71875 
Q 15.921875 48.640625 19.1875 45.40625 
Q 22.46875 42.1875 27.6875 42.1875 
Q 32.765625 42.1875 36.015625 45.375 
Q 39.265625 48.578125 39.265625 53.21875 
Q 39.265625 58.0625 35.90625 61.359375 
Q 32.5625 64.65625 27.59375 64.65625 
Q 22.5625 64.65625 19.234375 61.421875 
Q 15.921875 58.203125 15.921875 53.71875 
z
M 13.09375 20.65625 
Q 13.09375 16.890625 14.875 13.375 
Q 16.65625 9.859375 20.171875 7.921875 
Q 23.6875 6 27.734375 6 
Q 34.03125 6 38.125 10.046875 
Q 42.234375 14.109375 42.234375 20.359375 
Q 42.234375 26.703125 38.015625 30.859375 
Q 33.796875 35.015625 27.4375 35.015625 
Q 21.234375 35.015625 17.15625 30.90625 
Q 13.09375 26.8125 13.09375 20.65625 
z
" id="ArialMT-56"/>
       </defs>
       <use xlink:href="#ArialMT-56"/>
       <use x="55.615234" xlink:href="#ArialMT-48"/>
      </g>
     </g>
    </g>
    <g id="text_9">
     <!-- Age -->
     <g style="fill:#262626;" transform="translate(15.789375 126.595313)rotate(-90)scale(0.12 -0.12)">
      <defs>
       <path d="M -0.140625 0 
L 27.34375 71.578125 
L 37.546875 71.578125 
L 66.84375 0 
L 56.0625 0 
L 47.703125 21.6875 
L 17.78125 21.6875 
L 9.90625 0 
z
M 20.515625 29.390625 
L 44.78125 29.390625 
L 37.3125 49.21875 
Q 33.890625 58.25 32.234375 64.0625 
Q 30.859375 57.171875 28.375 50.390625 
z
" id="ArialMT-65"/>
       <path d="M 4.984375 -4.296875 
L 13.53125 -5.5625 
Q 14.0625 -9.515625 16.5 -11.328125 
Q 19.78125 -13.765625 25.4375 -13.765625 
Q 31.546875 -13.765625 34.859375 -11.328125 
Q 38.1875 -8.890625 39.359375 -4.5 
Q 40.046875 -1.8125 39.984375 6.78125 
Q 34.234375 0 25.640625 0 
Q 14.9375 0 9.078125 7.71875 
Q 3.21875 15.4375 3.21875 26.21875 
Q 3.21875 33.640625 5.90625 39.90625 
Q 8.59375 46.1875 13.6875 49.609375 
Q 18.796875 53.03125 25.6875 53.03125 
Q 34.859375 53.03125 40.828125 45.609375 
L 40.828125 51.859375 
L 48.921875 51.859375 
L 48.921875 7.03125 
Q 48.921875 -5.078125 46.453125 -10.125 
Q 44 -15.1875 38.640625 -18.109375 
Q 33.296875 -21.046875 25.484375 -21.046875 
Q 16.21875 -21.046875 10.5 -16.875 
Q 4.78125 -12.703125 4.984375 -4.296875 
z
M 12.25 26.859375 
Q 12.25 16.65625 16.296875 11.96875 
Q 20.359375 7.28125 26.46875 7.28125 
Q 32.515625 7.28125 36.609375 11.9375 
Q 40.71875 16.609375 40.71875 26.5625 
Q 40.71875 36.078125 36.5 40.90625 
Q 32.28125 45.75 26.3125 45.75 
Q 20.453125 45.75 16.34375 40.984375 
Q 12.25 36.234375 12.25 26.859375 
z
" id="ArialMT-103"/>
      </defs>
      <use xlink:href="#ArialMT-65"/>
      <use x="66.699219" xlink:href="#ArialMT-103"/>
      <use x="122.314453" xlink:href="#ArialMT-101"/>
     </g>
    </g>
   </g>
   <g id="PolyCollection_1">
    <defs>
     <path d="M 128.202624 -55.115082 
L 127.295501 -55.115082 
L 127.030315 -56.931614 
L 126.657605 -58.748147 
L 126.159731 -60.564679 
L 125.527953 -62.381211 
L 124.766783 -64.197743 
L 123.896438 -66.014276 
L 122.952107 -67.830808 
L 121.979512 -69.64734 
L 121.027358 -71.463872 
L 120.138379 -73.280405 
L 119.341216 -75.096937 
L 118.645001 -76.913469 
L 118.037347 -78.730001 
L 117.485043 -80.546534 
L 116.935774 -82.363066 
L 116.319346 -84.179598 
L 115.548048 -85.99613 
L 114.517572 -87.812663 
L 113.111095 -89.629195 
L 111.209133 -91.445727 
L 108.706086 -93.262259 
L 105.531686 -95.078792 
L 101.672818 -96.895324 
L 97.189657 -98.711856 
L 92.220555 -100.528388 
L 86.972604 -102.344921 
L 81.698484 -104.161453 
L 76.663975 -105.977985 
L 72.112978 -107.794517 
L 68.237468 -109.61105 
L 65.15834 -111.427582 
L 62.920154 -113.244114 
L 61.499351 -115.060646 
L 60.822472 -116.877179 
L 60.789062 -118.693711 
L 61.293538 -120.510243 
L 62.241372 -122.326775 
L 63.557031 -124.143308 
L 65.183608 -125.95984 
L 67.07637 -127.776372 
L 69.193831 -129.592904 
L 71.490073 -131.409437 
L 73.91102 -133.225969 
L 76.395562 -135.042501 
L 78.880594 -136.859033 
L 81.307806 -138.675566 
L 83.629851 -140.492098 
L 85.814138 -142.30863 
L 87.843684 -144.125162 
L 89.715496 -145.941695 
L 91.43766 -147.758227 
L 93.026301 -149.574759 
L 94.503136 -151.391291 
L 95.893722 -153.207824 
L 97.225947 -155.024356 
L 98.528172 -156.840888 
L 99.826672 -158.65742 
L 101.142512 -160.473953 
L 102.488513 -162.290485 
L 103.867157 -164.107017 
L 105.270146 -165.923549 
L 106.679824 -167.740082 
L 108.072153 -169.556614 
L 109.420489 -171.373146 
L 110.699373 -173.189678 
L 111.887677 -175.006211 
L 112.97079 -176.822743 
L 113.941791 -178.639275 
L 114.801724 -180.455807 
L 115.559071 -182.27234 
L 116.228549 -184.088872 
L 116.82928 -185.905404 
L 117.382451 -187.721936 
L 117.908683 -189.538469 
L 118.425405 -191.355001 
L 118.944666 -193.171533 
L 119.471808 -194.988065 
L 120.005372 -196.804598 
L 120.538398 -198.62113 
L 121.060969 -200.437662 
L 121.563478 -202.254194 
L 122.039791 -204.070727 
L 122.489354 -205.887259 
L 122.917537 -207.703791 
L 123.334008 -209.520323 
L 123.749593 -211.336856 
L 124.172628 -213.153388 
L 124.60601 -214.96992 
L 125.045863 -216.786452 
L 125.482197 -218.602985 
L 125.901199 -220.419517 
L 126.28835 -222.236049 
L 126.631403 -224.052581 
L 126.922451 -225.869114 
L 127.158745 -227.685646 
L 127.342328 -229.502178 
L 127.478858 -231.31871 
L 127.576088 -233.135243 
L 127.642416 -234.951775 
L 127.855709 -234.951775 
L 127.855709 -234.951775 
L 127.922037 -233.135243 
L 128.019267 -231.31871 
L 128.155797 -229.502178 
L 128.33938 -227.685646 
L 128.575674 -225.869114 
L 128.866722 -224.052581 
L 129.209775 -222.236049 
L 129.596926 -220.419517 
L 130.015928 -218.602985 
L 130.452262 -216.786452 
L 130.892115 -214.96992 
L 131.325497 -213.153388 
L 131.748532 -211.336856 
L 132.164117 -209.520323 
L 132.580588 -207.703791 
L 133.008771 -205.887259 
L 133.458334 -204.070727 
L 133.934647 -202.254194 
L 134.437156 -200.437662 
L 134.959727 -198.62113 
L 135.492753 -196.804598 
L 136.026317 -194.988065 
L 136.553459 -193.171533 
L 137.07272 -191.355001 
L 137.589442 -189.538469 
L 138.115674 -187.721936 
L 138.668845 -185.905404 
L 139.269576 -184.088872 
L 139.939054 -182.27234 
L 140.696401 -180.455807 
L 141.556334 -178.639275 
L 142.527335 -176.822743 
L 143.610448 -175.006211 
L 144.798752 -173.189678 
L 146.077636 -171.373146 
L 147.425972 -169.556614 
L 148.818301 -167.740082 
L 150.227979 -165.923549 
L 151.630968 -164.107017 
L 153.009612 -162.290485 
L 154.355613 -160.473953 
L 155.671453 -158.65742 
L 156.969953 -156.840888 
L 158.272178 -155.024356 
L 159.604403 -153.207824 
L 160.994989 -151.391291 
L 162.471824 -149.574759 
L 164.060465 -147.758227 
L 165.782629 -145.941695 
L 167.654441 -144.125162 
L 169.683987 -142.30863 
L 171.868274 -140.492098 
L 174.190319 -138.675566 
L 176.617531 -136.859033 
L 179.102563 -135.042501 
L 181.587105 -133.225969 
L 184.008052 -131.409437 
L 186.304294 -129.592904 
L 188.421755 -127.776372 
L 190.314517 -125.95984 
L 191.941094 -124.143308 
L 193.256753 -122.326775 
L 194.204587 -120.510243 
L 194.709063 -118.693711 
L 194.675653 -116.877179 
L 193.998774 -115.060646 
L 192.577971 -113.244114 
L 190.339785 -111.427582 
L 187.260657 -109.61105 
L 183.385147 -107.794517 
L 178.83415 -105.977985 
L 173.799641 -104.161453 
L 168.525521 -102.344921 
L 163.27757 -100.528388 
L 158.308468 -98.711856 
L 153.825307 -96.895324 
L 149.966439 -95.078792 
L 146.792039 -93.262259 
L 144.288992 -91.445727 
L 142.38703 -89.629195 
L 140.980553 -87.812663 
L 139.950077 -85.99613 
L 139.178779 -84.179598 
L 138.562351 -82.363066 
L 138.013082 -80.546534 
L 137.460778 -78.730001 
L 136.853124 -76.913469 
L 136.156909 -75.096937 
L 135.359746 -73.280405 
L 134.470767 -71.463872 
L 133.518613 -69.64734 
L 132.546018 -67.830808 
L 131.601687 -66.014276 
L 130.731342 -64.197743 
L 129.970172 -62.381211 
L 129.338394 -60.564679 
L 128.84052 -58.748147 
L 128.46781 -56.931614 
L 128.202624 -55.115082 
z
" id="m601942efe8" style="stroke:#4c4c4c;stroke-width:1.5;"/>
    </defs>
    <g clip-path="url(#p43d303fdcd)">
     <use style="fill:#5875a4;stroke:#4c4c4c;stroke-width:1.5;" x="0" xlink:href="#m601942efe8" y="266.374219"/>
    </g>
   </g>
   <g id="PolyCollection_2">
    <defs>
     <path d="M 296.326355 -51.617855 
L 293.97177 -51.617855 
L 293.310061 -53.614549 
L 292.38781 -55.611244 
L 291.162346 -57.607938 
L 289.611885 -59.604632 
L 287.747397 -61.601326 
L 285.621652 -63.59802 
L 283.332118 -65.594715 
L 281.015144 -67.591409 
L 278.830642 -69.588103 
L 276.938904 -71.584797 
L 275.473547 -73.581491 
L 274.516125 -75.578186 
L 274.078029 -77.57488 
L 274.093897 -79.571574 
L 274.428245 -81.568268 
L 274.894127 -83.564963 
L 275.28019 -85.561657 
L 275.381008 -87.558351 
L 275.02536 -89.555045 
L 274.097892 -91.551739 
L 272.551136 -93.548434 
L 270.406752 -95.545128 
L 267.746736 -97.541822 
L 264.697017 -99.538516 
L 261.407003 -101.53521 
L 258.029077 -103.531905 
L 254.701625 -105.528599 
L 251.537961 -107.525293 
L 248.621846 -109.521987 
L 246.008678 -111.518682 
L 243.730381 -113.515376 
L 241.80175 -115.51207 
L 240.226545 -117.508764 
L 239.002474 -119.505458 
L 238.125021 -121.502153 
L 237.590399 -123.498847 
L 237.39778 -125.495541 
L 237.550592 -127.492235 
L 238.056348 -129.488929 
L 238.924504 -131.485624 
L 240.162258 -133.482318 
L 241.768852 -135.479012 
L 243.729553 -137.475706 
L 246.010827 -139.472401 
L 248.558095 -141.469095 
L 251.296893 -143.465789 
L 254.13752 -145.462483 
L 256.982476 -147.459177 
L 259.735492 -149.455872 
L 262.310816 -151.452566 
L 264.641551 -153.44926 
L 266.686071 -155.445954 
L 268.431799 -157.442649 
L 269.895726 -159.439343 
L 271.121307 -161.436037 
L 272.171712 -163.432731 
L 273.120064 -165.429425 
L 274.038118 -167.42612 
L 274.985409 -169.422814 
L 276.001099 -171.419508 
L 277.100228 -173.416202 
L 278.275045 -175.412896 
L 279.500775 -177.409591 
L 280.744092 -179.406285 
L 281.972007 -181.402979 
L 283.159015 -183.399673 
L 284.291027 -185.396368 
L 285.365613 -187.393062 
L 286.389099 -189.389756 
L 287.371723 -191.38645 
L 288.322433 -193.383144 
L 289.244747 -195.379839 
L 290.134662 -197.376533 
L 290.980931 -199.373227 
L 291.767376 -201.369921 
L 292.476377 -203.366615 
L 293.092525 -205.36331 
L 293.605485 -207.360004 
L 294.011544 -209.356698 
L 294.313737 -211.353392 
L 294.520876 -213.350087 
L 294.64599 -215.346781 
L 294.704678 -217.343475 
L 294.713695 -219.340169 
L 294.689843 -221.336863 
L 294.649084 -223.333558 
L 294.605719 -225.330252 
L 294.571559 -227.326946 
L 294.555145 -229.32364 
L 294.561189 -231.320334 
L 294.590431 -233.317029 
L 294.640049 -235.313723 
L 294.704585 -237.310417 
L 294.777208 -239.307111 
L 294.851044 -241.303806 
L 294.920273 -243.3005 
L 294.980818 -245.297194 
L 295.030554 -247.293888 
L 295.069105 -249.290582 
L 295.22902 -249.290582 
L 295.22902 -249.290582 
L 295.267571 -247.293888 
L 295.317307 -245.297194 
L 295.377852 -243.3005 
L 295.447081 -241.303806 
L 295.520917 -239.307111 
L 295.59354 -237.310417 
L 295.658076 -235.313723 
L 295.707694 -233.317029 
L 295.736936 -231.320334 
L 295.74298 -229.32364 
L 295.726566 -227.326946 
L 295.692406 -225.330252 
L 295.649041 -223.333558 
L 295.608282 -221.336863 
L 295.58443 -219.340169 
L 295.593447 -217.343475 
L 295.652135 -215.346781 
L 295.777249 -213.350087 
L 295.984388 -211.353392 
L 296.286581 -209.356698 
L 296.69264 -207.360004 
L 297.2056 -205.36331 
L 297.821748 -203.366615 
L 298.530749 -201.369921 
L 299.317194 -199.373227 
L 300.163463 -197.376533 
L 301.053378 -195.379839 
L 301.975692 -193.383144 
L 302.926402 -191.38645 
L 303.909026 -189.389756 
L 304.932512 -187.393062 
L 306.007098 -185.396368 
L 307.13911 -183.399673 
L 308.326118 -181.402979 
L 309.554033 -179.406285 
L 310.79735 -177.409591 
L 312.02308 -175.412896 
L 313.197897 -173.416202 
L 314.297026 -171.419508 
L 315.312716 -169.422814 
L 316.260007 -167.42612 
L 317.178061 -165.429425 
L 318.126413 -163.432731 
L 319.176818 -161.436037 
L 320.402399 -159.439343 
L 321.866326 -157.442649 
L 323.612054 -155.445954 
L 325.656574 -153.44926 
L 327.987309 -151.452566 
L 330.562633 -149.455872 
L 333.315649 -147.459177 
L 336.160605 -145.462483 
L 339.001232 -143.465789 
L 341.74003 -141.469095 
L 344.287298 -139.472401 
L 346.568572 -137.475706 
L 348.529273 -135.479012 
L 350.135867 -133.482318 
L 351.373621 -131.485624 
L 352.241777 -129.488929 
L 352.747533 -127.492235 
L 352.900345 -125.495541 
L 352.707726 -123.498847 
L 352.173104 -121.502153 
L 351.295651 -119.505458 
L 350.07158 -117.508764 
L 348.496375 -115.51207 
L 346.567744 -113.515376 
L 344.289447 -111.518682 
L 341.676279 -109.521987 
L 338.760164 -107.525293 
L 335.5965 -105.528599 
L 332.269048 -103.531905 
L 328.891122 -101.53521 
L 325.601108 -99.538516 
L 322.551389 -97.541822 
L 319.891373 -95.545128 
L 317.746989 -93.548434 
L 316.200233 -91.551739 
L 315.272765 -89.555045 
L 314.917117 -87.558351 
L 315.017935 -85.561657 
L 315.403998 -83.564963 
L 315.86988 -81.568268 
L 316.204228 -79.571574 
L 316.220096 -77.57488 
L 315.782 -75.578186 
L 314.824578 -73.581491 
L 313.359221 -71.584797 
L 311.467483 -69.588103 
L 309.282981 -67.591409 
L 306.966007 -65.594715 
L 304.676473 -63.59802 
L 302.550728 -61.601326 
L 300.68624 -59.604632 
L 299.135779 -57.607938 
L 297.910315 -55.611244 
L 296.988064 -53.614549 
L 296.326355 -51.617855 
z
" id="m4af5469e71" style="stroke:#4c4c4c;stroke-width:1.5;"/>
    </defs>
    <g clip-path="url(#p43d303fdcd)">
     <use style="fill:#cc8963;stroke:#4c4c4c;stroke-width:1.5;" x="0" xlink:href="#m4af5469e71" y="266.374219"/>
    </g>
   </g>
   <g id="line2d_6">
    <path clip-path="url(#p43d303fdcd)" d="M 127.749063 194.351432 
L 127.749063 64.33248 
" style="fill:none;stroke:#4c4c4c;stroke-linecap:round;stroke-width:1.5;"/>
   </g>
   <g id="line2d_7">
    <path clip-path="url(#p43d303fdcd)" d="M 127.749063 154.345601 
L 127.749063 118.340353 
" style="fill:none;stroke:#4c4c4c;stroke-linecap:round;stroke-width:4.5;"/>
   </g>
   <g id="line2d_8">
    <path clip-path="url(#p43d303fdcd)" d="M 295.149063 195.511602 
L 295.149063 76.33423 
" style="fill:none;stroke:#4c4c4c;stroke-linecap:round;stroke-width:1.5;"/>
   </g>
   <g id="line2d_9">
    <path clip-path="url(#p43d303fdcd)" d="M 295.149063 158.346184 
L 295.149063 124.341228 
" style="fill:none;stroke:#4c4c4c;stroke-linecap:round;stroke-width:4.5;"/>
   </g>
   <g id="patch_3">
    <path d="M 44.049063 224.64 
L 44.049063 7.2 
" style="fill:none;stroke:#ffffff;stroke-linecap:square;stroke-linejoin:miter;stroke-width:1.25;"/>
   </g>
   <g id="patch_4">
    <path d="M 378.849063 224.64 
L 378.849063 7.2 
" style="fill:none;stroke:#ffffff;stroke-linecap:square;stroke-linejoin:miter;stroke-width:1.25;"/>
   </g>
   <g id="patch_5">
    <path d="M 44.049063 224.64 
L 378.849063 224.64 
" style="fill:none;stroke:#ffffff;stroke-linecap:square;stroke-linejoin:miter;stroke-width:1.25;"/>
   </g>
   <g id="patch_6">
    <path d="M 44.049063 7.2 
L 378.849063 7.2 
" style="fill:none;stroke:#ffffff;stroke-linecap:square;stroke-linejoin:miter;stroke-width:1.25;"/>
   </g>
   <g id="PathCollection_1">
    <defs>
     <path d="M 0 1.5 
C 0.397805 1.5 0.77937 1.341951 1.06066 1.06066 
C 1.341951 0.77937 1.5 0.397805 1.5 0 
C 1.5 -0.397805 1.341951 -0.77937 1.06066 -1.06066 
C 0.77937 -1.341951 0.397805 -1.5 0 -1.5 
C -0.397805 -1.5 -0.77937 -1.341951 -1.06066 -1.06066 
C -1.341951 -0.77937 -1.5 -0.397805 -1.5 0 
C -1.5 0.397805 -1.341951 0.77937 -1.06066 1.06066 
C -0.77937 1.341951 -0.397805 1.5 0 1.5 
z
" id="m5ee69a8ffe" style="stroke:#4c4c4c;"/>
    </defs>
    <g clip-path="url(#p43d303fdcd)">
     <use style="fill:#ffffff;stroke:#4c4c4c;" x="127.749063" xlink:href="#m5ee69a8ffe" y="140.34356"/>
    </g>
   </g>
   <g id="PathCollection_2">
    <g clip-path="url(#p43d303fdcd)">
     <use style="fill:#ffffff;stroke:#4c4c4c;" x="295.149063" xlink:href="#m5ee69a8ffe" y="140.34356"/>
    </g>
   </g>
  </g>
 </g>
 <defs>
  <clipPath id="p43d303fdcd">
   <rect height="217.44" width="334.8" x="44.049063" y="7.2"/>
  </clipPath>
 </defs>
</svg>
