<?xml version="1.0" encoding="utf-8" standalone="no"?>
<!DOCTYPE svg PUBLIC "-//W3C//DTD SVG 1.1//EN"
  "http://www.w3.org/Graphics/SVG/1.1/DTD/svg11.dtd">
<!-- Created with matplotlib (https://matplotlib.org/) -->
<svg height="266.374219pt" version="1.1" viewBox="0 0 349.2 266.374219" width="349.2pt" xmlns="http://www.w3.org/2000/svg" xmlns:xlink="http://www.w3.org/1999/xlink">
 <metadata>
  <rdf:RDF xmlns:cc="http://creativecommons.org/ns#" xmlns:dc="http://purl.org/dc/elements/1.1/" xmlns:rdf="http://www.w3.org/1999/02/22-rdf-syntax-ns#">
   <cc:Work>
    <dc:type rdf:resource="http://purl.org/dc/dcmitype/StillImage"/>
    <dc:date>2021-05-13T16:00:41.199780</dc:date>
    <dc:format>image/svg+xml</dc:format>
    <dc:creator>
     <cc:Agent>
      <dc:title>Matplotlib v3.3.2, https://matplotlib.org/</dc:title>
     </cc:Agent>
    </dc:creator>
   </cc:Work>
  </rdf:RDF>
 </metadata>
 <defs>
  <style type="text/css">*{stroke-linecap:butt;stroke-linejoin:round;}</style>
 </defs>
 <g id="figure_1">
  <g id="patch_1">
   <path d="M 0 266.374219 
L 349.2 266.374219 
L 349.2 0 
L 0 0 
z
" style="fill:#ffffff;"/>
  </g>
  <g id="axes_1">
   <g id="patch_2">
    <path d="M 7.2 224.64 
L 342 224.64 
L 342 7.2 
L 7.2 7.2 
z
" style="fill:#eaeaf2;"/>
   </g>
   <g id="matplotlib.axis_1">
    <g id="xtick_1">
     <g id="line2d_1">
      <path clip-path="url(#pb7ddf53696)" d="M 14.949855 224.64 
L 14.949855 7.2 
" style="fill:none;stroke:#ffffff;stroke-linecap:round;"/>
     </g>
     <g id="text_1">
      <!-- 0.5 -->
      <g style="fill:#262626;" transform="translate(7.304855 242.013594)scale(0.11 -0.11)">
       <defs>
        <path d="M 4.15625 35.296875 
Q 4.15625 48 6.765625 55.734375 
Q 9.375 63.484375 14.515625 67.671875 
Q 19.671875 71.875 27.484375 71.875 
Q 33.25 71.875 37.59375 69.546875 
Q 41.9375 67.234375 44.765625 62.859375 
Q 47.609375 58.5 49.21875 52.21875 
Q 50.828125 45.953125 50.828125 35.296875 
Q 50.828125 22.703125 48.234375 14.96875 
Q 45.65625 7.234375 40.5 3 
Q 35.359375 -1.21875 27.484375 -1.21875 
Q 17.140625 -1.21875 11.234375 6.203125 
Q 4.15625 15.140625 4.15625 35.296875 
z
M 13.1875 35.296875 
Q 13.1875 17.671875 17.3125 11.828125 
Q 21.4375 6 27.484375 6 
Q 33.546875 6 37.671875 11.859375 
Q 41.796875 17.71875 41.796875 35.296875 
Q 41.796875 52.984375 37.671875 58.78125 
Q 33.546875 64.59375 27.390625 64.59375 
Q 21.34375 64.59375 17.71875 59.46875 
Q 13.1875 52.9375 13.1875 35.296875 
z
" id="ArialMT-48"/>
        <path d="M 9.078125 0 
L 9.078125 10.015625 
L 19.09375 10.015625 
L 19.09375 0 
z
" id="ArialMT-46"/>
        <path d="M 4.15625 18.75 
L 13.375 19.53125 
Q 14.40625 12.796875 18.140625 9.390625 
Q 21.875 6 27.15625 6 
Q 33.5 6 37.890625 10.78125 
Q 42.28125 15.578125 42.28125 23.484375 
Q 42.28125 31 38.0625 35.34375 
Q 33.84375 39.703125 27 39.703125 
Q 22.75 39.703125 19.328125 37.765625 
Q 15.921875 35.84375 13.96875 32.765625 
L 5.71875 33.84375 
L 12.640625 70.609375 
L 48.25 70.609375 
L 48.25 62.203125 
L 19.671875 62.203125 
L 15.828125 42.96875 
Q 22.265625 47.46875 29.34375 47.46875 
Q 38.71875 47.46875 45.15625 40.96875 
Q 51.609375 34.46875 51.609375 24.265625 
Q 51.609375 14.546875 45.953125 7.46875 
Q 39.0625 -1.21875 27.15625 -1.21875 
Q 17.390625 -1.21875 11.203125 4.25 
Q 5.03125 9.71875 4.15625 18.75 
z
" id="ArialMT-53"/>
       </defs>
       <use xlink:href="#ArialMT-48"/>
       <use x="55.615234" xlink:href="#ArialMT-46"/>
       <use x="83.398438" xlink:href="#ArialMT-53"/>
      </g>
     </g>
    </g>
    <g id="xtick_2">
     <g id="line2d_2">
      <path clip-path="url(#pb7ddf53696)" d="M 68.16657 224.64 
L 68.16657 7.2 
" style="fill:none;stroke:#ffffff;stroke-linecap:round;"/>
     </g>
     <g id="text_2">
      <!-- 1.0 -->
      <g style="fill:#262626;" transform="translate(60.52157 242.013594)scale(0.11 -0.11)">
       <defs>
        <path d="M 37.25 0 
L 28.46875 0 
L 28.46875 56 
Q 25.296875 52.984375 20.140625 49.953125 
Q 14.984375 46.921875 10.890625 45.40625 
L 10.890625 53.90625 
Q 18.265625 57.375 23.78125 62.296875 
Q 29.296875 67.234375 31.59375 71.875 
L 37.25 71.875 
z
" id="ArialMT-49"/>
       </defs>
       <use xlink:href="#ArialMT-49"/>
       <use x="55.615234" xlink:href="#ArialMT-46"/>
       <use x="83.398438" xlink:href="#ArialMT-48"/>
      </g>
     </g>
    </g>
    <g id="xtick_3">
     <g id="line2d_3">
      <path clip-path="url(#pb7ddf53696)" d="M 121.383285 224.64 
L 121.383285 7.2 
" style="fill:none;stroke:#ffffff;stroke-linecap:round;"/>
     </g>
     <g id="text_3">
      <!-- 1.5 -->
      <g style="fill:#262626;" transform="translate(113.738285 242.013594)scale(0.11 -0.11)">
       <use xlink:href="#ArialMT-49"/>
       <use x="55.615234" xlink:href="#ArialMT-46"/>
       <use x="83.398438" xlink:href="#ArialMT-53"/>
      </g>
     </g>
    </g>
    <g id="xtick_4">
     <g id="line2d_4">
      <path clip-path="url(#pb7ddf53696)" d="M 174.6 224.64 
L 174.6 7.2 
" style="fill:none;stroke:#ffffff;stroke-linecap:round;"/>
     </g>
     <g id="text_4">
      <!-- 2.0 -->
      <g style="fill:#262626;" transform="translate(166.955 242.013594)scale(0.11 -0.11)">
       <defs>
        <path d="M 50.34375 8.453125 
L 50.34375 0 
L 3.03125 0 
Q 2.9375 3.171875 4.046875 6.109375 
Q 5.859375 10.9375 9.828125 15.625 
Q 13.8125 20.3125 21.34375 26.46875 
Q 33.015625 36.03125 37.109375 41.625 
Q 41.21875 47.21875 41.21875 52.203125 
Q 41.21875 57.421875 37.46875 61 
Q 33.734375 64.59375 27.734375 64.59375 
Q 21.390625 64.59375 17.578125 60.78125 
Q 13.765625 56.984375 13.71875 50.25 
L 4.6875 51.171875 
Q 5.609375 61.28125 11.65625 66.578125 
Q 17.71875 71.875 27.9375 71.875 
Q 38.234375 71.875 44.234375 66.15625 
Q 50.25 60.453125 50.25 52 
Q 50.25 47.703125 48.484375 43.546875 
Q 46.734375 39.40625 42.65625 34.8125 
Q 38.578125 30.21875 29.109375 22.21875 
Q 21.1875 15.578125 18.9375 13.203125 
Q 16.703125 10.84375 15.234375 8.453125 
z
" id="ArialMT-50"/>
       </defs>
       <use xlink:href="#ArialMT-50"/>
       <use x="55.615234" xlink:href="#ArialMT-46"/>
       <use x="83.398438" xlink:href="#ArialMT-48"/>
      </g>
     </g>
    </g>
    <g id="xtick_5">
     <g id="line2d_5">
      <path clip-path="url(#pb7ddf53696)" d="M 227.816715 224.64 
L 227.816715 7.2 
" style="fill:none;stroke:#ffffff;stroke-linecap:round;"/>
     </g>
     <g id="text_5">
      <!-- 2.5 -->
      <g style="fill:#262626;" transform="translate(220.171715 242.013594)scale(0.11 -0.11)">
       <use xlink:href="#ArialMT-50"/>
       <use x="55.615234" xlink:href="#ArialMT-46"/>
       <use x="83.398438" xlink:href="#ArialMT-53"/>
      </g>
     </g>
    </g>
    <g id="xtick_6">
     <g id="line2d_6">
      <path clip-path="url(#pb7ddf53696)" d="M 281.03343 224.64 
L 281.03343 7.2 
" style="fill:none;stroke:#ffffff;stroke-linecap:round;"/>
     </g>
     <g id="text_6">
      <!-- 3.0 -->
      <g style="fill:#262626;" transform="translate(273.38843 242.013594)scale(0.11 -0.11)">
       <defs>
        <path d="M 4.203125 18.890625 
L 12.984375 20.0625 
Q 14.5 12.59375 18.140625 9.296875 
Q 21.78125 6 27 6 
Q 33.203125 6 37.46875 10.296875 
Q 41.75 14.59375 41.75 20.953125 
Q 41.75 27 37.796875 30.921875 
Q 33.84375 34.859375 27.734375 34.859375 
Q 25.25 34.859375 21.53125 33.890625 
L 22.515625 41.609375 
Q 23.390625 41.5 23.921875 41.5 
Q 29.546875 41.5 34.03125 44.421875 
Q 38.53125 47.359375 38.53125 53.46875 
Q 38.53125 58.296875 35.25 61.46875 
Q 31.984375 64.65625 26.8125 64.65625 
Q 21.6875 64.65625 18.265625 61.421875 
Q 14.84375 58.203125 13.875 51.765625 
L 5.078125 53.328125 
Q 6.6875 62.15625 12.390625 67.015625 
Q 18.109375 71.875 26.609375 71.875 
Q 32.46875 71.875 37.390625 69.359375 
Q 42.328125 66.84375 44.9375 62.5 
Q 47.5625 58.15625 47.5625 53.265625 
Q 47.5625 48.640625 45.0625 44.828125 
Q 42.578125 41.015625 37.703125 38.765625 
Q 44.046875 37.3125 47.5625 32.6875 
Q 51.078125 28.078125 51.078125 21.140625 
Q 51.078125 11.765625 44.234375 5.25 
Q 37.40625 -1.265625 26.953125 -1.265625 
Q 17.53125 -1.265625 11.296875 4.34375 
Q 5.078125 9.96875 4.203125 18.890625 
z
" id="ArialMT-51"/>
       </defs>
       <use xlink:href="#ArialMT-51"/>
       <use x="55.615234" xlink:href="#ArialMT-46"/>
       <use x="83.398438" xlink:href="#ArialMT-48"/>
      </g>
     </g>
    </g>
    <g id="xtick_7">
     <g id="line2d_7">
      <path clip-path="url(#pb7ddf53696)" d="M 334.250145 224.64 
L 334.250145 7.2 
" style="fill:none;stroke:#ffffff;stroke-linecap:round;"/>
     </g>
     <g id="text_7">
      <!-- 3.5 -->
      <g style="fill:#262626;" transform="translate(326.605145 242.013594)scale(0.11 -0.11)">
       <use xlink:href="#ArialMT-51"/>
       <use x="55.615234" xlink:href="#ArialMT-46"/>
       <use x="83.398438" xlink:href="#ArialMT-53"/>
      </g>
     </g>
    </g>
    <g id="text_8">
     <!-- Pclass -->
     <g style="fill:#262626;" transform="translate(156.928125 256.789219)scale(0.12 -0.12)">
      <defs>
       <path d="M 7.71875 0 
L 7.71875 71.578125 
L 34.71875 71.578125 
Q 41.84375 71.578125 45.609375 70.90625 
Q 50.875 70.015625 54.4375 67.546875 
Q 58.015625 65.09375 60.1875 60.640625 
Q 62.359375 56.203125 62.359375 50.875 
Q 62.359375 41.75 56.546875 35.421875 
Q 50.734375 29.109375 35.546875 29.109375 
L 17.1875 29.109375 
L 17.1875 0 
z
M 17.1875 37.546875 
L 35.6875 37.546875 
Q 44.875 37.546875 48.734375 40.96875 
Q 52.59375 44.390625 52.59375 50.59375 
Q 52.59375 55.078125 50.3125 58.265625 
Q 48.046875 61.46875 44.34375 62.5 
Q 41.9375 63.140625 35.5 63.140625 
L 17.1875 63.140625 
z
" id="ArialMT-80"/>
       <path d="M 40.4375 19 
L 49.078125 17.875 
Q 47.65625 8.9375 41.8125 3.875 
Q 35.984375 -1.171875 27.484375 -1.171875 
Q 16.84375 -1.171875 10.375 5.78125 
Q 3.90625 12.75 3.90625 25.734375 
Q 3.90625 34.125 6.6875 40.421875 
Q 9.46875 46.734375 15.15625 49.875 
Q 20.84375 53.03125 27.546875 53.03125 
Q 35.984375 53.03125 41.359375 48.75 
Q 46.734375 44.484375 48.25 36.625 
L 39.703125 35.296875 
Q 38.484375 40.53125 35.375 43.15625 
Q 32.28125 45.796875 27.875 45.796875 
Q 21.234375 45.796875 17.078125 41.03125 
Q 12.9375 36.28125 12.9375 25.984375 
Q 12.9375 15.53125 16.9375 10.796875 
Q 20.953125 6.0625 27.390625 6.0625 
Q 32.5625 6.0625 36.03125 9.234375 
Q 39.5 12.40625 40.4375 19 
z
" id="ArialMT-99"/>
       <path d="M 6.390625 0 
L 6.390625 71.578125 
L 15.1875 71.578125 
L 15.1875 0 
z
" id="ArialMT-108"/>
       <path d="M 40.4375 6.390625 
Q 35.546875 2.25 31.03125 0.53125 
Q 26.515625 -1.171875 21.34375 -1.171875 
Q 12.796875 -1.171875 8.203125 3 
Q 3.609375 7.171875 3.609375 13.671875 
Q 3.609375 17.484375 5.34375 20.625 
Q 7.078125 23.78125 9.890625 25.6875 
Q 12.703125 27.59375 16.21875 28.5625 
Q 18.796875 29.25 24.03125 29.890625 
Q 34.671875 31.15625 39.703125 32.90625 
Q 39.75 34.71875 39.75 35.203125 
Q 39.75 40.578125 37.25 42.78125 
Q 33.890625 45.75 27.25 45.75 
Q 21.046875 45.75 18.09375 43.578125 
Q 15.140625 41.40625 13.71875 35.890625 
L 5.125 37.0625 
Q 6.296875 42.578125 8.984375 45.96875 
Q 11.671875 49.359375 16.75 51.1875 
Q 21.828125 53.03125 28.515625 53.03125 
Q 35.15625 53.03125 39.296875 51.46875 
Q 43.453125 49.90625 45.40625 47.53125 
Q 47.359375 45.171875 48.140625 41.546875 
Q 48.578125 39.3125 48.578125 33.453125 
L 48.578125 21.734375 
Q 48.578125 9.46875 49.140625 6.21875 
Q 49.703125 2.984375 51.375 0 
L 42.1875 0 
Q 40.828125 2.734375 40.4375 6.390625 
z
M 39.703125 26.03125 
Q 34.90625 24.078125 25.34375 22.703125 
Q 19.921875 21.921875 17.671875 20.9375 
Q 15.4375 19.96875 14.203125 18.09375 
Q 12.984375 16.21875 12.984375 13.921875 
Q 12.984375 10.40625 15.640625 8.0625 
Q 18.3125 5.71875 23.4375 5.71875 
Q 28.515625 5.71875 32.46875 7.9375 
Q 36.421875 10.15625 38.28125 14.015625 
Q 39.703125 17 39.703125 22.796875 
z
" id="ArialMT-97"/>
       <path d="M 3.078125 15.484375 
L 11.765625 16.84375 
Q 12.5 11.625 15.84375 8.84375 
Q 19.1875 6.0625 25.203125 6.0625 
Q 31.25 6.0625 34.171875 8.515625 
Q 37.109375 10.984375 37.109375 14.3125 
Q 37.109375 17.28125 34.515625 19 
Q 32.71875 20.171875 25.53125 21.96875 
Q 15.875 24.421875 12.140625 26.203125 
Q 8.40625 27.984375 6.46875 31.125 
Q 4.546875 34.28125 4.546875 38.09375 
Q 4.546875 41.546875 6.125 44.5 
Q 7.71875 47.46875 10.453125 49.421875 
Q 12.5 50.921875 16.03125 51.96875 
Q 19.578125 53.03125 23.640625 53.03125 
Q 29.734375 53.03125 34.34375 51.265625 
Q 38.96875 49.515625 41.15625 46.5 
Q 43.359375 43.5 44.1875 38.484375 
L 35.59375 37.3125 
Q 35.015625 41.3125 32.203125 43.546875 
Q 29.390625 45.796875 24.265625 45.796875 
Q 18.21875 45.796875 15.625 43.796875 
Q 13.03125 41.796875 13.03125 39.109375 
Q 13.03125 37.40625 14.109375 36.03125 
Q 15.1875 34.625 17.484375 33.6875 
Q 18.796875 33.203125 25.25 31.453125 
Q 34.578125 28.953125 38.25 27.359375 
Q 41.9375 25.78125 44.03125 22.75 
Q 46.140625 19.734375 46.140625 15.234375 
Q 46.140625 10.84375 43.578125 6.953125 
Q 41.015625 3.078125 36.171875 0.953125 
Q 31.34375 -1.171875 25.25 -1.171875 
Q 15.140625 -1.171875 9.84375 3.03125 
Q 4.546875 7.234375 3.078125 15.484375 
z
" id="ArialMT-115"/>
      </defs>
      <use xlink:href="#ArialMT-80"/>
      <use x="66.699219" xlink:href="#ArialMT-99"/>
      <use x="116.699219" xlink:href="#ArialMT-108"/>
      <use x="138.916016" xlink:href="#ArialMT-97"/>
      <use x="194.53125" xlink:href="#ArialMT-115"/>
      <use x="244.53125" xlink:href="#ArialMT-115"/>
     </g>
    </g>
   </g>
   <g id="matplotlib.axis_2">
    <g id="ytick_1"/>
   </g>
   <g id="PolyCollection_1">
    <defs>
     <path d="M 22.418182 -145.275346 
L 22.418182 -155.633091 
L 25.492562 -157.169347 
L 28.566942 -159.00544 
L 31.641322 -161.148625 
L 34.715702 -163.589517 
L 37.790083 -166.298698 
L 40.864463 -169.224497 
L 43.938843 -172.292487 
L 47.013223 -175.407086 
L 50.087603 -178.455472 
L 53.161983 -181.313747 
L 56.236364 -183.85495 
L 59.310744 -185.95825 
L 62.385124 -187.518414 
L 65.459504 -188.454528 
L 68.533884 -188.716964 
L 71.608264 -188.291774 
L 74.682645 -187.201966 
L 77.757025 -185.505532 
L 80.831405 -183.290466 
L 83.905785 -180.667405 
L 86.980165 -177.760797 
L 90.054545 -174.699603 
L 93.128926 -171.608582 
L 96.203306 -168.601005 
L 99.277686 -165.773406 
L 102.352066 -163.202692 
L 105.426446 -160.945562 
L 108.500826 -159.039935 
L 111.575207 -157.507882 
L 114.649587 -156.359405 
L 117.723967 -155.596404 
L 120.798347 -155.216213 
L 123.872727 -155.214205 
L 126.947107 -155.585135 
L 130.021488 -156.323087 
L 133.095868 -157.420057 
L 136.170248 -158.863447 
L 139.244628 -160.632846 
L 142.319008 -162.696662 
L 145.393388 -165.009178 
L 148.467769 -167.508645 
L 151.542149 -170.116922 
L 154.616529 -172.741025 
L 157.690909 -175.276709 
L 160.765289 -177.613948 
L 163.839669 -179.643882 
L 166.91405 -181.266585 
L 169.98843 -182.398805 
L 173.06281 -182.980794 
L 176.13719 -182.981408 
L 179.21157 -182.40086 
L 182.28595 -181.270767 
L 185.360331 -179.651528 
L 188.434711 -177.627363 
L 191.509091 -175.299675 
L 194.583471 -172.779567 
L 197.657851 -170.180412 
L 200.732231 -167.611344 
L 203.806612 -165.17232 
L 206.880992 -162.951177 
L 209.955372 -161.022801 
L 213.029752 -159.450221 
L 216.104132 -158.287182 
L 219.178512 -157.581569 
L 222.252893 -157.378906 
L 225.327273 -157.725176 
L 228.401653 -158.668218 
L 231.476033 -160.257152 
L 234.550413 -162.539492 
L 237.624793 -165.555888 
L 240.699174 -169.332811 
L 243.773554 -173.873817 
L 246.847934 -179.150384 
L 249.922314 -185.093555 
L 252.996694 -191.58777 
L 256.071074 -198.468209 
L 259.145455 -205.522738 
L 262.219835 -212.499082 
L 265.294215 -219.117258 
L 268.368595 -225.086561 
L 271.442975 -230.125728 
L 274.517355 -233.984309 
L 277.591736 -236.462943 
L 280.666116 -237.430219 
L 283.740496 -236.834078 
L 286.814876 -234.706379 
L 289.889256 -231.160015 
L 292.963636 -226.378966 
L 296.038017 -220.602467 
L 299.112397 -214.1052 
L 302.186777 -207.175775 
L 305.261157 -200.095835 
L 308.335537 -193.121841 
L 311.409917 -186.471066 
L 314.484298 -180.312698 
L 317.558678 -174.764188 
L 320.633058 -169.892411 
L 323.707438 -165.7187 
L 326.781818 -162.226564 
L 326.781818 -138.681874 
L 326.781818 -138.681874 
L 323.707438 -135.189737 
L 320.633058 -131.016027 
L 317.558678 -126.144249 
L 314.484298 -120.595739 
L 311.409917 -114.437371 
L 308.335537 -107.786597 
L 305.261157 -100.812602 
L 302.186777 -93.732663 
L 299.112397 -86.803238 
L 296.038017 -80.30597 
L 292.963636 -74.529471 
L 289.889256 -69.748423 
L 286.814876 -66.202059 
L 283.740496 -64.074359 
L 280.666116 -63.478219 
L 277.591736 -64.445494 
L 274.517355 -66.924129 
L 271.442975 -70.78271 
L 268.368595 -75.821877 
L 265.294215 -81.79118 
L 262.219835 -88.409356 
L 259.145455 -95.3857 
L 256.071074 -102.440229 
L 252.996694 -109.320668 
L 249.922314 -115.814882 
L 246.847934 -121.758053 
L 243.773554 -127.03462 
L 240.699174 -131.575627 
L 237.624793 -135.35255 
L 234.550413 -138.368946 
L 231.476033 -140.651286 
L 228.401653 -142.24022 
L 225.327273 -143.183261 
L 222.252893 -143.529531 
L 219.178512 -143.326869 
L 216.104132 -142.621255 
L 213.029752 -141.458217 
L 209.955372 -139.885637 
L 206.880992 -137.957261 
L 203.806612 -135.736118 
L 200.732231 -133.297094 
L 197.657851 -130.728026 
L 194.583471 -128.128871 
L 191.509091 -125.608762 
L 188.434711 -123.281075 
L 185.360331 -121.25691 
L 182.28595 -119.63767 
L 179.21157 -118.507577 
L 176.13719 -117.927029 
L 173.06281 -117.927644 
L 169.98843 -118.509632 
L 166.91405 -119.641852 
L 163.839669 -121.264556 
L 160.765289 -123.29449 
L 157.690909 -125.631728 
L 154.616529 -128.167412 
L 151.542149 -130.791515 
L 148.467769 -133.399793 
L 145.393388 -135.899259 
L 142.319008 -138.211776 
L 139.244628 -140.275592 
L 136.170248 -142.044991 
L 133.095868 -143.48838 
L 130.021488 -144.585351 
L 126.947107 -145.323302 
L 123.872727 -145.694233 
L 120.798347 -145.692224 
L 117.723967 -145.312033 
L 114.649587 -144.549033 
L 111.575207 -143.400556 
L 108.500826 -141.868503 
L 105.426446 -139.962875 
L 102.352066 -137.705745 
L 99.277686 -135.135032 
L 96.203306 -132.307433 
L 93.128926 -129.299855 
L 90.054545 -126.208835 
L 86.980165 -123.147641 
L 83.905785 -120.241032 
L 80.831405 -117.617972 
L 77.757025 -115.402905 
L 74.682645 -113.706471 
L 71.608264 -112.616664 
L 68.533884 -112.191473 
L 65.459504 -112.45391 
L 62.385124 -113.390024 
L 59.310744 -114.950188 
L 56.236364 -117.053487 
L 53.161983 -119.59469 
L 50.087603 -122.452966 
L 47.013223 -125.501352 
L 43.938843 -128.61595 
L 40.864463 -131.68394 
L 37.790083 -134.60974 
L 34.715702 -137.31892 
L 31.641322 -139.759813 
L 28.566942 -141.902998 
L 25.492562 -143.73909 
L 22.418182 -145.275346 
z
" id="m1fd9d4d3af" style="stroke:#4c4c4c;stroke-width:1.5;"/>
    </defs>
    <g clip-path="url(#pb7ddf53696)">
     <use style="fill:#5875a4;stroke:#4c4c4c;stroke-width:1.5;" x="0" xlink:href="#m1fd9d4d3af" y="266.374219"/>
    </g>
   </g>
   <g id="line2d_8">
    <path clip-path="url(#pb7ddf53696)" d="M 68.16657 115.92 
L 281.03343 115.92 
" style="fill:none;stroke:#4c4c4c;stroke-linecap:round;stroke-width:1.5;"/>
   </g>
   <g id="line2d_9">
    <path clip-path="url(#pb7ddf53696)" d="M 174.6 115.92 
L 281.03343 115.92 
" style="fill:none;stroke:#4c4c4c;stroke-linecap:round;stroke-width:4.5;"/>
   </g>
   <g id="patch_3">
    <path d="M 7.2 224.64 
L 7.2 7.2 
" style="fill:none;stroke:#ffffff;stroke-linecap:square;stroke-linejoin:miter;stroke-width:1.25;"/>
   </g>
   <g id="patch_4">
    <path d="M 342 224.64 
L 342 7.2 
" style="fill:none;stroke:#ffffff;stroke-linecap:square;stroke-linejoin:miter;stroke-width:1.25;"/>
   </g>
   <g id="patch_5">
    <path d="M 7.2 224.64 
L 342 224.64 
" style="fill:none;stroke:#ffffff;stroke-linecap:square;stroke-linejoin:miter;stroke-width:1.25;"/>
   </g>
   <g id="patch_6">
    <path d="M 7.2 7.2 
L 342 7.2 
" style="fill:none;stroke:#ffffff;stroke-linecap:square;stroke-linejoin:miter;stroke-width:1.25;"/>
   </g>
   <g id="PathCollection_1">
    <defs>
     <path d="M 0 1.5 
C 0.397805 1.5 0.77937 1.341951 1.06066 1.06066 
C 1.341951 0.77937 1.5 0.397805 1.5 0 
C 1.5 -0.397805 1.341951 -0.77937 1.06066 -1.06066 
C 0.77937 -1.341951 0.397805 -1.5 0 -1.5 
C -0.397805 -1.5 -0.77937 -1.341951 -1.06066 -1.06066 
C -1.341951 -0.77937 -1.5 -0.397805 -1.5 0 
C -1.5 0.397805 -1.341951 0.77937 -1.06066 1.06066 
C -0.77937 1.341951 -0.397805 1.5 0 1.5 
z
" id="m15acc83c7d" style="stroke:#4c4c4c;"/>
    </defs>
    <g clip-path="url(#pb7ddf53696)">
     <use style="fill:#ffffff;stroke:#4c4c4c;" x="281.03343" xlink:href="#m15acc83c7d" y="115.92"/>
    </g>
   </g>
  </g>
 </g>
 <defs>
  <clipPath id="pb7ddf53696">
   <rect height="217.44" width="334.8" x="7.2" y="7.2"/>
  </clipPath>
 </defs>
</svg>
