<?xml version="1.0" encoding="utf-8" standalone="no"?>
<!DOCTYPE svg PUBLIC "-//W3C//DTD SVG 1.1//EN"
  "http://www.w3.org/Graphics/SVG/1.1/DTD/svg11.dtd">
<!-- Created with matplotlib (https://matplotlib.org/) -->
<svg height="266.514844pt" version="1.1" viewBox="0 0 349.2 266.514844" width="349.2pt" xmlns="http://www.w3.org/2000/svg" xmlns:xlink="http://www.w3.org/1999/xlink">
 <metadata>
  <rdf:RDF xmlns:cc="http://creativecommons.org/ns#" xmlns:dc="http://purl.org/dc/elements/1.1/" xmlns:rdf="http://www.w3.org/1999/02/22-rdf-syntax-ns#">
   <cc:Work>
    <dc:type rdf:resource="http://purl.org/dc/dcmitype/StillImage"/>
    <dc:date>2021-05-13T15:46:06.482179</dc:date>
    <dc:format>image/svg+xml</dc:format>
    <dc:creator>
     <cc:Agent>
      <dc:title>Matplotlib v3.3.2, https://matplotlib.org/</dc:title>
     </cc:Agent>
    </dc:creator>
   </cc:Work>
  </rdf:RDF>
 </metadata>
 <defs>
  <style type="text/css">*{stroke-linecap:butt;stroke-linejoin:round;}</style>
 </defs>
 <g id="figure_1">
  <g id="patch_1">
   <path d="M 0 266.514844 
L 349.2 266.514844 
L 349.2 0 
L 0 0 
z
" style="fill:#ffffff;"/>
  </g>
  <g id="axes_1">
   <g id="patch_2">
    <path d="M 7.2 224.64 
L 342 224.64 
L 342 7.2 
L 7.2 7.2 
z
" style="fill:#eaeaf2;"/>
   </g>
   <g id="matplotlib.axis_1">
    <g id="xtick_1">
     <g id="line2d_1">
      <path clip-path="url(#p9b4d34b316)" d="M 46.035028 224.64 
L 46.035028 7.2 
" style="fill:none;stroke:#ffffff;stroke-linecap:round;"/>
     </g>
     <g id="text_1">
      <!-- 0 -->
      <g style="fill:#262626;" transform="translate(42.976512 242.013594)scale(0.11 -0.11)">
       <defs>
        <path d="M 4.15625 35.296875 
Q 4.15625 48 6.765625 55.734375 
Q 9.375 63.484375 14.515625 67.671875 
Q 19.671875 71.875 27.484375 71.875 
Q 33.25 71.875 37.59375 69.546875 
Q 41.9375 67.234375 44.765625 62.859375 
Q 47.609375 58.5 49.21875 52.21875 
Q 50.828125 45.953125 50.828125 35.296875 
Q 50.828125 22.703125 48.234375 14.96875 
Q 45.65625 7.234375 40.5 3 
Q 35.359375 -1.21875 27.484375 -1.21875 
Q 17.140625 -1.21875 11.234375 6.203125 
Q 4.15625 15.140625 4.15625 35.296875 
z
M 13.1875 35.296875 
Q 13.1875 17.671875 17.3125 11.828125 
Q 21.4375 6 27.484375 6 
Q 33.546875 6 37.671875 11.859375 
Q 41.796875 17.71875 41.796875 35.296875 
Q 41.796875 52.984375 37.671875 58.78125 
Q 33.546875 64.59375 27.390625 64.59375 
Q 21.34375 64.59375 17.71875 59.46875 
Q 13.1875 52.9375 13.1875 35.296875 
z
" id="ArialMT-48"/>
       </defs>
       <use xlink:href="#ArialMT-48"/>
      </g>
     </g>
    </g>
    <g id="xtick_2">
     <g id="line2d_2">
      <path clip-path="url(#p9b4d34b316)" d="M 109.981793 224.64 
L 109.981793 7.2 
" style="fill:none;stroke:#ffffff;stroke-linecap:round;"/>
     </g>
     <g id="text_2">
      <!-- 20 -->
      <g style="fill:#262626;" transform="translate(103.864762 242.013594)scale(0.11 -0.11)">
       <defs>
        <path d="M 50.34375 8.453125 
L 50.34375 0 
L 3.03125 0 
Q 2.9375 3.171875 4.046875 6.109375 
Q 5.859375 10.9375 9.828125 15.625 
Q 13.8125 20.3125 21.34375 26.46875 
Q 33.015625 36.03125 37.109375 41.625 
Q 41.21875 47.21875 41.21875 52.203125 
Q 41.21875 57.421875 37.46875 61 
Q 33.734375 64.59375 27.734375 64.59375 
Q 21.390625 64.59375 17.578125 60.78125 
Q 13.765625 56.984375 13.71875 50.25 
L 4.6875 51.171875 
Q 5.609375 61.28125 11.65625 66.578125 
Q 17.71875 71.875 27.9375 71.875 
Q 38.234375 71.875 44.234375 66.15625 
Q 50.25 60.453125 50.25 52 
Q 50.25 47.703125 48.484375 43.546875 
Q 46.734375 39.40625 42.65625 34.8125 
Q 38.578125 30.21875 29.109375 22.21875 
Q 21.1875 15.578125 18.9375 13.203125 
Q 16.703125 10.84375 15.234375 8.453125 
z
" id="ArialMT-50"/>
       </defs>
       <use xlink:href="#ArialMT-50"/>
       <use x="55.615234" xlink:href="#ArialMT-48"/>
      </g>
     </g>
    </g>
    <g id="xtick_3">
     <g id="line2d_3">
      <path clip-path="url(#p9b4d34b316)" d="M 173.928559 224.64 
L 173.928559 7.2 
" style="fill:none;stroke:#ffffff;stroke-linecap:round;"/>
     </g>
     <g id="text_3">
      <!-- 40 -->
      <g style="fill:#262626;" transform="translate(167.811528 242.013594)scale(0.11 -0.11)">
       <defs>
        <path d="M 32.328125 0 
L 32.328125 17.140625 
L 1.265625 17.140625 
L 1.265625 25.203125 
L 33.9375 71.578125 
L 41.109375 71.578125 
L 41.109375 25.203125 
L 50.78125 25.203125 
L 50.78125 17.140625 
L 41.109375 17.140625 
L 41.109375 0 
z
M 32.328125 25.203125 
L 32.328125 57.46875 
L 9.90625 25.203125 
z
" id="ArialMT-52"/>
       </defs>
       <use xlink:href="#ArialMT-52"/>
       <use x="55.615234" xlink:href="#ArialMT-48"/>
      </g>
     </g>
    </g>
    <g id="xtick_4">
     <g id="line2d_4">
      <path clip-path="url(#p9b4d34b316)" d="M 237.875325 224.64 
L 237.875325 7.2 
" style="fill:none;stroke:#ffffff;stroke-linecap:round;"/>
     </g>
     <g id="text_4">
      <!-- 60 -->
      <g style="fill:#262626;" transform="translate(231.758293 242.013594)scale(0.11 -0.11)">
       <defs>
        <path d="M 49.75 54.046875 
L 41.015625 53.375 
Q 39.84375 58.546875 37.703125 60.890625 
Q 34.125 64.65625 28.90625 64.65625 
Q 24.703125 64.65625 21.53125 62.3125 
Q 17.390625 59.28125 14.984375 53.46875 
Q 12.59375 47.65625 12.5 36.921875 
Q 15.671875 41.75 20.265625 44.09375 
Q 24.859375 46.4375 29.890625 46.4375 
Q 38.671875 46.4375 44.84375 39.96875 
Q 51.03125 33.5 51.03125 23.25 
Q 51.03125 16.5 48.125 10.71875 
Q 45.21875 4.9375 40.140625 1.859375 
Q 35.0625 -1.21875 28.609375 -1.21875 
Q 17.625 -1.21875 10.6875 6.859375 
Q 3.765625 14.9375 3.765625 33.5 
Q 3.765625 54.25 11.421875 63.671875 
Q 18.109375 71.875 29.4375 71.875 
Q 37.890625 71.875 43.28125 67.140625 
Q 48.6875 62.40625 49.75 54.046875 
z
M 13.875 23.1875 
Q 13.875 18.65625 15.796875 14.5 
Q 17.71875 10.359375 21.1875 8.171875 
Q 24.65625 6 28.46875 6 
Q 34.03125 6 38.03125 10.484375 
Q 42.046875 14.984375 42.046875 22.703125 
Q 42.046875 30.125 38.078125 34.390625 
Q 34.125 38.671875 28.125 38.671875 
Q 22.171875 38.671875 18.015625 34.390625 
Q 13.875 30.125 13.875 23.1875 
z
" id="ArialMT-54"/>
       </defs>
       <use xlink:href="#ArialMT-54"/>
       <use x="55.615234" xlink:href="#ArialMT-48"/>
      </g>
     </g>
    </g>
    <g id="xtick_5">
     <g id="line2d_5">
      <path clip-path="url(#p9b4d34b316)" d="M 301.82209 224.64 
L 301.82209 7.2 
" style="fill:none;stroke:#ffffff;stroke-linecap:round;"/>
     </g>
     <g id="text_5">
      <!-- 80 -->
      <g style="fill:#262626;" transform="translate(295.705059 242.013594)scale(0.11 -0.11)">
       <defs>
        <path d="M 17.671875 38.8125 
Q 12.203125 40.828125 9.5625 44.53125 
Q 6.9375 48.25 6.9375 53.421875 
Q 6.9375 61.234375 12.546875 66.546875 
Q 18.171875 71.875 27.484375 71.875 
Q 36.859375 71.875 42.578125 66.421875 
Q 48.296875 60.984375 48.296875 53.171875 
Q 48.296875 48.1875 45.671875 44.5 
Q 43.0625 40.828125 37.75 38.8125 
Q 44.34375 36.671875 47.78125 31.875 
Q 51.21875 27.09375 51.21875 20.453125 
Q 51.21875 11.28125 44.71875 5.03125 
Q 38.234375 -1.21875 27.640625 -1.21875 
Q 17.046875 -1.21875 10.546875 5.046875 
Q 4.046875 11.328125 4.046875 20.703125 
Q 4.046875 27.6875 7.59375 32.390625 
Q 11.140625 37.109375 17.671875 38.8125 
z
M 15.921875 53.71875 
Q 15.921875 48.640625 19.1875 45.40625 
Q 22.46875 42.1875 27.6875 42.1875 
Q 32.765625 42.1875 36.015625 45.375 
Q 39.265625 48.578125 39.265625 53.21875 
Q 39.265625 58.0625 35.90625 61.359375 
Q 32.5625 64.65625 27.59375 64.65625 
Q 22.5625 64.65625 19.234375 61.421875 
Q 15.921875 58.203125 15.921875 53.71875 
z
M 13.09375 20.65625 
Q 13.09375 16.890625 14.875 13.375 
Q 16.65625 9.859375 20.171875 7.921875 
Q 23.6875 6 27.734375 6 
Q 34.03125 6 38.125 10.046875 
Q 42.234375 14.109375 42.234375 20.359375 
Q 42.234375 26.703125 38.015625 30.859375 
Q 33.796875 35.015625 27.4375 35.015625 
Q 21.234375 35.015625 17.15625 30.90625 
Q 13.09375 26.8125 13.09375 20.65625 
z
" id="ArialMT-56"/>
       </defs>
       <use xlink:href="#ArialMT-56"/>
       <use x="55.615234" xlink:href="#ArialMT-48"/>
      </g>
     </g>
    </g>
    <g id="text_6">
     <!-- Age -->
     <g style="fill:#262626;" transform="translate(163.924688 256.789219)scale(0.12 -0.12)">
      <defs>
       <path d="M -0.140625 0 
L 27.34375 71.578125 
L 37.546875 71.578125 
L 66.84375 0 
L 56.0625 0 
L 47.703125 21.6875 
L 17.78125 21.6875 
L 9.90625 0 
z
M 20.515625 29.390625 
L 44.78125 29.390625 
L 37.3125 49.21875 
Q 33.890625 58.25 32.234375 64.0625 
Q 30.859375 57.171875 28.375 50.390625 
z
" id="ArialMT-65"/>
       <path d="M 4.984375 -4.296875 
L 13.53125 -5.5625 
Q 14.0625 -9.515625 16.5 -11.328125 
Q 19.78125 -13.765625 25.4375 -13.765625 
Q 31.546875 -13.765625 34.859375 -11.328125 
Q 38.1875 -8.890625 39.359375 -4.5 
Q 40.046875 -1.8125 39.984375 6.78125 
Q 34.234375 0 25.640625 0 
Q 14.9375 0 9.078125 7.71875 
Q 3.21875 15.4375 3.21875 26.21875 
Q 3.21875 33.640625 5.90625 39.90625 
Q 8.59375 46.1875 13.6875 49.609375 
Q 18.796875 53.03125 25.6875 53.03125 
Q 34.859375 53.03125 40.828125 45.609375 
L 40.828125 51.859375 
L 48.921875 51.859375 
L 48.921875 7.03125 
Q 48.921875 -5.078125 46.453125 -10.125 
Q 44 -15.1875 38.640625 -18.109375 
Q 33.296875 -21.046875 25.484375 -21.046875 
Q 16.21875 -21.046875 10.5 -16.875 
Q 4.78125 -12.703125 4.984375 -4.296875 
z
M 12.25 26.859375 
Q 12.25 16.65625 16.296875 11.96875 
Q 20.359375 7.28125 26.46875 7.28125 
Q 32.515625 7.28125 36.609375 11.9375 
Q 40.71875 16.609375 40.71875 26.5625 
Q 40.71875 36.078125 36.5 40.90625 
Q 32.28125 45.75 26.3125 45.75 
Q 20.453125 45.75 16.34375 40.984375 
Q 12.25 36.234375 12.25 26.859375 
z
" id="ArialMT-103"/>
       <path d="M 42.09375 16.703125 
L 51.171875 15.578125 
Q 49.03125 7.625 43.21875 3.21875 
Q 37.40625 -1.171875 28.375 -1.171875 
Q 17 -1.171875 10.328125 5.828125 
Q 3.65625 12.84375 3.65625 25.484375 
Q 3.65625 38.578125 10.390625 45.796875 
Q 17.140625 53.03125 27.875 53.03125 
Q 38.28125 53.03125 44.875 45.953125 
Q 51.46875 38.875 51.46875 26.03125 
Q 51.46875 25.25 51.421875 23.6875 
L 12.75 23.6875 
Q 13.234375 15.140625 17.578125 10.59375 
Q 21.921875 6.0625 28.421875 6.0625 
Q 33.25 6.0625 36.671875 8.59375 
Q 40.09375 11.140625 42.09375 16.703125 
z
M 13.234375 30.90625 
L 42.1875 30.90625 
Q 41.609375 37.453125 38.875 40.71875 
Q 34.671875 45.796875 27.984375 45.796875 
Q 21.921875 45.796875 17.796875 41.75 
Q 13.671875 37.703125 13.234375 30.90625 
z
" id="ArialMT-101"/>
      </defs>
      <use xlink:href="#ArialMT-65"/>
      <use x="66.699219" xlink:href="#ArialMT-103"/>
      <use x="122.314453" xlink:href="#ArialMT-101"/>
     </g>
    </g>
   </g>
   <g id="matplotlib.axis_2">
    <g id="ytick_1"/>
   </g>
   <g id="PolyCollection_1">
    <defs>
     <path d="M 22.418182 -149.617044 
L 22.418182 -151.572643 
L 25.492562 -152.264985 
L 28.566942 -153.29389 
L 31.641322 -154.724829 
L 34.715702 -156.58395 
L 37.790083 -158.8349 
L 40.864463 -161.365537 
L 43.938843 -163.992806 
L 47.013223 -166.489191 
L 50.087603 -168.626413 
L 53.161983 -170.224703 
L 56.236364 -171.192955 
L 59.310744 -171.548213 
L 62.385124 -171.411084 
L 65.459504 -170.982741 
L 68.533884 -170.514436 
L 71.608264 -170.27953 
L 74.682645 -170.552021 
L 77.757025 -171.588597 
L 80.831405 -173.607766 
L 83.905785 -176.761977 
L 86.980165 -181.105275 
L 90.054545 -186.566067 
L 93.128926 -192.937369 
L 96.203306 -199.89339 
L 99.277686 -207.032728 
L 102.352066 -213.938715 
L 105.426446 -220.24123 
L 108.500826 -225.66433 
L 111.575207 -230.049783 
L 114.649587 -233.355036 
L 117.723967 -235.631237 
L 120.798347 -236.990441 
L 123.872727 -237.570844 
L 126.947107 -237.506769 
L 130.021488 -236.907755 
L 133.095868 -235.849096 
L 136.170248 -234.373984 
L 139.244628 -232.504722 
L 142.319008 -230.257932 
L 145.393388 -227.657914 
L 148.467769 -224.74393 
L 151.542149 -221.570648 
L 154.616529 -218.204058 
L 157.690909 -214.716263 
L 160.765289 -211.181351 
L 163.839669 -207.672556 
L 166.91405 -204.259663 
L 169.98843 -201.005761 
L 173.06281 -197.963373 
L 176.13719 -195.170665 
L 179.21157 -192.648385 
L 182.28595 -190.397825 
L 185.360331 -188.399903 
L 188.434711 -186.615784 
L 191.509091 -184.989831 
L 194.583471 -183.455639 
L 197.657851 -181.945228 
L 200.732231 -180.400252 
L 203.806612 -178.782836 
L 206.880992 -177.083086 
L 209.955372 -175.320724 
L 213.029752 -173.539877 
L 216.104132 -171.79814 
L 219.178512 -170.152833 
L 222.252893 -168.648136 
L 225.327273 -167.306193 
L 228.401653 -166.123859 
L 231.476033 -165.075144 
L 234.550413 -164.118255 
L 237.624793 -163.205481 
L 240.699174 -162.293923 
L 243.773554 -161.354981 
L 246.847934 -160.380534 
L 249.922314 -159.38416 
L 252.996694 -158.396717 
L 256.071074 -157.457123 
L 259.145455 -156.600876 
L 262.219835 -155.849897 
L 265.294215 -155.20716 
L 268.368595 -154.657913 
L 271.442975 -154.176765 
L 274.517355 -153.73761 
L 277.591736 -153.32236 
L 280.666116 -152.925296 
L 283.740496 -152.551976 
L 286.814876 -152.214012 
L 289.889256 -151.922464 
L 292.963636 -151.682679 
L 296.038017 -151.492282 
L 299.112397 -151.342463 
L 302.186777 -151.221374 
L 305.261157 -151.117931 
L 308.335537 -151.02453 
L 311.409917 -150.937938 
L 314.484298 -150.8585 
L 317.558678 -150.78841 
L 320.633058 -150.729915 
L 323.707438 -150.684123 
L 326.781818 -150.650615 
L 326.781818 -150.539072 
L 326.781818 -150.539072 
L 323.707438 -150.505565 
L 320.633058 -150.459773 
L 317.558678 -150.401278 
L 314.484298 -150.331187 
L 311.409917 -150.251749 
L 308.335537 -150.165157 
L 305.261157 -150.071757 
L 302.186777 -149.968314 
L 299.112397 -149.847224 
L 296.038017 -149.697405 
L 292.963636 -149.507009 
L 289.889256 -149.267223 
L 286.814876 -148.975675 
L 283.740496 -148.637711 
L 280.666116 -148.264391 
L 277.591736 -147.867327 
L 274.517355 -147.452078 
L 271.442975 -147.012923 
L 268.368595 -146.531775 
L 265.294215 -145.982527 
L 262.219835 -145.339791 
L 259.145455 -144.588812 
L 256.071074 -143.732564 
L 252.996694 -142.792971 
L 249.922314 -141.805527 
L 246.847934 -140.809154 
L 243.773554 -139.834707 
L 240.699174 -138.895765 
L 237.624793 -137.984206 
L 234.550413 -137.071432 
L 231.476033 -136.114544 
L 228.401653 -135.065829 
L 225.327273 -133.883494 
L 222.252893 -132.541552 
L 219.178512 -131.036854 
L 216.104132 -129.391547 
L 213.029752 -127.64981 
L 209.955372 -125.868964 
L 206.880992 -124.106601 
L 203.806612 -122.406851 
L 200.732231 -120.789436 
L 197.657851 -119.24446 
L 194.583471 -117.734049 
L 191.509091 -116.199856 
L 188.434711 -114.573903 
L 185.360331 -112.789785 
L 182.28595 -110.791862 
L 179.21157 -108.541302 
L 176.13719 -106.019023 
L 173.06281 -103.226314 
L 169.98843 -100.183927 
L 166.91405 -96.930024 
L 163.839669 -93.517131 
L 160.765289 -90.008336 
L 157.690909 -86.473424 
L 154.616529 -82.98563 
L 151.542149 -79.61904 
L 148.467769 -76.445757 
L 145.393388 -73.531774 
L 142.319008 -70.931756 
L 139.244628 -68.684966 
L 136.170248 -66.815703 
L 133.095868 -65.340592 
L 130.021488 -64.281932 
L 126.947107 -63.682919 
L 123.872727 -63.618844 
L 120.798347 -64.199247 
L 117.723967 -65.558451 
L 114.649587 -67.834652 
L 111.575207 -71.139904 
L 108.500826 -75.525358 
L 105.426446 -80.948457 
L 102.352066 -87.250972 
L 99.277686 -94.156959 
L 96.203306 -101.296298 
L 93.128926 -108.252318 
L 90.054545 -114.62362 
L 86.980165 -120.084413 
L 83.905785 -124.427711 
L 80.831405 -127.581921 
L 77.757025 -129.601091 
L 74.682645 -130.637666 
L 71.608264 -130.910158 
L 68.533884 -130.675252 
L 65.459504 -130.206947 
L 62.385124 -129.778604 
L 59.310744 -129.641474 
L 56.236364 -129.996732 
L 53.161983 -130.964985 
L 50.087603 -132.563274 
L 47.013223 -134.700496 
L 43.938843 -137.196881 
L 40.864463 -139.82415 
L 37.790083 -142.354788 
L 34.715702 -144.605738 
L 31.641322 -146.464858 
L 28.566942 -147.895798 
L 25.492562 -148.924702 
L 22.418182 -149.617044 
z
" id="m26ef34db7b" style="stroke:#4c4c4c;stroke-width:1.5;"/>
    </defs>
    <g clip-path="url(#p9b4d34b316)">
     <use style="fill:#5875a4;stroke:#4c4c4c;stroke-width:1.5;" x="0" xlink:href="#m26ef34db7b" y="266.514844"/>
    </g>
   </g>
   <g id="line2d_6">
    <path clip-path="url(#p9b4d34b316)" d="M 47.37791 115.92 
L 250.664678 115.92 
" style="fill:none;stroke:#4c4c4c;stroke-linecap:round;stroke-width:1.5;"/>
   </g>
   <g id="line2d_7">
    <path clip-path="url(#p9b4d34b316)" d="M 110.381461 115.92 
L 167.533882 115.92 
" style="fill:none;stroke:#4c4c4c;stroke-linecap:round;stroke-width:4.5;"/>
   </g>
   <g id="patch_3">
    <path d="M 7.2 224.64 
L 7.2 7.2 
" style="fill:none;stroke:#ffffff;stroke-linecap:square;stroke-linejoin:miter;stroke-width:1.25;"/>
   </g>
   <g id="patch_4">
    <path d="M 342 224.64 
L 342 7.2 
" style="fill:none;stroke:#ffffff;stroke-linecap:square;stroke-linejoin:miter;stroke-width:1.25;"/>
   </g>
   <g id="patch_5">
    <path d="M 7.2 224.64 
L 342 224.64 
" style="fill:none;stroke:#ffffff;stroke-linecap:square;stroke-linejoin:miter;stroke-width:1.25;"/>
   </g>
   <g id="patch_6">
    <path d="M 7.2 7.2 
L 342 7.2 
" style="fill:none;stroke:#ffffff;stroke-linecap:square;stroke-linejoin:miter;stroke-width:1.25;"/>
   </g>
   <g id="PathCollection_1">
    <defs>
     <path d="M 0 1.5 
C 0.397805 1.5 0.77937 1.341951 1.06066 1.06066 
C 1.341951 0.77937 1.5 0.397805 1.5 0 
C 1.5 -0.397805 1.341951 -0.77937 1.06066 -1.06066 
C 0.77937 -1.341951 0.397805 -1.5 0 -1.5 
C -0.397805 -1.5 -0.77937 -1.341951 -1.06066 -1.06066 
C -1.341951 -0.77937 -1.5 -0.397805 -1.5 0 
C -1.5 0.397805 -1.341951 0.77937 -1.06066 1.06066 
C -0.77937 1.341951 -0.397805 1.5 0 1.5 
z
" id="mef49ce1a4e" style="stroke:#4c4c4c;"/>
    </defs>
    <g clip-path="url(#p9b4d34b316)">
     <use style="fill:#ffffff;stroke:#4c4c4c;" x="135.5605" xlink:href="#mef49ce1a4e" y="115.92"/>
    </g>
   </g>
  </g>
 </g>
 <defs>
  <clipPath id="p9b4d34b316">
   <rect height="217.44" width="334.8" x="7.2" y="7.2"/>
  </clipPath>
 </defs>
</svg>
