<?xml version="1.0" encoding="utf-8" standalone="no"?>
<!DOCTYPE svg PUBLIC "-//W3C//DTD SVG 1.1//EN"
  "http://www.w3.org/Graphics/SVG/1.1/DTD/svg11.dtd">
<!-- Created with matplotlib (https://matplotlib.org/) -->
<svg height="266.374219pt" version="1.1" viewBox="0 0 401.506094 266.374219" width="401.506094pt" xmlns="http://www.w3.org/2000/svg" xmlns:xlink="http://www.w3.org/1999/xlink">
 <metadata>
  <rdf:RDF xmlns:cc="http://creativecommons.org/ns#" xmlns:dc="http://purl.org/dc/elements/1.1/" xmlns:rdf="http://www.w3.org/1999/02/22-rdf-syntax-ns#">
   <cc:Work>
    <dc:type rdf:resource="http://purl.org/dc/dcmitype/StillImage"/>
    <dc:date>2021-05-13T16:59:35.733894</dc:date>
    <dc:format>image/svg+xml</dc:format>
    <dc:creator>
     <cc:Agent>
      <dc:title>Matplotlib v3.3.2, https://matplotlib.org/</dc:title>
     </cc:Agent>
    </dc:creator>
   </cc:Work>
  </rdf:RDF>
 </metadata>
 <defs>
  <style type="text/css">*{stroke-linecap:butt;stroke-linejoin:round;}</style>
 </defs>
 <g id="figure_1">
  <g id="patch_1">
   <path d="M 0 266.374219 
L 401.506094 266.374219 
L 401.506094 0 
L 0 0 
z
" style="fill:#ffffff;"/>
  </g>
  <g id="axes_1">
   <g id="patch_2">
    <path d="M 59.506094 224.64 
L 394.306094 224.64 
L 394.306094 7.2 
L 59.506094 7.2 
z
" style="fill:#eaeaf2;"/>
   </g>
   <g id="matplotlib.axis_1">
    <g id="xtick_1">
     <g id="line2d_1">
      <path clip-path="url(#p42e99d1a87)" d="M 88.067212 224.64 
L 88.067212 7.2 
" style="fill:none;stroke:#ffffff;stroke-linecap:round;"/>
     </g>
     <g id="text_1">
      <!-- 0.5 -->
      <g style="fill:#262626;" transform="translate(80.422212 242.013594)scale(0.11 -0.11)">
       <defs>
        <path d="M 4.15625 35.296875 
Q 4.15625 48 6.765625 55.734375 
Q 9.375 63.484375 14.515625 67.671875 
Q 19.671875 71.875 27.484375 71.875 
Q 33.25 71.875 37.59375 69.546875 
Q 41.9375 67.234375 44.765625 62.859375 
Q 47.609375 58.5 49.21875 52.21875 
Q 50.828125 45.953125 50.828125 35.296875 
Q 50.828125 22.703125 48.234375 14.96875 
Q 45.65625 7.234375 40.5 3 
Q 35.359375 -1.21875 27.484375 -1.21875 
Q 17.140625 -1.21875 11.234375 6.203125 
Q 4.15625 15.140625 4.15625 35.296875 
z
M 13.1875 35.296875 
Q 13.1875 17.671875 17.3125 11.828125 
Q 21.4375 6 27.484375 6 
Q 33.546875 6 37.671875 11.859375 
Q 41.796875 17.71875 41.796875 35.296875 
Q 41.796875 52.984375 37.671875 58.78125 
Q 33.546875 64.59375 27.390625 64.59375 
Q 21.34375 64.59375 17.71875 59.46875 
Q 13.1875 52.9375 13.1875 35.296875 
z
" id="ArialMT-48"/>
        <path d="M 9.078125 0 
L 9.078125 10.015625 
L 19.09375 10.015625 
L 19.09375 0 
z
" id="ArialMT-46"/>
        <path d="M 4.15625 18.75 
L 13.375 19.53125 
Q 14.40625 12.796875 18.140625 9.390625 
Q 21.875 6 27.15625 6 
Q 33.5 6 37.890625 10.78125 
Q 42.28125 15.578125 42.28125 23.484375 
Q 42.28125 31 38.0625 35.34375 
Q 33.84375 39.703125 27 39.703125 
Q 22.75 39.703125 19.328125 37.765625 
Q 15.921875 35.84375 13.96875 32.765625 
L 5.71875 33.84375 
L 12.640625 70.609375 
L 48.25 70.609375 
L 48.25 62.203125 
L 19.671875 62.203125 
L 15.828125 42.96875 
Q 22.265625 47.46875 29.34375 47.46875 
Q 38.71875 47.46875 45.15625 40.96875 
Q 51.609375 34.46875 51.609375 24.265625 
Q 51.609375 14.546875 45.953125 7.46875 
Q 39.0625 -1.21875 27.15625 -1.21875 
Q 17.390625 -1.21875 11.203125 4.25 
Q 5.03125 9.71875 4.15625 18.75 
z
" id="ArialMT-53"/>
       </defs>
       <use xlink:href="#ArialMT-48"/>
       <use x="55.615234" xlink:href="#ArialMT-46"/>
       <use x="83.398438" xlink:href="#ArialMT-53"/>
      </g>
     </g>
    </g>
    <g id="xtick_2">
     <g id="line2d_2">
      <path clip-path="url(#p42e99d1a87)" d="M 134.346839 224.64 
L 134.346839 7.2 
" style="fill:none;stroke:#ffffff;stroke-linecap:round;"/>
     </g>
     <g id="text_2">
      <!-- 1.0 -->
      <g style="fill:#262626;" transform="translate(126.701839 242.013594)scale(0.11 -0.11)">
       <defs>
        <path d="M 37.25 0 
L 28.46875 0 
L 28.46875 56 
Q 25.296875 52.984375 20.140625 49.953125 
Q 14.984375 46.921875 10.890625 45.40625 
L 10.890625 53.90625 
Q 18.265625 57.375 23.78125 62.296875 
Q 29.296875 67.234375 31.59375 71.875 
L 37.25 71.875 
z
" id="ArialMT-49"/>
       </defs>
       <use xlink:href="#ArialMT-49"/>
       <use x="55.615234" xlink:href="#ArialMT-46"/>
       <use x="83.398438" xlink:href="#ArialMT-48"/>
      </g>
     </g>
    </g>
    <g id="xtick_3">
     <g id="line2d_3">
      <path clip-path="url(#p42e99d1a87)" d="M 180.626466 224.64 
L 180.626466 7.2 
" style="fill:none;stroke:#ffffff;stroke-linecap:round;"/>
     </g>
     <g id="text_3">
      <!-- 1.5 -->
      <g style="fill:#262626;" transform="translate(172.981466 242.013594)scale(0.11 -0.11)">
       <use xlink:href="#ArialMT-49"/>
       <use x="55.615234" xlink:href="#ArialMT-46"/>
       <use x="83.398438" xlink:href="#ArialMT-53"/>
      </g>
     </g>
    </g>
    <g id="xtick_4">
     <g id="line2d_4">
      <path clip-path="url(#p42e99d1a87)" d="M 226.906094 224.64 
L 226.906094 7.2 
" style="fill:none;stroke:#ffffff;stroke-linecap:round;"/>
     </g>
     <g id="text_4">
      <!-- 2.0 -->
      <g style="fill:#262626;" transform="translate(219.261094 242.013594)scale(0.11 -0.11)">
       <defs>
        <path d="M 50.34375 8.453125 
L 50.34375 0 
L 3.03125 0 
Q 2.9375 3.171875 4.046875 6.109375 
Q 5.859375 10.9375 9.828125 15.625 
Q 13.8125 20.3125 21.34375 26.46875 
Q 33.015625 36.03125 37.109375 41.625 
Q 41.21875 47.21875 41.21875 52.203125 
Q 41.21875 57.421875 37.46875 61 
Q 33.734375 64.59375 27.734375 64.59375 
Q 21.390625 64.59375 17.578125 60.78125 
Q 13.765625 56.984375 13.71875 50.25 
L 4.6875 51.171875 
Q 5.609375 61.28125 11.65625 66.578125 
Q 17.71875 71.875 27.9375 71.875 
Q 38.234375 71.875 44.234375 66.15625 
Q 50.25 60.453125 50.25 52 
Q 50.25 47.703125 48.484375 43.546875 
Q 46.734375 39.40625 42.65625 34.8125 
Q 38.578125 30.21875 29.109375 22.21875 
Q 21.1875 15.578125 18.9375 13.203125 
Q 16.703125 10.84375 15.234375 8.453125 
z
" id="ArialMT-50"/>
       </defs>
       <use xlink:href="#ArialMT-50"/>
       <use x="55.615234" xlink:href="#ArialMT-46"/>
       <use x="83.398438" xlink:href="#ArialMT-48"/>
      </g>
     </g>
    </g>
    <g id="xtick_5">
     <g id="line2d_5">
      <path clip-path="url(#p42e99d1a87)" d="M 273.185721 224.64 
L 273.185721 7.2 
" style="fill:none;stroke:#ffffff;stroke-linecap:round;"/>
     </g>
     <g id="text_5">
      <!-- 2.5 -->
      <g style="fill:#262626;" transform="translate(265.540721 242.013594)scale(0.11 -0.11)">
       <use xlink:href="#ArialMT-50"/>
       <use x="55.615234" xlink:href="#ArialMT-46"/>
       <use x="83.398438" xlink:href="#ArialMT-53"/>
      </g>
     </g>
    </g>
    <g id="xtick_6">
     <g id="line2d_6">
      <path clip-path="url(#p42e99d1a87)" d="M 319.465348 224.64 
L 319.465348 7.2 
" style="fill:none;stroke:#ffffff;stroke-linecap:round;"/>
     </g>
     <g id="text_6">
      <!-- 3.0 -->
      <g style="fill:#262626;" transform="translate(311.820348 242.013594)scale(0.11 -0.11)">
       <defs>
        <path d="M 4.203125 18.890625 
L 12.984375 20.0625 
Q 14.5 12.59375 18.140625 9.296875 
Q 21.78125 6 27 6 
Q 33.203125 6 37.46875 10.296875 
Q 41.75 14.59375 41.75 20.953125 
Q 41.75 27 37.796875 30.921875 
Q 33.84375 34.859375 27.734375 34.859375 
Q 25.25 34.859375 21.53125 33.890625 
L 22.515625 41.609375 
Q 23.390625 41.5 23.921875 41.5 
Q 29.546875 41.5 34.03125 44.421875 
Q 38.53125 47.359375 38.53125 53.46875 
Q 38.53125 58.296875 35.25 61.46875 
Q 31.984375 64.65625 26.8125 64.65625 
Q 21.6875 64.65625 18.265625 61.421875 
Q 14.84375 58.203125 13.875 51.765625 
L 5.078125 53.328125 
Q 6.6875 62.15625 12.390625 67.015625 
Q 18.109375 71.875 26.609375 71.875 
Q 32.46875 71.875 37.390625 69.359375 
Q 42.328125 66.84375 44.9375 62.5 
Q 47.5625 58.15625 47.5625 53.265625 
Q 47.5625 48.640625 45.0625 44.828125 
Q 42.578125 41.015625 37.703125 38.765625 
Q 44.046875 37.3125 47.5625 32.6875 
Q 51.078125 28.078125 51.078125 21.140625 
Q 51.078125 11.765625 44.234375 5.25 
Q 37.40625 -1.265625 26.953125 -1.265625 
Q 17.53125 -1.265625 11.296875 4.34375 
Q 5.078125 9.96875 4.203125 18.890625 
z
" id="ArialMT-51"/>
       </defs>
       <use xlink:href="#ArialMT-51"/>
       <use x="55.615234" xlink:href="#ArialMT-46"/>
       <use x="83.398438" xlink:href="#ArialMT-48"/>
      </g>
     </g>
    </g>
    <g id="xtick_7">
     <g id="line2d_7">
      <path clip-path="url(#p42e99d1a87)" d="M 365.744976 224.64 
L 365.744976 7.2 
" style="fill:none;stroke:#ffffff;stroke-linecap:round;"/>
     </g>
     <g id="text_7">
      <!-- 3.5 -->
      <g style="fill:#262626;" transform="translate(358.099976 242.013594)scale(0.11 -0.11)">
       <use xlink:href="#ArialMT-51"/>
       <use x="55.615234" xlink:href="#ArialMT-46"/>
       <use x="83.398438" xlink:href="#ArialMT-53"/>
      </g>
     </g>
    </g>
    <g id="text_8">
     <!-- Pclass -->
     <g style="fill:#262626;" transform="translate(209.234219 256.789219)scale(0.12 -0.12)">
      <defs>
       <path d="M 7.71875 0 
L 7.71875 71.578125 
L 34.71875 71.578125 
Q 41.84375 71.578125 45.609375 70.90625 
Q 50.875 70.015625 54.4375 67.546875 
Q 58.015625 65.09375 60.1875 60.640625 
Q 62.359375 56.203125 62.359375 50.875 
Q 62.359375 41.75 56.546875 35.421875 
Q 50.734375 29.109375 35.546875 29.109375 
L 17.1875 29.109375 
L 17.1875 0 
z
M 17.1875 37.546875 
L 35.6875 37.546875 
Q 44.875 37.546875 48.734375 40.96875 
Q 52.59375 44.390625 52.59375 50.59375 
Q 52.59375 55.078125 50.3125 58.265625 
Q 48.046875 61.46875 44.34375 62.5 
Q 41.9375 63.140625 35.5 63.140625 
L 17.1875 63.140625 
z
" id="ArialMT-80"/>
       <path d="M 40.4375 19 
L 49.078125 17.875 
Q 47.65625 8.9375 41.8125 3.875 
Q 35.984375 -1.171875 27.484375 -1.171875 
Q 16.84375 -1.171875 10.375 5.78125 
Q 3.90625 12.75 3.90625 25.734375 
Q 3.90625 34.125 6.6875 40.421875 
Q 9.46875 46.734375 15.15625 49.875 
Q 20.84375 53.03125 27.546875 53.03125 
Q 35.984375 53.03125 41.359375 48.75 
Q 46.734375 44.484375 48.25 36.625 
L 39.703125 35.296875 
Q 38.484375 40.53125 35.375 43.15625 
Q 32.28125 45.796875 27.875 45.796875 
Q 21.234375 45.796875 17.078125 41.03125 
Q 12.9375 36.28125 12.9375 25.984375 
Q 12.9375 15.53125 16.9375 10.796875 
Q 20.953125 6.0625 27.390625 6.0625 
Q 32.5625 6.0625 36.03125 9.234375 
Q 39.5 12.40625 40.4375 19 
z
" id="ArialMT-99"/>
       <path d="M 6.390625 0 
L 6.390625 71.578125 
L 15.1875 71.578125 
L 15.1875 0 
z
" id="ArialMT-108"/>
       <path d="M 40.4375 6.390625 
Q 35.546875 2.25 31.03125 0.53125 
Q 26.515625 -1.171875 21.34375 -1.171875 
Q 12.796875 -1.171875 8.203125 3 
Q 3.609375 7.171875 3.609375 13.671875 
Q 3.609375 17.484375 5.34375 20.625 
Q 7.078125 23.78125 9.890625 25.6875 
Q 12.703125 27.59375 16.21875 28.5625 
Q 18.796875 29.25 24.03125 29.890625 
Q 34.671875 31.15625 39.703125 32.90625 
Q 39.75 34.71875 39.75 35.203125 
Q 39.75 40.578125 37.25 42.78125 
Q 33.890625 45.75 27.25 45.75 
Q 21.046875 45.75 18.09375 43.578125 
Q 15.140625 41.40625 13.71875 35.890625 
L 5.125 37.0625 
Q 6.296875 42.578125 8.984375 45.96875 
Q 11.671875 49.359375 16.75 51.1875 
Q 21.828125 53.03125 28.515625 53.03125 
Q 35.15625 53.03125 39.296875 51.46875 
Q 43.453125 49.90625 45.40625 47.53125 
Q 47.359375 45.171875 48.140625 41.546875 
Q 48.578125 39.3125 48.578125 33.453125 
L 48.578125 21.734375 
Q 48.578125 9.46875 49.140625 6.21875 
Q 49.703125 2.984375 51.375 0 
L 42.1875 0 
Q 40.828125 2.734375 40.4375 6.390625 
z
M 39.703125 26.03125 
Q 34.90625 24.078125 25.34375 22.703125 
Q 19.921875 21.921875 17.671875 20.9375 
Q 15.4375 19.96875 14.203125 18.09375 
Q 12.984375 16.21875 12.984375 13.921875 
Q 12.984375 10.40625 15.640625 8.0625 
Q 18.3125 5.71875 23.4375 5.71875 
Q 28.515625 5.71875 32.46875 7.9375 
Q 36.421875 10.15625 38.28125 14.015625 
Q 39.703125 17 39.703125 22.796875 
z
" id="ArialMT-97"/>
       <path d="M 3.078125 15.484375 
L 11.765625 16.84375 
Q 12.5 11.625 15.84375 8.84375 
Q 19.1875 6.0625 25.203125 6.0625 
Q 31.25 6.0625 34.171875 8.515625 
Q 37.109375 10.984375 37.109375 14.3125 
Q 37.109375 17.28125 34.515625 19 
Q 32.71875 20.171875 25.53125 21.96875 
Q 15.875 24.421875 12.140625 26.203125 
Q 8.40625 27.984375 6.46875 31.125 
Q 4.546875 34.28125 4.546875 38.09375 
Q 4.546875 41.546875 6.125 44.5 
Q 7.71875 47.46875 10.453125 49.421875 
Q 12.5 50.921875 16.03125 51.96875 
Q 19.578125 53.03125 23.640625 53.03125 
Q 29.734375 53.03125 34.34375 51.265625 
Q 38.96875 49.515625 41.15625 46.5 
Q 43.359375 43.5 44.1875 38.484375 
L 35.59375 37.3125 
Q 35.015625 41.3125 32.203125 43.546875 
Q 29.390625 45.796875 24.265625 45.796875 
Q 18.21875 45.796875 15.625 43.796875 
Q 13.03125 41.796875 13.03125 39.109375 
Q 13.03125 37.40625 14.109375 36.03125 
Q 15.1875 34.625 17.484375 33.6875 
Q 18.796875 33.203125 25.25 31.453125 
Q 34.578125 28.953125 38.25 27.359375 
Q 41.9375 25.78125 44.03125 22.75 
Q 46.140625 19.734375 46.140625 15.234375 
Q 46.140625 10.84375 43.578125 6.953125 
Q 41.015625 3.078125 36.171875 0.953125 
Q 31.34375 -1.171875 25.25 -1.171875 
Q 15.140625 -1.171875 9.84375 3.03125 
Q 4.546875 7.234375 3.078125 15.484375 
z
" id="ArialMT-115"/>
      </defs>
      <use xlink:href="#ArialMT-80"/>
      <use x="66.699219" xlink:href="#ArialMT-99"/>
      <use x="116.699219" xlink:href="#ArialMT-108"/>
      <use x="138.916016" xlink:href="#ArialMT-97"/>
      <use x="194.53125" xlink:href="#ArialMT-115"/>
      <use x="244.53125" xlink:href="#ArialMT-115"/>
     </g>
    </g>
   </g>
   <g id="matplotlib.axis_2">
    <g id="ytick_1">
     <g id="line2d_8">
      <path clip-path="url(#p42e99d1a87)" d="M 59.506094 199.930977 
L 394.306094 199.930977 
" style="fill:none;stroke:#ffffff;stroke-linecap:round;"/>
     </g>
     <g id="text_9">
      <!-- −0.25 -->
      <g style="fill:#262626;" transform="translate(22.174375 203.867774)scale(0.11 -0.11)">
       <defs>
        <path d="M 52.828125 31.203125 
L 5.5625 31.203125 
L 5.5625 39.40625 
L 52.828125 39.40625 
z
" id="ArialMT-8722"/>
       </defs>
       <use xlink:href="#ArialMT-8722"/>
       <use x="58.398438" xlink:href="#ArialMT-48"/>
       <use x="114.013672" xlink:href="#ArialMT-46"/>
       <use x="141.796875" xlink:href="#ArialMT-50"/>
       <use x="197.412109" xlink:href="#ArialMT-53"/>
      </g>
     </g>
    </g>
    <g id="ytick_2">
     <g id="line2d_9">
      <path clip-path="url(#p42e99d1a87)" d="M 59.506094 171.927318 
L 394.306094 171.927318 
" style="fill:none;stroke:#ffffff;stroke-linecap:round;"/>
     </g>
     <g id="text_10">
      <!-- 0.00 -->
      <g style="fill:#262626;" transform="translate(28.599063 175.864115)scale(0.11 -0.11)">
       <use xlink:href="#ArialMT-48"/>
       <use x="55.615234" xlink:href="#ArialMT-46"/>
       <use x="83.398438" xlink:href="#ArialMT-48"/>
       <use x="139.013672" xlink:href="#ArialMT-48"/>
      </g>
     </g>
    </g>
    <g id="ytick_3">
     <g id="line2d_10">
      <path clip-path="url(#p42e99d1a87)" d="M 59.506094 143.923659 
L 394.306094 143.923659 
" style="fill:none;stroke:#ffffff;stroke-linecap:round;"/>
     </g>
     <g id="text_11">
      <!-- 0.25 -->
      <g style="fill:#262626;" transform="translate(28.599063 147.860456)scale(0.11 -0.11)">
       <use xlink:href="#ArialMT-48"/>
       <use x="55.615234" xlink:href="#ArialMT-46"/>
       <use x="83.398438" xlink:href="#ArialMT-50"/>
       <use x="139.013672" xlink:href="#ArialMT-53"/>
      </g>
     </g>
    </g>
    <g id="ytick_4">
     <g id="line2d_11">
      <path clip-path="url(#p42e99d1a87)" d="M 59.506094 115.92 
L 394.306094 115.92 
" style="fill:none;stroke:#ffffff;stroke-linecap:round;"/>
     </g>
     <g id="text_12">
      <!-- 0.50 -->
      <g style="fill:#262626;" transform="translate(28.599063 119.856797)scale(0.11 -0.11)">
       <use xlink:href="#ArialMT-48"/>
       <use x="55.615234" xlink:href="#ArialMT-46"/>
       <use x="83.398438" xlink:href="#ArialMT-53"/>
       <use x="139.013672" xlink:href="#ArialMT-48"/>
      </g>
     </g>
    </g>
    <g id="ytick_5">
     <g id="line2d_12">
      <path clip-path="url(#p42e99d1a87)" d="M 59.506094 87.916341 
L 394.306094 87.916341 
" style="fill:none;stroke:#ffffff;stroke-linecap:round;"/>
     </g>
     <g id="text_13">
      <!-- 0.75 -->
      <g style="fill:#262626;" transform="translate(28.599063 91.853138)scale(0.11 -0.11)">
       <defs>
        <path d="M 4.734375 62.203125 
L 4.734375 70.65625 
L 51.078125 70.65625 
L 51.078125 63.8125 
Q 44.234375 56.546875 37.515625 44.484375 
Q 30.8125 32.421875 27.15625 19.671875 
Q 24.515625 10.6875 23.78125 0 
L 14.75 0 
Q 14.890625 8.453125 18.0625 20.40625 
Q 21.234375 32.375 27.171875 43.484375 
Q 33.109375 54.59375 39.796875 62.203125 
z
" id="ArialMT-55"/>
       </defs>
       <use xlink:href="#ArialMT-48"/>
       <use x="55.615234" xlink:href="#ArialMT-46"/>
       <use x="83.398438" xlink:href="#ArialMT-55"/>
       <use x="139.013672" xlink:href="#ArialMT-53"/>
      </g>
     </g>
    </g>
    <g id="ytick_6">
     <g id="line2d_13">
      <path clip-path="url(#p42e99d1a87)" d="M 59.506094 59.912682 
L 394.306094 59.912682 
" style="fill:none;stroke:#ffffff;stroke-linecap:round;"/>
     </g>
     <g id="text_14">
      <!-- 1.00 -->
      <g style="fill:#262626;" transform="translate(28.599063 63.849479)scale(0.11 -0.11)">
       <use xlink:href="#ArialMT-49"/>
       <use x="55.615234" xlink:href="#ArialMT-46"/>
       <use x="83.398438" xlink:href="#ArialMT-48"/>
       <use x="139.013672" xlink:href="#ArialMT-48"/>
      </g>
     </g>
    </g>
    <g id="ytick_7">
     <g id="line2d_14">
      <path clip-path="url(#p42e99d1a87)" d="M 59.506094 31.909023 
L 394.306094 31.909023 
" style="fill:none;stroke:#ffffff;stroke-linecap:round;"/>
     </g>
     <g id="text_15">
      <!-- 1.25 -->
      <g style="fill:#262626;" transform="translate(28.599063 35.84582)scale(0.11 -0.11)">
       <use xlink:href="#ArialMT-49"/>
       <use x="55.615234" xlink:href="#ArialMT-46"/>
       <use x="83.398438" xlink:href="#ArialMT-50"/>
       <use x="139.013672" xlink:href="#ArialMT-53"/>
      </g>
     </g>
    </g>
    <g id="text_16">
     <!-- Survived -->
     <g style="fill:#262626;" transform="translate(15.789375 139.262813)rotate(-90)scale(0.12 -0.12)">
      <defs>
       <path d="M 4.5 23 
L 13.421875 23.78125 
Q 14.0625 18.40625 16.375 14.96875 
Q 18.703125 11.53125 23.578125 9.40625 
Q 28.46875 7.28125 34.578125 7.28125 
Q 39.984375 7.28125 44.140625 8.890625 
Q 48.296875 10.5 50.3125 13.296875 
Q 52.34375 16.109375 52.34375 19.4375 
Q 52.34375 22.796875 50.390625 25.3125 
Q 48.4375 27.828125 43.953125 29.546875 
Q 41.0625 30.671875 31.203125 33.03125 
Q 21.34375 35.40625 17.390625 37.5 
Q 12.25 40.1875 9.734375 44.15625 
Q 7.234375 48.140625 7.234375 53.078125 
Q 7.234375 58.5 10.296875 63.203125 
Q 13.375 67.921875 19.28125 70.359375 
Q 25.203125 72.796875 32.421875 72.796875 
Q 40.375 72.796875 46.453125 70.234375 
Q 52.546875 67.671875 55.8125 62.6875 
Q 59.078125 57.71875 59.328125 51.421875 
L 50.25 50.734375 
Q 49.515625 57.515625 45.28125 60.984375 
Q 41.0625 64.453125 32.8125 64.453125 
Q 24.21875 64.453125 20.28125 61.296875 
Q 16.359375 58.15625 16.359375 53.71875 
Q 16.359375 49.859375 19.140625 47.359375 
Q 21.875 44.875 33.421875 42.265625 
Q 44.96875 39.65625 49.265625 37.703125 
Q 55.515625 34.8125 58.484375 30.390625 
Q 61.46875 25.984375 61.46875 20.21875 
Q 61.46875 14.5 58.203125 9.4375 
Q 54.9375 4.390625 48.796875 1.578125 
Q 42.671875 -1.21875 35.015625 -1.21875 
Q 25.296875 -1.21875 18.71875 1.609375 
Q 12.15625 4.4375 8.421875 10.125 
Q 4.6875 15.828125 4.5 23 
z
" id="ArialMT-83"/>
       <path d="M 40.578125 0 
L 40.578125 7.625 
Q 34.515625 -1.171875 24.125 -1.171875 
Q 19.53125 -1.171875 15.546875 0.578125 
Q 11.578125 2.34375 9.640625 5 
Q 7.71875 7.671875 6.9375 11.53125 
Q 6.390625 14.109375 6.390625 19.734375 
L 6.390625 51.859375 
L 15.1875 51.859375 
L 15.1875 23.09375 
Q 15.1875 16.21875 15.71875 13.8125 
Q 16.546875 10.359375 19.234375 8.375 
Q 21.921875 6.390625 25.875 6.390625 
Q 29.828125 6.390625 33.296875 8.421875 
Q 36.765625 10.453125 38.203125 13.9375 
Q 39.65625 17.4375 39.65625 24.078125 
L 39.65625 51.859375 
L 48.4375 51.859375 
L 48.4375 0 
z
" id="ArialMT-117"/>
       <path d="M 6.5 0 
L 6.5 51.859375 
L 14.40625 51.859375 
L 14.40625 44 
Q 17.4375 49.515625 20 51.265625 
Q 22.5625 53.03125 25.640625 53.03125 
Q 30.078125 53.03125 34.671875 50.203125 
L 31.640625 42.046875 
Q 28.421875 43.953125 25.203125 43.953125 
Q 22.3125 43.953125 20.015625 42.21875 
Q 17.71875 40.484375 16.75 37.40625 
Q 15.28125 32.71875 15.28125 27.15625 
L 15.28125 0 
z
" id="ArialMT-114"/>
       <path d="M 21 0 
L 1.265625 51.859375 
L 10.546875 51.859375 
L 21.6875 20.796875 
Q 23.484375 15.765625 25 10.359375 
Q 26.171875 14.453125 28.265625 20.21875 
L 39.796875 51.859375 
L 48.828125 51.859375 
L 29.203125 0 
z
" id="ArialMT-118"/>
       <path d="M 6.640625 61.46875 
L 6.640625 71.578125 
L 15.4375 71.578125 
L 15.4375 61.46875 
z
M 6.640625 0 
L 6.640625 51.859375 
L 15.4375 51.859375 
L 15.4375 0 
z
" id="ArialMT-105"/>
       <path d="M 42.09375 16.703125 
L 51.171875 15.578125 
Q 49.03125 7.625 43.21875 3.21875 
Q 37.40625 -1.171875 28.375 -1.171875 
Q 17 -1.171875 10.328125 5.828125 
Q 3.65625 12.84375 3.65625 25.484375 
Q 3.65625 38.578125 10.390625 45.796875 
Q 17.140625 53.03125 27.875 53.03125 
Q 38.28125 53.03125 44.875 45.953125 
Q 51.46875 38.875 51.46875 26.03125 
Q 51.46875 25.25 51.421875 23.6875 
L 12.75 23.6875 
Q 13.234375 15.140625 17.578125 10.59375 
Q 21.921875 6.0625 28.421875 6.0625 
Q 33.25 6.0625 36.671875 8.59375 
Q 40.09375 11.140625 42.09375 16.703125 
z
M 13.234375 30.90625 
L 42.1875 30.90625 
Q 41.609375 37.453125 38.875 40.71875 
Q 34.671875 45.796875 27.984375 45.796875 
Q 21.921875 45.796875 17.796875 41.75 
Q 13.671875 37.703125 13.234375 30.90625 
z
" id="ArialMT-101"/>
       <path d="M 40.234375 0 
L 40.234375 6.546875 
Q 35.296875 -1.171875 25.734375 -1.171875 
Q 19.53125 -1.171875 14.328125 2.25 
Q 9.125 5.671875 6.265625 11.796875 
Q 3.421875 17.921875 3.421875 25.875 
Q 3.421875 33.640625 6 39.96875 
Q 8.59375 46.296875 13.765625 49.65625 
Q 18.953125 53.03125 25.34375 53.03125 
Q 30.03125 53.03125 33.6875 51.046875 
Q 37.359375 49.078125 39.65625 45.90625 
L 39.65625 71.578125 
L 48.390625 71.578125 
L 48.390625 0 
z
M 12.453125 25.875 
Q 12.453125 15.921875 16.640625 10.984375 
Q 20.84375 6.0625 26.5625 6.0625 
Q 32.328125 6.0625 36.34375 10.765625 
Q 40.375 15.484375 40.375 25.140625 
Q 40.375 35.796875 36.265625 40.765625 
Q 32.171875 45.75 26.171875 45.75 
Q 20.3125 45.75 16.375 40.96875 
Q 12.453125 36.1875 12.453125 25.875 
z
" id="ArialMT-100"/>
      </defs>
      <use xlink:href="#ArialMT-83"/>
      <use x="66.699219" xlink:href="#ArialMT-117"/>
      <use x="122.314453" xlink:href="#ArialMT-114"/>
      <use x="155.615234" xlink:href="#ArialMT-118"/>
      <use x="205.615234" xlink:href="#ArialMT-105"/>
      <use x="227.832031" xlink:href="#ArialMT-118"/>
      <use x="277.832031" xlink:href="#ArialMT-101"/>
      <use x="333.447266" xlink:href="#ArialMT-100"/>
     </g>
    </g>
   </g>
   <g id="LineCollection_1">
    <path clip-path="url(#p42e99d1a87)" d="M 333.73926 218.210441 
L 338.786496 218.545456 
L 343.833732 218.578075 
L 347.198556 218.422534 
L 352.245792 217.900428 
L 355.610616 217.34747 
L 358.97544 216.597099 
L 362.340265 215.623452 
L 365.705089 214.397316 
L 369.514072 212.620704 
L 372.434737 210.924542 
L 374.693592 209.342714 
L 377.266405 207.157387 
L 379.354415 204.97206 
L 381.05237 202.786734 
L 382.419655 200.601407 
L 383.530008 198.41608 
L 384.358708 196.230754 
L 385.003763 194.045427 
L 385.423876 191.860101 
L 385.653952 189.674774 
L 385.716703 187.489447 
L 385.624821 185.304121 
L 385.382184 183.118794 
L 384.984242 180.933467 
L 384.211621 178.103466 
L 383.742569 176.562814 
L 382.910295 174.377487 
L 380.821709 170.006834 
L 379.606333 167.821508 
L 376.717866 163.450854 
L 373.244191 159.080201 
L 369.125079 154.709548 
L 365.615376 151.431558 
L 361.697909 148.153568 
L 357.251335 144.875578 
L 353.928204 142.648357 
L 348.880968 139.592918 
L 343.833732 136.894576 
L 338.786496 134.515464 
L 333.73926 132.43228 
L 327.009611 130.077223 
L 320.279963 128.192899 
L 315.232727 127.074636 
L 310.185491 126.226313 
L 305.138255 125.6149 
L 300.091018 125.303266 
L 295.043782 125.271717 
L 289.996546 125.543346 
L 286.631722 125.925733 
L 281.584486 126.826507 
L 278.219662 127.678543 
L 274.854837 128.753404 
L 271.490013 130.07887 
L 267.999453 131.763618 
L 264.170524 133.948945 
L 255.29658 139.412261 
L 254.665893 139.723341 
L 252.590886 140.504925 
L 251.301069 140.852901 
L 249.618657 141.12769 
L 247.936245 141.233603 
L 246.253832 141.194009 
L 242.889008 140.7974 
L 239.524184 140.129602 
L 224.382476 136.676522 
L 219.335239 135.879186 
L 215.970415 135.502193 
L 212.605591 135.276379 
L 209.240767 135.203757 
L 205.875943 135.294493 
L 202.511119 135.56866 
L 198.756729 136.134271 
L 195.781471 136.76111 
L 192.416647 137.732452 
L 189.051822 139.003744 
L 185.686998 140.617087 
L 182.148398 142.690251 
L 175.494837 147.060905 
L 173.320728 148.153568 
L 172.227702 148.591921 
L 170.54529 149.032769 
L 168.862878 149.23374 
L 167.180466 149.215525 
L 165.498054 149.014448 
L 162.133229 148.233892 
L 158.587895 147.060905 
L 141.944285 140.957071 
L 136.476967 139.412261 
L 133.532224 138.700072 
L 128.484988 137.749756 
L 124.248991 137.226935 
L 121.75534 137.011077 
L 118.390516 136.878509 
L 115.025692 136.926267 
L 111.204751 137.226935 
L 108.296043 137.618024 
L 104.931219 138.32471 
L 101.566395 139.309177 
L 98.536956 140.504925 
L 96.331616 141.597588 
L 94.495581 142.690251 
L 92.935636 143.782915 
L 90.422899 145.968241 
L 88.525908 148.153568 
L 87.088388 150.338894 
L 86.03261 152.524221 
L 85.287779 154.709548 
L 84.834823 156.894874 
L 84.616612 159.080201 
L 84.626696 161.265528 
L 84.847753 163.450854 
L 85.254677 165.636181 
L 85.865659 167.821508 
L 87.129226 171.099497 
L 88.217857 173.284824 
L 89.464652 175.470151 
L 91.699063 178.748141 
L 93.425215 180.933467 
L 95.348817 183.118794 
L 98.652396 186.396784 
L 102.496864 189.674774 
L 105.415026 191.860101 
L 108.661417 194.045427 
L 112.296049 196.230754 
L 115.025692 197.71394 
L 120.072928 200.120821 
L 125.120164 202.138672 
L 130.1674 203.789023 
L 135.214636 205.105626 
L 138.579461 205.797743 
L 143.626697 206.545456 
L 146.991521 206.842092 
L 150.356345 206.971323 
L 153.721169 206.92827 
L 157.085993 206.696675 
L 160.450817 206.247775 
L 163.815641 205.573727 
L 167.180466 204.630144 
L 170.54529 203.389523 
L 174.145111 201.69407 
L 177.983457 199.508744 
L 182.322174 196.880511 
L 184.004586 196.011992 
L 186.354978 195.13809 
L 187.36941 194.867312 
L 189.051822 194.641168 
L 190.734234 194.630398 
L 192.416647 194.804524 
L 194.151056 195.13809 
L 197.814149 196.230754 
L 202.511119 198.020955 
L 214.288003 202.702983 
L 219.335239 204.436469 
L 225.101881 206.064724 
L 227.7473 206.708742 
L 232.794536 207.675565 
L 237.287555 208.25005 
L 239.524184 208.459315 
L 242.889008 208.629963 
L 246.253832 208.634058 
L 249.618657 208.462003 
L 252.983481 208.108129 
L 256.348305 207.567643 
L 259.713129 206.822519 
L 264.760365 205.377187 
L 269.807601 203.790298 
L 273.172425 202.980198 
L 274.854837 202.730054 
L 276.53725 202.619861 
L 278.219662 202.643492 
L 279.902074 202.795062 
L 283.266898 203.466424 
L 286.631722 204.469292 
L 291.004106 206.064724 
L 306.820667 212.173611 
L 313.550315 214.319362 
L 320.279963 216.049627 
L 324.935017 216.991357 
L 328.692023 217.62572 
L 333.73926 218.210441 
L 333.73926 218.210441 
" style="fill:none;stroke:#4c72b0;stroke-width:1.5;"/>
    <path clip-path="url(#p42e99d1a87)" d="M 146.991521 99.087959 
L 150.356345 99.307949 
L 153.721169 99.369467 
L 157.085993 99.265954 
L 160.450817 98.980173 
L 163.815641 98.526256 
L 167.180466 97.837948 
L 170.922389 96.798392 
L 173.971279 95.705729 
L 177.274938 94.242611 
L 180.639762 92.416686 
L 185.686998 89.222123 
L 189.510694 86.964422 
L 190.734234 86.380306 
L 192.416647 85.772011 
L 194.099059 85.396583 
L 195.781471 85.232413 
L 197.463883 85.25858 
L 199.146295 85.441947 
L 202.511119 86.152247 
L 205.875943 87.147386 
L 222.056428 92.427739 
L 224.382476 93.060991 
L 229.429712 94.202636 
L 234.476948 95.043167 
L 237.841772 95.420492 
L 241.206596 95.639119 
L 244.57142 95.698763 
L 247.936245 95.589405 
L 251.301069 95.290269 
L 254.665893 94.768345 
L 258.030717 94.020587 
L 261.395541 93.003912 
L 264.760365 91.696819 
L 268.125189 90.094229 
L 276.53725 85.69109 
L 278.219662 85.084712 
L 279.902074 84.671937 
L 281.584486 84.473575 
L 283.266898 84.469233 
L 285.733808 84.779095 
L 286.631722 84.944899 
L 289.996546 85.873475 
L 295.043782 87.72744 
L 307.177715 92.427739 
L 311.867903 94.013702 
L 316.915139 95.458754 
L 322.879885 96.798392 
L 325.327199 97.252768 
L 330.216855 97.891055 
L 332.056848 98.069191 
L 335.421672 98.267171 
L 338.786496 98.303507 
L 342.15132 98.168675 
L 345.516144 97.845716 
L 348.880968 97.337013 
L 352.245792 96.582112 
L 355.610616 95.55821 
L 358.97544 94.208176 
L 360.657853 93.375693 
L 362.340265 92.421191 
L 364.022677 91.322277 
L 366.74037 89.149749 
L 367.859134 88.057085 
L 369.718913 85.871759 
L 371.153424 83.686432 
L 372.239551 81.501106 
L 373.046052 79.315779 
L 373.581962 77.130452 
L 373.876733 74.945126 
L 373.962072 72.759799 
L 373.856594 70.574472 
L 373.567641 68.389146 
L 373.092035 66.203819 
L 372.046517 62.925829 
L 371.142309 60.740503 
L 369.474772 57.462513 
L 367.387501 54.149939 
L 365.705089 51.830129 
L 364.022677 49.747494 
L 362.147163 47.628543 
L 360.022584 45.443216 
L 356.419017 42.165226 
L 353.710303 39.979899 
L 350.56338 37.667964 
L 347.198556 35.432216 
L 343.833732 33.421624 
L 339.775741 31.238593 
L 337.104084 29.940618 
L 332.056848 27.770442 
L 327.009611 25.938092 
L 321.962375 24.421625 
L 316.915139 23.217181 
L 311.867903 22.333031 
L 308.503079 21.90887 
L 305.138255 21.643328 
L 301.77343 21.530338 
L 298.408606 21.57393 
L 295.043782 21.788546 
L 291.678958 22.200292 
L 288.314134 22.8207 
L 284.94931 23.684019 
L 281.584486 24.809905 
L 278.219662 26.23729 
L 274.854837 28.004042 
L 271.358039 30.14593 
L 266.442777 33.230972 
L 264.760365 34.08078 
L 263.077953 34.733459 
L 261.395541 35.15526 
L 259.713129 35.357059 
L 258.030717 35.356201 
L 256.348305 35.184806 
L 252.983481 34.482245 
L 249.513563 33.42392 
L 232.794536 27.706987 
L 227.7473 26.364873 
L 222.700064 25.315137 
L 218.379516 24.682613 
L 215.970415 24.411229 
L 212.605591 24.182444 
L 209.240767 24.121107 
L 205.875943 24.236349 
L 202.511119 24.548192 
L 199.146295 25.058642 
L 195.781471 25.814013 
L 192.277561 26.86794 
L 189.051822 28.099413 
L 184.693903 30.14593 
L 178.95735 33.018973 
L 177.274938 33.686184 
L 175.592526 34.184954 
L 173.654475 34.516583 
L 172.227702 34.609031 
L 170.353508 34.516583 
L 168.862878 34.312879 
L 165.498054 33.507125 
L 161.990694 32.331256 
L 153.640484 29.053266 
L 147.941314 26.86794 
L 143.626697 25.35999 
L 138.579461 23.832593 
L 133.164399 22.497286 
L 130.1674 21.872699 
L 125.120164 21.087499 
L 121.75534 20.730622 
L 116.708104 20.476508 
L 113.34328 20.495366 
L 109.978456 20.678546 
L 106.613631 21.050742 
L 103.248807 21.630204 
L 99.712713 22.497286 
L 96.367865 23.58995 
L 93.154335 24.950238 
L 91.471923 25.821533 
L 89.706003 26.86794 
L 86.703402 29.053266 
L 84.742275 30.87151 
L 83.422172 32.331256 
L 81.818864 34.516583 
L 80.576531 36.70191 
L 79.664994 38.887236 
L 78.983842 41.072563 
L 78.562848 43.257889 
L 78.363003 45.443216 
L 78.359563 47.628543 
L 78.539639 49.813869 
L 78.900931 51.999196 
L 79.451454 54.184523 
L 80.555792 57.462513 
L 82.041874 60.740503 
L 83.891038 64.018492 
L 86.424687 67.68453 
L 88.107099 69.821147 
L 89.789511 71.766345 
L 91.745104 73.852462 
L 95.203427 77.130452 
L 99.161456 80.408442 
L 103.248807 83.369364 
L 107.142359 85.871759 
L 110.94845 88.057085 
L 113.34328 89.313663 
L 118.390516 91.694452 
L 123.437752 93.721731 
L 128.484988 95.435441 
L 133.532224 96.828639 
L 136.897049 97.607427 
L 141.944285 98.509715 
L 146.991521 99.087959 
L 146.991521 99.087959 
" style="fill:none;stroke:#4c72b0;stroke-width:1.5;"/>
   </g>
   <g id="LineCollection_2">
    <path clip-path="url(#p42e99d1a87)" d="M 332.056848 211.697408 
L 335.421672 211.926233 
L 338.786496 212.000356 
L 342.15132 211.913841 
L 346.518661 211.52804 
L 348.880968 211.210698 
L 352.700215 210.435377 
L 355.610616 209.654675 
L 358.97544 208.464803 
L 361.866914 207.157387 
L 364.022677 205.976086 
L 365.705089 204.897644 
L 368.427303 202.786734 
L 369.593395 201.69407 
L 371.545238 199.508744 
L 373.072916 197.323417 
L 374.241558 195.13809 
L 375.14149 192.952764 
L 375.799561 190.514729 
L 376.156049 188.582111 
L 376.343224 186.396784 
L 376.328188 184.211457 
L 376.121976 182.026131 
L 375.494067 178.748141 
L 374.876572 176.562814 
L 373.626116 173.284824 
L 372.434737 170.833995 
L 371.407759 168.914171 
L 369.069913 165.313889 
L 367.387501 163.050416 
L 365.705089 161.001736 
L 363.982782 159.080201 
L 361.866108 156.894874 
L 358.286133 153.616884 
L 354.180271 150.338894 
L 350.56338 147.77073 
L 347.198556 145.619408 
L 343.833732 143.673757 
L 338.786496 141.06669 
L 333.73926 138.827149 
L 328.692023 136.919215 
L 323.644787 135.318633 
L 318.23056 133.948945 
L 315.232727 133.312053 
L 310.185491 132.511458 
L 306.820667 132.146611 
L 301.77343 131.878304 
L 298.408606 131.883851 
L 295.043782 132.048686 
L 291.678958 132.395288 
L 288.314134 132.950519 
L 284.94931 133.715488 
L 281.584486 134.739917 
L 278.086211 136.134271 
L 274.854837 137.758785 
L 272.183847 139.412261 
L 269.807601 141.157584 
L 267.971482 142.690251 
L 264.760365 145.735703 
L 259.713129 150.42884 
L 258.030717 151.508927 
L 256.348305 152.226488 
L 254.665893 152.61017 
L 252.983481 152.711372 
L 250.861179 152.524221 
L 249.618657 152.321005 
L 246.155396 151.431558 
L 239.523769 149.246231 
L 234.476948 147.596328 
L 229.429712 146.184718 
L 224.382476 145.088515 
L 219.335239 144.364641 
L 215.970415 144.118698 
L 212.605591 144.078552 
L 209.240767 144.265753 
L 205.875943 144.71735 
L 202.511119 145.469196 
L 199.146295 146.597642 
L 197.463883 147.334643 
L 195.781471 148.210996 
L 194.099059 149.25373 
L 192.416647 150.504088 
L 190.229208 152.524221 
L 188.40342 154.709548 
L 186.986632 156.894874 
L 185.887665 159.080201 
L 184.702039 162.358191 
L 184.247571 164.543518 
L 184.071056 166.728844 
L 184.213206 168.914171 
L 184.432936 170.006834 
L 184.779309 171.099497 
L 185.686998 172.834064 
L 185.922679 173.284824 
L 186.646194 174.377487 
L 189.563586 177.655477 
L 193.211259 180.933467 
L 197.464059 184.211457 
L 200.828707 186.554123 
L 204.193531 188.686157 
L 207.824993 190.767437 
L 212.143554 192.952764 
L 215.970415 194.640857 
L 220.242522 196.230754 
L 223.741251 197.323417 
L 226.064888 197.953841 
L 229.429712 198.694404 
L 232.794536 199.250955 
L 236.15936 199.612912 
L 239.524184 199.778889 
L 242.889008 199.724206 
L 246.253832 199.431636 
L 249.618657 198.883728 
L 252.983481 198.03907 
L 256.348305 196.876655 
L 260.262383 195.13809 
L 264.760365 192.905253 
L 267.396214 191.860101 
L 268.125189 191.619608 
L 269.807601 191.267954 
L 271.490013 191.14434 
L 273.172425 191.24158 
L 274.854837 191.53106 
L 276.53725 191.977746 
L 279.902074 193.229214 
L 284.005508 195.13809 
L 290.498176 198.41608 
L 297.186939 201.69407 
L 302.089509 203.879397 
L 306.820667 205.77874 
L 311.867903 207.536596 
L 316.915139 209.012823 
L 321.962375 210.202015 
L 327.009611 211.106707 
L 332.056848 211.697408 
L 332.056848 211.697408 
" style="fill:none;stroke:#4c72b0;stroke-width:1.5;"/>
    <path clip-path="url(#p42e99d1a87)" d="M 143.626697 197.441335 
L 146.991521 197.541477 
L 150.356345 197.388979 
L 153.721169 196.960068 
L 157.085993 196.194826 
L 160.162987 195.13809 
L 162.133229 194.24384 
L 164.374103 192.952764 
L 165.912998 191.860101 
L 167.211049 190.767437 
L 169.299266 188.582111 
L 170.880479 186.396784 
L 172.08181 184.211457 
L 172.999309 182.026131 
L 173.607931 179.840804 
L 173.910114 177.655477 
L 173.885613 175.470151 
L 173.73039 174.377487 
L 173.459307 173.284824 
L 173.047699 172.192161 
L 171.779369 170.006834 
L 170.020368 167.821508 
L 167.180466 165.063701 
L 165.321572 163.450854 
L 162.133229 160.97716 
L 158.768405 158.621913 
L 155.403581 156.49734 
L 152.038757 154.587207 
L 147.920497 152.524221 
L 145.309109 151.368493 
L 141.944285 150.048658 
L 138.579461 148.925159 
L 135.214636 147.997746 
L 131.849812 147.263159 
L 128.484988 146.728868 
L 125.120164 146.406799 
L 121.75534 146.312296 
L 118.390516 146.466061 
L 115.025692 146.907953 
L 111.660868 147.688588 
L 109.978456 148.237142 
L 107.582755 149.246231 
L 105.584572 150.338894 
L 103.996847 151.431558 
L 102.702085 152.524221 
L 101.566395 153.697665 
L 100.750751 154.709548 
L 99.426244 156.894874 
L 98.577597 159.080201 
L 98.120012 161.265528 
L 97.989679 163.450854 
L 98.201571 165.851691 
L 98.600377 167.821508 
L 99.301735 170.006834 
L 100.26 172.192161 
L 101.566395 174.525494 
L 102.924742 176.562814 
L 104.931219 179.070016 
L 106.651968 180.933467 
L 108.949892 183.118794 
L 111.660868 185.346184 
L 115.025692 187.733132 
L 118.390516 189.77398 
L 122.456531 191.860101 
L 125.120164 193.034508 
L 128.484988 194.313705 
L 131.849812 195.374194 
L 135.256466 196.230754 
L 138.579461 196.874447 
L 142.198634 197.323417 
L 143.626697 197.441335 
L 143.626697 197.441335 
" style="fill:none;stroke:#4c72b0;stroke-width:1.5;"/>
    <path clip-path="url(#p42e99d1a87)" d="M 138.579461 90.297039 
L 141.944285 90.809057 
L 145.309109 91.131754 
L 148.673933 91.269779 
L 152.038757 91.215086 
L 155.403581 90.946093 
L 158.768405 90.425586 
L 162.133229 89.628323 
L 165.498054 88.489136 
L 167.180466 87.766843 
L 168.862878 86.924251 
L 170.663841 85.871759 
L 172.26627 84.779095 
L 174.907692 82.593769 
L 177.010608 80.408442 
L 179.568494 77.130452 
L 184.004586 70.519896 
L 185.686998 68.907542 
L 187.36941 68.223159 
L 189.051822 68.225119 
L 190.734234 68.654443 
L 192.684712 69.481809 
L 195.781471 71.06612 
L 202.571489 74.945126 
L 207.558355 77.653295 
L 210.924728 79.315779 
L 214.288003 80.835873 
L 219.335239 82.795828 
L 222.700064 83.887491 
L 226.064888 84.796024 
L 229.429712 85.530779 
L 232.794536 86.066707 
L 236.15936 86.407297 
L 239.524184 86.530611 
L 242.889008 86.420973 
L 246.253832 86.046807 
L 249.618657 85.373086 
L 252.983481 84.330544 
L 254.665893 83.64241 
L 256.769816 82.593769 
L 258.57088 81.501106 
L 260.090263 80.408442 
L 262.553084 78.223116 
L 264.492867 76.037789 
L 266.824591 72.759799 
L 270.267527 67.296482 
L 271.490013 65.929719 
L 273.172425 65.336316 
L 274.854837 65.629106 
L 278.219662 67.319824 
L 283.266898 70.603988 
L 289.996546 75.054889 
L 295.187518 78.223116 
L 300.091018 80.913239 
L 305.138255 83.331575 
L 310.185491 85.386742 
L 315.232727 87.063961 
L 318.941982 88.057085 
L 321.962375 88.73142 
L 325.327199 89.300809 
L 328.692023 89.7015 
L 332.056848 89.90774 
L 335.421672 89.913938 
L 338.786496 89.70046 
L 342.558664 89.149749 
L 345.516144 88.479036 
L 348.880968 87.363236 
L 350.56338 86.637632 
L 352.245792 85.773084 
L 353.928204 84.739792 
L 355.610616 83.486797 
L 357.293028 81.929983 
L 358.611943 80.408442 
L 359.388 79.315779 
L 360.584992 77.130452 
L 361.407318 74.945126 
L 361.888455 72.759799 
L 362.079148 70.574472 
L 362.01387 68.389146 
L 361.710714 66.203819 
L 361.173321 64.018492 
L 360.412172 61.833166 
L 359.447866 59.647839 
L 357.589817 56.369849 
L 355.246792 53.091859 
L 353.400288 50.906533 
L 350.56338 48.015416 
L 348.880968 46.490935 
L 345.516144 43.767798 
L 343.281468 42.165226 
L 339.870895 39.979899 
L 337.104084 38.400632 
L 333.732617 36.70191 
L 330.374435 35.203644 
L 325.586974 33.42392 
L 323.644787 32.793231 
L 318.597551 31.462662 
L 313.550315 30.524133 
L 310.185491 30.134387 
L 306.820667 29.919736 
L 303.455842 29.91284 
L 299.966522 30.14593 
L 296.726194 30.585046 
L 293.36137 31.334955 
L 289.996546 32.422896 
L 287.666972 33.42392 
L 285.593878 34.516583 
L 283.266898 36.030842 
L 281.081215 37.794573 
L 278.913621 39.979899 
L 277.15608 42.165226 
L 275.034333 45.443216 
L 272.03103 50.906533 
L 271.425948 51.999196 
L 269.807601 53.919331 
L 268.125189 54.492816 
L 266.442777 54.172039 
L 264.190008 53.091859 
L 262.289694 51.999196 
L 259.713129 50.426687 
L 255.380994 47.628543 
L 247.936245 43.19776 
L 242.889008 40.572141 
L 239.173789 38.887236 
L 236.15936 37.668577 
L 232.794536 36.477368 
L 229.429712 35.469896 
L 225.421579 34.516583 
L 222.700064 34.003727 
L 219.335239 33.567087 
L 215.970415 33.33407 
L 212.605591 33.32262 
L 209.240767 33.557082 
L 205.875943 34.069269 
L 202.511119 34.91417 
L 199.146295 36.162526 
L 197.463883 36.972158 
L 195.781471 37.929207 
L 194.099059 39.059119 
L 191.6372 41.072563 
L 189.490614 43.257889 
L 185.953723 47.628543 
L 185.044652 48.721206 
L 184.004586 49.915174 
L 182.322174 51.179509 
L 180.639762 51.657033 
L 178.95735 51.526905 
L 177.081774 50.906533 
L 174.818101 49.813869 
L 172.84992 48.721206 
L 170.54529 47.363495 
L 162.113214 42.165226 
L 156.335658 38.887236 
L 152.008144 36.70191 
L 148.673933 35.170103 
L 143.626697 33.154801 
L 138.579461 31.490999 
L 133.30976 30.14593 
L 130.1674 29.515238 
L 126.802576 29.024886 
L 123.437752 28.690867 
L 120.072928 28.548263 
L 116.708104 28.605148 
L 113.34328 28.883632 
L 109.978456 29.402341 
L 106.613631 30.217186 
L 103.248807 31.382041 
L 101.165335 32.331256 
L 99.198472 33.42392 
L 97.567705 34.516583 
L 96.192949 35.609246 
L 94.014839 37.794573 
L 92.418533 39.979899 
L 91.275821 42.165226 
L 90.485534 44.350553 
L 90.021816 46.535879 
L 89.833336 48.721206 
L 89.88752 50.906533 
L 90.167205 53.091859 
L 90.668833 55.277186 
L 91.471923 57.631762 
L 92.310033 59.647839 
L 93.445301 61.833166 
L 94.836747 64.091619 
L 96.519159 66.452959 
L 98.201571 68.52247 
L 100.067591 70.574472 
L 102.290609 72.759799 
L 104.931219 75.050171 
L 108.296043 77.636453 
L 111.660868 79.90042 
L 115.025692 81.897566 
L 118.454239 83.686432 
L 121.75534 85.222319 
L 126.802576 87.201095 
L 130.1674 88.300049 
L 133.532224 89.222881 
L 136.897049 89.986871 
L 138.579461 90.297039 
L 138.579461 90.297039 
" style="fill:none;stroke:#4c72b0;stroke-width:1.5;"/>
   </g>
   <g id="LineCollection_3">
    <path clip-path="url(#p42e99d1a87)" d="M 330.374435 208.334629 
L 333.73926 208.588212 
L 337.104084 208.673481 
L 340.468908 208.583321 
L 344.205761 208.25005 
L 347.198556 207.821896 
L 350.56338 207.090905 
L 353.988851 206.064724 
L 357.293028 204.744382 
L 359.029791 203.879397 
L 360.916707 202.786734 
L 362.527235 201.69407 
L 365.140179 199.508744 
L 366.20385 198.41608 
L 367.954934 196.230754 
L 369.282415 194.045427 
L 370.27953 191.860101 
L 370.969276 189.674774 
L 371.41626 187.489447 
L 371.620007 185.304121 
L 371.607236 183.118794 
L 371.391542 180.933467 
L 370.974752 178.748141 
L 370.037074 175.470151 
L 369.069913 173.085813 
L 368.153392 171.099497 
L 366.280495 167.821508 
L 363.991263 164.543518 
L 362.251229 162.358191 
L 360.324615 160.172864 
L 357.293028 157.146397 
L 355.610616 155.623535 
L 353.227051 153.616884 
L 350.348376 151.431558 
L 347.168525 149.246231 
L 343.640696 147.060905 
L 339.674484 144.875578 
L 337.104084 143.597242 
L 332.056848 141.378039 
L 327.009611 139.519384 
L 321.962375 137.984982 
L 316.915139 136.7816 
L 311.867903 135.910329 
L 308.503079 135.506922 
L 305.138255 135.26686 
L 301.77343 135.186856 
L 298.408606 135.274429 
L 295.043782 135.548728 
L 291.214794 136.134271 
L 288.314134 136.757269 
L 284.94931 137.753596 
L 281.584486 139.081071 
L 278.770737 140.504925 
L 276.53725 141.881034 
L 273.990165 143.782915 
L 271.622724 145.968241 
L 269.65027 148.153568 
L 267.95834 150.338894 
L 265.715039 153.616884 
L 263.077953 157.624705 
L 261.395541 159.551465 
L 259.713129 160.721641 
L 258.030717 161.208262 
L 256.348305 161.209697 
L 254.665893 160.891579 
L 252.508262 160.172864 
L 249.618657 158.998562 
L 237.841772 153.778558 
L 234.457198 152.524221 
L 231.040215 151.431558 
L 227.7473 150.556525 
L 224.382476 149.862394 
L 221.017652 149.386845 
L 217.652827 149.140477 
L 214.288003 149.149658 
L 210.923179 149.449698 
L 207.558355 150.097258 
L 205.875943 150.578596 
L 203.619874 151.431558 
L 201.443044 152.524221 
L 199.759074 153.616884 
L 198.406333 154.709548 
L 197.299173 155.802211 
L 195.781471 157.774535 
L 195.024021 159.080201 
L 194.161056 161.265528 
L 193.695424 163.450854 
L 193.600427 165.636181 
L 193.85723 167.821508 
L 194.444467 170.006834 
L 195.366103 172.192161 
L 196.620244 174.377487 
L 198.213502 176.562814 
L 200.145128 178.748141 
L 202.511119 180.999274 
L 205.081112 183.118794 
L 208.162489 185.304121 
L 211.765231 187.489447 
L 214.288003 188.822204 
L 217.652827 190.369521 
L 221.579502 191.860101 
L 225.162111 192.952764 
L 227.7473 193.594403 
L 231.112124 194.213874 
L 234.476948 194.604253 
L 237.841772 194.745242 
L 241.206596 194.617484 
L 244.57142 194.184815 
L 247.936245 193.399678 
L 249.618657 192.852385 
L 252.023545 191.860101 
L 254.665893 190.452998 
L 257.441988 188.582111 
L 263.077953 184.101925 
L 264.907287 183.118794 
L 266.442777 182.668906 
L 268.125189 182.622993 
L 270.30777 183.118794 
L 271.490013 183.503113 
L 274.854837 185.118735 
L 291.678958 195.238671 
L 297.604834 198.41608 
L 301.77343 200.409129 
L 306.820667 202.543583 
L 311.867903 204.368918 
L 316.915139 205.871696 
L 322.471981 207.157387 
L 325.327199 207.69056 
L 329.623623 208.25005 
L 330.374435 208.334629 
L 330.374435 208.334629 
" style="fill:none;stroke:#4c72b0;stroke-width:1.5;"/>
    <path clip-path="url(#p42e99d1a87)" d="M 141.944285 191.885494 
L 145.309109 191.91984 
L 148.673933 191.619202 
L 152.038757 190.914169 
L 153.721169 190.371023 
L 155.403581 189.674634 
L 157.391672 188.582111 
L 158.915322 187.489447 
L 160.450817 186.02903 
L 161.071581 185.304121 
L 162.133229 183.6928 
L 162.447128 183.118794 
L 162.915665 182.026131 
L 163.484401 179.840804 
L 163.622154 177.655477 
L 163.370443 175.470151 
L 162.739381 173.284824 
L 161.731411 171.099497 
L 160.349663 168.914171 
L 158.598751 166.728844 
L 156.461395 164.543518 
L 153.721169 162.223624 
L 150.855467 160.172864 
L 148.673933 158.815906 
L 145.080636 156.894874 
L 141.944285 155.492681 
L 138.579461 154.254047 
L 135.214636 153.275239 
L 131.655855 152.524221 
L 128.484988 152.092004 
L 125.120164 151.911697 
L 121.75534 152.043549 
L 118.390516 152.544051 
L 116.708104 152.964021 
L 114.780365 153.616884 
L 112.471657 154.709548 
L 110.783848 155.802211 
L 109.48831 156.894874 
L 108.296043 158.21904 
L 107.683879 159.080201 
L 107.068696 160.172864 
L 106.603697 161.265528 
L 106.272596 162.358191 
L 105.952858 164.543518 
L 106.033268 166.728844 
L 106.47186 168.914171 
L 107.237875 171.099497 
L 108.330021 173.284824 
L 109.739371 175.470151 
L 111.660868 177.846558 
L 113.598388 179.840804 
L 116.124392 182.026131 
L 118.390516 183.698828 
L 120.901834 185.304121 
L 123.437752 186.711279 
L 126.802576 188.281528 
L 130.545136 189.674774 
L 133.532224 190.555212 
L 136.897049 191.291031 
L 140.261873 191.756583 
L 141.944285 191.885494 
L 141.944285 191.885494 
" style="fill:none;stroke:#4c72b0;stroke-width:1.5;"/>
    <path clip-path="url(#p42e99d1a87)" d="M 138.579461 86.161587 
L 141.944285 86.615789 
L 145.309109 86.857426 
L 148.673933 86.879951 
L 152.038757 86.660908 
L 155.403581 86.159517 
L 158.768405 85.327343 
L 162.133229 84.078435 
L 163.815641 83.25586 
L 165.498054 82.265709 
L 167.180466 81.064724 
L 169.140487 79.315779 
L 170.990842 77.130452 
L 172.346273 74.945126 
L 173.331899 72.759799 
L 173.96532 70.574472 
L 174.321318 68.389146 
L 174.368172 66.203819 
L 174.095614 64.018492 
L 173.519645 61.833166 
L 172.5983 59.647839 
L 171.34514 57.462513 
L 169.748967 55.277186 
L 167.180466 52.443487 
L 165.498054 50.819369 
L 163.096435 48.721206 
L 160.26191 46.535879 
L 157.085993 44.345147 
L 153.531317 42.165226 
L 149.443441 39.979899 
L 146.991521 38.820624 
L 143.626697 37.399172 
L 140.261873 36.177643 
L 136.897049 35.148047 
L 133.532224 34.311012 
L 130.1674 33.662177 
L 126.802576 33.210981 
L 123.437752 32.963564 
L 120.072928 32.940759 
L 116.708104 33.165094 
L 113.34328 33.669521 
L 109.969003 34.516583 
L 107.02099 35.609246 
L 104.931219 36.63631 
L 103.075071 37.794573 
L 101.566395 38.962095 
L 99.883983 40.618538 
L 98.664256 42.165226 
L 97.415266 44.350553 
L 96.612584 46.535879 
L 96.162644 48.721206 
L 96.030602 50.906533 
L 96.185856 53.091859 
L 96.606605 55.277186 
L 97.259275 57.462513 
L 98.201571 59.701599 
L 99.303109 61.833166 
L 100.680833 64.018492 
L 102.305499 66.203819 
L 104.931219 69.162927 
L 106.613631 70.815598 
L 108.815566 72.759799 
L 111.660868 74.962047 
L 115.025692 77.230761 
L 118.623479 79.315779 
L 121.75534 80.895372 
L 125.729045 82.593769 
L 128.73128 83.686432 
L 132.320772 84.779095 
L 135.214636 85.508907 
L 138.579461 86.161587 
L 138.579461 86.161587 
" style="fill:none;stroke:#4c72b0;stroke-width:1.5;"/>
    <path clip-path="url(#p42e99d1a87)" d="M 325.327199 84.912722 
L 328.692023 85.236492 
L 332.056848 85.327282 
L 335.421672 85.164498 
L 338.786496 84.709753 
L 342.15132 83.911016 
L 343.833732 83.351112 
L 345.658334 82.593769 
L 347.730842 81.501106 
L 349.37111 80.408442 
L 350.702994 79.315779 
L 352.245792 77.696575 
L 353.448073 76.037789 
L 354.548209 73.852462 
L 355.2118 71.667136 
L 355.509823 69.481809 
L 355.494608 67.296482 
L 355.196666 65.111156 
L 354.628109 62.925829 
L 353.79184 60.740503 
L 352.717127 58.555176 
L 351.385597 56.369849 
L 349.792468 54.184523 
L 347.926923 51.999196 
L 345.516144 49.586131 
L 343.280444 47.628543 
L 340.413436 45.443216 
L 337.095024 43.257889 
L 333.183736 41.072563 
L 330.374435 39.721068 
L 327.009611 38.326024 
L 323.644787 37.155958 
L 320.279963 36.198371 
L 316.915139 35.453014 
L 313.550315 34.911461 
L 310.185491 34.593783 
L 306.351664 34.516583 
L 303.455842 34.662472 
L 300.091018 35.109117 
L 296.726194 35.901188 
L 294.393872 36.70191 
L 291.967414 37.794573 
L 289.996546 38.942696 
L 288.314134 40.173273 
L 286.631722 41.720982 
L 285.301352 43.257889 
L 283.880991 45.443216 
L 282.897761 47.628543 
L 282.27282 49.813869 
L 281.986698 51.999196 
L 282.014553 54.184523 
L 282.357611 56.369849 
L 283.045826 58.555176 
L 284.042792 60.740503 
L 285.392275 62.925829 
L 287.065784 65.111156 
L 289.056139 67.296482 
L 291.678958 69.738334 
L 294.010004 71.667136 
L 297.007742 73.852462 
L 300.411283 76.037789 
L 304.336306 78.223116 
L 306.820667 79.441466 
L 310.185491 80.902822 
L 313.550315 82.150379 
L 316.915139 83.194361 
L 320.279963 84.035688 
L 324.416432 84.779095 
L 325.327199 84.912722 
L 325.327199 84.912722 
" style="fill:none;stroke:#4c72b0;stroke-width:1.5;"/>
    <path clip-path="url(#p42e99d1a87)" d="M 229.429712 80.486548 
L 232.794536 80.965886 
L 236.15936 81.183796 
L 239.524184 81.118471 
L 242.889008 80.72672 
L 244.57142 80.388016 
L 246.253832 79.937519 
L 248.045715 79.315779 
L 250.391991 78.223116 
L 252.167556 77.130452 
L 253.57288 76.037789 
L 254.711557 74.945126 
L 255.641126 73.852462 
L 256.400194 72.759799 
L 257.020664 71.667136 
L 257.879897 69.481809 
L 258.316485 67.296482 
L 258.358654 65.111156 
L 258.010702 62.925829 
L 257.309585 60.740503 
L 256.201955 58.555176 
L 254.723891 56.369849 
L 252.872221 54.184523 
L 250.646193 51.999196 
L 247.936245 49.762558 
L 244.57142 47.396945 
L 241.206596 45.388125 
L 237.841772 43.674148 
L 234.311052 42.165226 
L 231.112124 41.027475 
L 227.376112 39.979899 
L 224.382476 39.340101 
L 221.017652 38.864121 
L 217.652827 38.642096 
L 214.288003 38.706327 
L 210.923179 39.095999 
L 207.558355 39.879885 
L 205.875943 40.456582 
L 204.193531 41.182275 
L 202.398505 42.165226 
L 200.821709 43.257889 
L 199.146295 44.765139 
L 198.515264 45.443216 
L 197.463883 46.836665 
L 196.386568 48.721206 
L 195.601408 50.906533 
L 195.221617 53.091859 
L 195.239695 55.277186 
L 195.658317 57.462513 
L 196.447976 59.647839 
L 197.660125 61.833166 
L 199.260264 64.018492 
L 201.239962 66.203819 
L 203.615125 68.389146 
L 206.402139 70.574472 
L 209.649434 72.759799 
L 213.474555 74.945126 
L 215.970415 76.178074 
L 219.335239 77.616866 
L 222.700064 78.811018 
L 226.064888 79.768402 
L 229.429712 80.486548 
L 229.429712 80.486548 
" style="fill:none;stroke:#4c72b0;stroke-width:1.5;"/>
   </g>
   <g id="LineCollection_4">
    <path clip-path="url(#p42e99d1a87)" d="M 335.421672 206.085227 
L 338.786496 206.016548 
L 342.15132 205.752465 
L 345.516144 205.255851 
L 348.880968 204.502092 
L 352.245792 203.435814 
L 355.610616 201.977364 
L 358.045425 200.601407 
L 359.644024 199.508744 
L 361.011256 198.41608 
L 363.220504 196.230754 
L 364.881822 194.045427 
L 366.113326 191.860101 
L 366.996507 189.674774 
L 367.573703 187.489447 
L 367.89865 185.304121 
L 367.976483 183.118794 
L 367.828285 180.933467 
L 367.387501 178.441564 
L 366.921975 176.562814 
L 366.176531 174.377487 
L 364.708923 171.099497 
L 362.812485 167.821508 
L 360.479878 164.543518 
L 358.684975 162.358191 
L 356.681286 160.172864 
L 353.235609 156.894874 
L 350.56338 154.676846 
L 347.198556 152.163871 
L 343.833732 149.938408 
L 340.468908 147.957594 
L 335.421672 145.367757 
L 330.374435 143.197912 
L 325.327199 141.411639 
L 321.962375 140.41988 
L 317.80581 139.412261 
L 315.232727 138.886274 
L 311.445003 138.319598 
L 308.503079 137.99338 
L 305.138255 137.791971 
L 301.77343 137.770231 
L 298.408606 137.941331 
L 295.043782 138.331317 
L 291.678958 138.942822 
L 288.314134 139.842311 
L 284.94931 141.078014 
L 283.266898 141.850264 
L 281.584486 142.744499 
L 279.896642 143.782915 
L 278.219662 144.984218 
L 275.829774 147.060905 
L 273.84258 149.246231 
L 272.247179 151.431558 
L 270.958235 153.616884 
L 269.807601 156.115253 
L 269.06788 157.987538 
L 268.425876 160.172864 
L 267.784064 163.450854 
L 267.60561 165.636181 
L 267.708949 167.821508 
L 268.190129 170.006834 
L 268.535677 171.099497 
L 269.015556 172.192161 
L 270.356863 174.377487 
L 272.10185 176.562814 
L 275.31769 179.840804 
L 280.367592 184.211457 
L 284.94931 187.706431 
L 288.314134 190.068248 
L 291.678958 192.253433 
L 295.043782 194.265868 
L 300.091018 196.979389 
L 305.138255 199.323484 
L 310.185491 201.322047 
L 315.232727 202.967416 
L 318.632447 203.879397 
L 321.962375 204.640998 
L 327.009611 205.492681 
L 330.374435 205.855862 
L 334.480176 206.064724 
L 335.421672 206.085227 
L 335.421672 206.085227 
" style="fill:none;stroke:#4c72b0;stroke-width:1.5;"/>
    <path clip-path="url(#p42e99d1a87)" d="M 229.429712 189.740132 
L 232.794536 190.177663 
L 236.15936 190.309588 
L 239.524184 190.100837 
L 242.052178 189.674774 
L 242.889008 189.4886 
L 245.700731 188.582111 
L 246.253832 188.358778 
L 248.031328 187.489447 
L 249.757033 186.396784 
L 251.301069 185.135692 
L 252.983481 183.315069 
L 253.901745 182.026131 
L 255.001306 179.840804 
L 255.376826 178.748141 
L 255.630199 177.655477 
L 255.762792 176.562814 
L 255.772126 175.470151 
L 255.651257 174.377487 
L 255.387759 173.284824 
L 254.665893 171.650906 
L 254.395128 171.099497 
L 253.696192 170.006834 
L 251.837286 167.821508 
L 249.454136 165.636181 
L 246.253832 163.204341 
L 242.889008 161.033494 
L 239.339083 159.080201 
L 236.15936 157.589681 
L 232.794536 156.263383 
L 229.429712 155.190834 
L 226.064888 154.374784 
L 222.700064 153.825751 
L 219.335239 153.562251 
L 215.970415 153.618971 
L 212.605591 154.057492 
L 210.066174 154.709548 
L 209.240767 154.983196 
L 207.334821 155.802211 
L 205.478304 156.894874 
L 204.082811 157.987538 
L 202.511119 159.722679 
L 202.183952 160.172864 
L 201.546525 161.265528 
L 200.828707 163.130411 
L 200.732657 163.450854 
L 200.523634 164.543518 
L 200.446363 166.728844 
L 200.785073 168.914171 
L 201.503021 171.099497 
L 202.601817 173.284824 
L 204.193531 175.621816 
L 205.933098 177.655477 
L 208.216071 179.840804 
L 210.986319 182.026131 
L 214.36513 184.211457 
L 217.652827 185.950445 
L 221.261629 187.489447 
L 224.502131 188.582111 
L 227.7473 189.413653 
L 229.429712 189.740132 
L 229.429712 189.740132 
" style="fill:none;stroke:#4c72b0;stroke-width:1.5;"/>
    <path clip-path="url(#p42e99d1a87)" d="M 138.579461 186.541196 
L 140.261873 186.664667 
L 141.944285 186.688073 
L 143.626697 186.602837 
L 145.309109 186.397673 
L 145.313721 186.396784 
L 146.991521 186.041166 
L 148.673933 185.520484 
L 149.20867 185.304121 
L 150.356345 184.771269 
L 151.315832 184.211457 
L 152.038757 183.708676 
L 152.752376 183.118794 
L 153.721169 182.117052 
L 153.798401 182.026131 
L 154.538075 180.933467 
L 155.07128 179.840804 
L 155.403581 178.811761 
L 155.422684 178.748141 
L 155.608562 177.655477 
L 155.654562 176.562814 
L 155.57072 175.470151 
L 155.403581 174.587959 
L 155.363675 174.377487 
L 155.036182 173.284824 
L 154.595207 172.192161 
L 154.042183 171.099497 
L 153.721169 170.571921 
L 153.372569 170.006834 
L 152.587358 168.914171 
L 152.038757 168.245642 
L 151.681809 167.821508 
L 150.650789 166.728844 
L 150.356345 166.44648 
L 149.479684 165.636181 
L 148.673933 164.955613 
L 148.162047 164.543518 
L 146.991521 163.671941 
L 146.676357 163.450854 
L 145.309109 162.553798 
L 144.988756 162.358191 
L 143.626697 161.57216 
L 143.04826 161.265528 
L 141.944285 160.706919 
L 140.778979 160.172864 
L 140.261873 159.944507 
L 138.579461 159.281062 
L 137.99739 159.080201 
L 136.897049 158.710168 
L 135.214636 158.227232 
L 134.201414 157.987538 
L 133.532224 157.831541 
L 131.849812 157.526726 
L 130.1674 157.310765 
L 128.484988 157.18862 
L 126.802576 157.167539 
L 125.120164 157.257397 
L 123.437752 157.471151 
L 121.75534 157.825436 
L 121.206462 157.987538 
L 120.072928 158.363853 
L 118.471892 159.080201 
L 118.390516 159.122601 
L 116.778362 160.172864 
L 116.708104 160.228569 
L 115.605749 161.265528 
L 115.025692 161.970149 
L 114.745384 162.358191 
L 114.14513 163.450854 
L 113.734764 164.543518 
L 113.491553 165.636181 
L 113.397313 166.728844 
L 113.437692 167.821508 
L 113.601595 168.914171 
L 113.880747 170.006834 
L 114.269359 171.099497 
L 114.763878 172.192161 
L 115.025692 172.668966 
L 115.370758 173.284824 
L 116.087156 174.377487 
L 116.708104 175.205399 
L 116.912965 175.470151 
L 117.86207 176.562814 
L 118.390516 177.111808 
L 118.93647 177.655477 
L 120.072928 178.688309 
L 120.142334 178.748141 
L 121.51269 179.840804 
L 121.75534 180.021225 
L 123.063868 180.933467 
L 123.437752 181.178817 
L 124.830777 182.026131 
L 125.120164 182.193405 
L 126.802576 183.084111 
L 126.875024 183.118794 
L 128.484988 183.859386 
L 129.346121 184.211457 
L 130.1674 184.537041 
L 131.849812 185.119479 
L 132.476181 185.304121 
L 133.532224 185.609278 
L 135.214636 186.009146 
L 136.897049 186.322125 
L 137.467754 186.396784 
L 138.579461 186.541196 
" style="fill:none;stroke:#4c72b0;stroke-width:1.5;"/>
    <path clip-path="url(#p42e99d1a87)" d="M 138.579461 82.721024 
L 141.944285 83.12171 
L 145.309109 83.273427 
L 148.673933 83.156434 
L 152.038757 82.730075 
L 153.721169 82.383919 
L 156.700897 81.501106 
L 158.768405 80.654555 
L 160.450817 79.770833 
L 162.133229 78.665983 
L 163.815641 77.258872 
L 164.96881 76.037789 
L 165.80973 74.945126 
L 166.501897 73.852462 
L 167.507058 71.667136 
L 168.092481 69.481809 
L 168.304419 67.296482 
L 168.178584 65.111156 
L 167.725196 62.925829 
L 166.947185 60.740503 
L 165.862083 58.555176 
L 164.460103 56.369849 
L 162.733689 54.184523 
L 160.450817 51.788148 
L 158.278493 49.813869 
L 155.403581 47.562616 
L 152.038757 45.295359 
L 148.491904 43.257889 
L 145.309109 41.68513 
L 141.15863 39.979899 
L 137.91688 38.887236 
L 135.214636 38.124547 
L 131.849812 37.385524 
L 128.484988 36.874865 
L 125.120164 36.598709 
L 121.75534 36.576701 
L 118.390516 36.841852 
L 115.025692 37.444663 
L 113.34328 37.8998 
L 110.676449 38.887236 
L 108.513676 39.979899 
L 106.858235 41.072563 
L 105.540935 42.165226 
L 104.471614 43.257889 
L 103.248807 44.888796 
L 102.339981 46.535879 
L 101.583162 48.721206 
L 101.226884 50.906533 
L 101.22341 53.091859 
L 101.566395 55.389496 
L 102.133114 57.462513 
L 103.016333 59.647839 
L 104.165931 61.833166 
L 105.59722 64.018492 
L 107.315343 66.203819 
L 109.340821 68.389146 
L 111.710199 70.574472 
L 114.461784 72.759799 
L 116.708104 74.318222 
L 120.072928 76.34798 
L 123.782903 78.223116 
L 126.802576 79.516657 
L 130.1674 80.721352 
L 133.532224 81.691225 
L 136.897049 82.434679 
L 138.579461 82.721024 
L 138.579461 82.721024 
" style="fill:none;stroke:#4c72b0;stroke-width:1.5;"/>
    <path clip-path="url(#p42e99d1a87)" d="M 321.962375 80.704602 
L 325.327199 81.192079 
L 328.692023 81.419496 
L 332.056848 81.365316 
L 335.421672 80.984755 
L 338.03495 80.408442 
L 338.786496 80.202214 
L 341.19637 79.315779 
L 343.351317 78.223116 
L 344.971572 77.130452 
L 346.241429 76.037789 
L 347.2564 74.945126 
L 348.060126 73.852462 
L 348.880968 72.367469 
L 349.559964 70.574472 
L 349.963504 68.389146 
L 349.98276 66.203819 
L 349.661944 64.018492 
L 349.021594 61.833166 
L 348.088058 59.647839 
L 346.850643 57.462513 
L 345.310856 55.277186 
L 343.453917 53.091859 
L 341.247349 50.906533 
L 338.639059 48.721206 
L 335.421672 46.45084 
L 331.835804 44.350553 
L 328.692023 42.808149 
L 325.327199 41.436437 
L 321.962375 40.325406 
L 318.597551 39.462639 
L 315.232727 38.850108 
L 311.867903 38.485132 
L 308.503079 38.393585 
L 305.138255 38.604438 
L 301.77343 39.170509 
L 298.986381 39.979899 
L 298.408606 40.185332 
L 296.40758 41.072563 
L 294.528806 42.165226 
L 293.061601 43.257889 
L 291.678958 44.580891 
L 290.942504 45.443216 
L 289.996546 46.846876 
L 289.561063 47.628543 
L 288.719732 49.813869 
L 288.321206 51.999196 
L 288.314134 54.28231 
L 288.632927 56.369849 
L 289.304398 58.555176 
L 290.318605 60.740503 
L 291.678958 62.940684 
L 293.36137 65.125328 
L 295.374974 67.296482 
L 297.779749 69.481809 
L 300.61035 71.667136 
L 303.948307 73.852462 
L 306.820667 75.463927 
L 310.320516 77.130452 
L 313.550315 78.418951 
L 316.915139 79.514099 
L 320.495601 80.408442 
L 321.962375 80.704602 
L 321.962375 80.704602 
" style="fill:none;stroke:#4c72b0;stroke-width:1.5;"/>
    <path clip-path="url(#p42e99d1a87)" d="M 231.112124 76.138178 
L 232.794536 76.288127 
L 234.476948 76.351074 
L 236.15936 76.320904 
L 237.841772 76.189458 
L 238.90662 76.037789 
L 239.524184 75.943448 
L 241.206596 75.56217 
L 242.889008 75.031374 
L 243.106838 74.945126 
L 244.57142 74.293262 
L 245.373391 73.852462 
L 246.253832 73.291103 
L 246.963057 72.759799 
L 247.936245 71.881964 
L 248.147176 71.667136 
L 249.030144 70.574472 
L 249.618657 69.625256 
L 249.701007 69.481809 
L 250.179932 68.389146 
L 250.504832 67.296482 
L 250.690334 66.203819 
L 250.747847 65.111156 
L 250.685948 64.018492 
L 250.510672 62.925829 
L 250.225716 61.833166 
L 249.83257 60.740503 
L 249.618657 60.273704 
L 249.334147 59.647839 
L 248.732077 58.555176 
L 248.021203 57.462513 
L 247.936245 57.348433 
L 247.20441 56.369849 
L 246.275057 55.277186 
L 246.253832 55.254647 
L 245.230246 54.184523 
L 244.57142 53.56164 
L 244.061298 53.091859 
L 242.889008 52.102904 
L 242.761429 51.999196 
L 241.313707 50.906533 
L 241.206596 50.830812 
L 239.696256 49.813869 
L 239.524184 49.704476 
L 237.881957 48.721206 
L 237.841772 48.69827 
L 236.15936 47.800772 
L 235.808386 47.628543 
L 234.476948 46.998406 
L 233.399631 46.535879 
L 232.794536 46.283102 
L 231.112124 45.652688 
L 230.477733 45.443216 
L 229.429712 45.102766 
L 227.7473 44.631785 
L 226.547634 44.350553 
L 226.064888 44.238001 
L 224.382476 43.924299 
L 222.700064 43.690216 
L 221.017652 43.538691 
L 219.335239 43.474391 
L 217.652827 43.503885 
L 215.970415 43.635863 
L 214.288003 43.881412 
L 212.605591 44.254319 
L 212.278812 44.350553 
L 210.923179 44.790749 
L 209.385637 45.443216 
L 209.240767 45.512974 
L 207.558355 46.502174 
L 207.509586 46.535879 
L 206.157375 47.628543 
L 205.875943 47.905552 
L 205.136785 48.721206 
L 204.357513 49.813869 
L 204.193531 50.111195 
L 203.78449 50.906533 
L 203.379336 51.999196 
L 203.120864 53.091859 
L 202.996204 54.184523 
L 202.995523 55.277186 
L 203.111693 56.369849 
L 203.340055 57.462513 
L 203.678264 58.555176 
L 204.1262 59.647839 
L 204.193531 59.780205 
L 204.677434 60.740503 
L 205.336304 61.833166 
L 205.875943 62.599877 
L 206.105859 62.925829 
L 206.983167 64.018492 
L 207.558355 64.654275 
L 207.977412 65.111156 
L 209.09016 66.203819 
L 209.240767 66.339213 
L 210.332906 67.296482 
L 210.923179 67.772385 
L 211.716441 68.389146 
L 212.605591 69.032377 
L 213.257049 69.481809 
L 214.288003 70.150646 
L 214.980954 70.574472 
L 215.970415 71.149268 
L 216.927321 71.667136 
L 217.652827 72.043599 
L 219.153017 72.759799 
L 219.335239 72.843967 
L 221.017652 73.553723 
L 221.80863 73.852462 
L 222.700064 74.181883 
L 224.382476 74.729678 
L 225.149725 74.945126 
L 226.064888 75.199342 
L 227.7473 75.590452 
L 229.429712 75.904388 
L 230.390685 76.037789 
L 231.112124 76.138178 
" style="fill:none;stroke:#4c72b0;stroke-width:1.5;"/>
   </g>
   <g id="LineCollection_5">
    <path clip-path="url(#p42e99d1a87)" d="M 335.421672 203.886461 
L 338.786496 203.750144 
L 342.15132 203.390841 
L 345.516144 202.763538 
L 348.880968 201.842961 
L 350.56338 201.247904 
L 352.245792 200.539312 
L 354.292907 199.508744 
L 356.089124 198.41608 
L 357.596493 197.323417 
L 358.97544 196.13748 
L 360.922455 194.045427 
L 362.42455 191.860101 
L 363.516371 189.674774 
L 364.246656 187.489447 
L 364.688564 185.304121 
L 364.856548 183.118794 
L 364.780016 180.933467 
L 364.473253 178.748141 
L 363.944255 176.562814 
L 363.235491 174.377487 
L 362.292637 172.192161 
L 361.180932 170.006834 
L 359.103093 166.728844 
L 356.579546 163.450854 
L 353.535143 160.172864 
L 350.56338 157.434307 
L 348.590608 155.802211 
L 345.516144 153.510396 
L 342.15132 151.285312 
L 338.65177 149.246231 
L 334.344569 147.060905 
L 331.900087 145.968241 
L 328.692023 144.674039 
L 325.327199 143.49341 
L 321.962375 142.486639 
L 318.348782 141.597588 
L 315.232727 140.963518 
L 311.867903 140.464091 
L 308.503079 140.119657 
L 305.138255 139.96416 
L 301.77343 140.003514 
L 298.408606 140.257309 
L 295.043782 140.74613 
L 291.388029 141.597588 
L 288.314134 142.60655 
L 285.618397 143.782915 
L 283.266898 145.077894 
L 281.584486 146.207256 
L 279.229974 148.153568 
L 277.193959 150.338894 
L 275.625264 152.524221 
L 274.426481 154.709548 
L 273.529537 156.894874 
L 272.899678 159.080201 
L 272.503531 161.265528 
L 272.358002 163.450854 
L 272.46264 165.636181 
L 272.840183 167.821508 
L 273.486769 170.006834 
L 274.419381 172.192161 
L 275.645749 174.377487 
L 277.171652 176.562814 
L 278.969341 178.748141 
L 282.151243 182.026131 
L 285.876655 185.304121 
L 290.182347 188.582111 
L 293.405358 190.767437 
L 296.964527 192.952764 
L 300.961181 195.13809 
L 303.455842 196.367521 
L 308.158019 198.41608 
L 311.041517 199.508744 
L 314.313773 200.601407 
L 316.915139 201.372298 
L 321.962375 202.566696 
L 327.009611 203.396462 
L 330.374435 203.727884 
L 333.73926 203.879397 
L 335.421672 203.886461 
L 335.421672 203.886461 
" style="fill:none;stroke:#4c72b0;stroke-width:1.5;"/>
    <path clip-path="url(#p42e99d1a87)" d="M 229.429712 185.472689 
L 231.112124 185.680289 
L 232.794536 185.789327 
L 234.476948 185.792455 
L 236.15936 185.679948 
L 237.841772 185.439509 
L 238.454509 185.304121 
L 239.524184 185.040298 
L 241.206596 184.457242 
L 241.757557 184.211457 
L 242.889008 183.623272 
L 243.680558 183.118794 
L 244.57142 182.430875 
L 245.023447 182.026131 
L 245.997254 180.933467 
L 246.253832 180.556942 
L 246.699966 179.840804 
L 247.188824 178.748141 
L 247.497462 177.655477 
L 247.642374 176.562814 
L 247.635796 175.470151 
L 247.486164 174.377487 
L 247.198422 173.284824 
L 246.774201 172.192161 
L 246.253832 171.180584 
L 246.212254 171.099497 
L 245.518249 170.006834 
L 244.685292 168.914171 
L 244.57142 168.785338 
L 243.711555 167.821508 
L 242.889008 167.014586 
L 242.591003 166.728844 
L 241.316443 165.636181 
L 241.206596 165.550636 
L 239.866191 164.543518 
L 239.524184 164.30749 
L 238.220036 163.450854 
L 237.841772 163.219622 
L 236.340517 162.358191 
L 236.15936 162.260298 
L 234.476948 161.417629 
L 234.143474 161.265528 
L 232.794536 160.678314 
L 231.495711 160.172864 
L 231.112124 160.028941 
L 229.429712 159.475921 
L 228.016796 159.080201 
L 227.7473 159.006557 
L 226.064888 158.632318 
L 224.382476 158.345257 
L 222.700064 158.150255 
L 221.017652 158.05434 
L 219.335239 158.067041 
L 217.652827 158.20082 
L 215.970415 158.471632 
L 214.288003 158.899597 
L 213.768941 159.080201 
L 212.605591 159.544458 
L 211.404033 160.172864 
L 210.923179 160.473069 
L 209.886637 161.265528 
L 209.240767 161.886258 
L 208.819508 162.358191 
L 208.069787 163.450854 
L 207.558355 164.511606 
L 207.544474 164.543518 
L 207.22867 165.636181 
L 207.073605 166.728844 
L 207.064284 167.821508 
L 207.189223 168.914171 
L 207.440005 170.006834 
L 207.558355 170.352812 
L 207.817359 171.099497 
L 208.314311 172.192161 
L 208.925008 173.284824 
L 209.240767 173.761092 
L 209.660259 174.377487 
L 210.517319 175.470151 
L 210.923179 175.927847 
L 211.507867 176.562814 
L 212.605591 177.633284 
L 212.62949 177.655477 
L 213.919131 178.748141 
L 214.288003 179.036022 
L 215.383926 179.840804 
L 215.970415 180.241997 
L 217.057853 180.933467 
L 217.652827 181.289661 
L 218.993582 182.026131 
L 219.335239 182.20461 
L 221.017652 183.000161 
L 221.29967 183.118794 
L 222.700064 183.685496 
L 224.189992 184.211457 
L 224.382476 184.277439 
L 226.064888 184.766522 
L 227.7473 185.16763 
L 228.493218 185.304121 
L 229.429712 185.472689 
" style="fill:none;stroke:#4c72b0;stroke-width:1.5;"/>
    <path clip-path="url(#p42e99d1a87)" d="M 135.214636 180.127174 
L 136.897049 180.368218 
L 138.579461 180.446855 
L 140.261873 180.337298 
L 141.944285 180.004711 
L 142.427323 179.840804 
L 143.626697 179.322404 
L 144.523107 178.748141 
L 145.309109 178.041431 
L 145.637258 177.655477 
L 146.238788 176.562814 
L 146.532263 175.470151 
L 146.566622 174.377487 
L 146.378586 173.284824 
L 145.995404 172.192161 
L 145.436828 171.099497 
L 145.309109 170.909596 
L 144.652664 170.006834 
L 143.697931 168.914171 
L 143.626697 168.844897 
L 142.471692 167.821508 
L 141.944285 167.408379 
L 140.973759 166.728844 
L 140.261873 166.279889 
L 139.09401 165.636181 
L 138.579461 165.376542 
L 136.897049 164.658195 
L 136.561401 164.543518 
L 135.214636 164.116412 
L 133.532224 163.718537 
L 131.849812 163.468547 
L 131.461576 163.450854 
L 130.1674 163.395423 
L 129.273517 163.450854 
L 128.484988 163.509377 
L 126.802576 163.873212 
L 125.120164 164.537879 
L 125.110221 164.543518 
L 123.66313 165.636181 
L 123.437752 165.888574 
L 122.858787 166.728844 
L 122.427717 167.821508 
L 122.274849 168.914171 
L 122.35779 170.006834 
L 122.644732 171.099497 
L 123.112143 172.192161 
L 123.437752 172.748197 
L 123.778667 173.284824 
L 124.643246 174.377487 
L 125.120164 174.8862 
L 125.723124 175.470151 
L 126.802576 176.384786 
L 127.038532 176.562814 
L 128.484988 177.537093 
L 128.686977 177.655477 
L 130.1674 178.443662 
L 130.843623 178.748141 
L 131.849812 179.166064 
L 133.532224 179.731793 
L 133.973726 179.840804 
L 135.214636 180.127174 
" style="fill:none;stroke:#4c72b0;stroke-width:1.5;"/>
    <path clip-path="url(#p42e99d1a87)" d="M 138.579461 79.538535 
L 141.944285 79.866371 
L 145.309109 79.89753 
L 148.673933 79.591905 
L 150.356345 79.292294 
L 152.038757 78.875351 
L 153.981972 78.223116 
L 156.320087 77.130452 
L 158.037544 76.037789 
L 159.363646 74.945126 
L 160.450817 73.805228 
L 161.237034 72.759799 
L 162.133229 71.14369 
L 162.389003 70.574472 
L 162.7573 69.481809 
L 163.145326 67.296482 
L 163.122977 65.111156 
L 162.727949 62.925829 
L 161.975842 60.740503 
L 160.887637 58.555176 
L 159.451705 56.369849 
L 157.658092 54.184523 
L 155.403581 51.928778 
L 152.887994 49.813869 
L 149.786006 47.628543 
L 146.991521 45.959572 
L 143.626697 44.264624 
L 140.261873 42.867279 
L 136.897049 41.744598 
L 133.532224 40.885139 
L 130.1674 40.286256 
L 126.802576 39.960661 
L 123.437752 39.92839 
L 120.072928 40.234146 
L 118.390516 40.535726 
L 116.327015 41.072563 
L 115.025692 41.511639 
L 113.34328 42.23462 
L 111.540974 43.257889 
L 109.978456 44.436131 
L 108.296043 46.215121 
L 108.048511 46.535879 
L 107.35307 47.628543 
L 106.613631 49.273631 
L 106.153857 50.906533 
L 105.942493 53.091859 
L 106.11795 55.277186 
L 106.644522 57.462513 
L 107.492134 59.647839 
L 108.665028 61.833166 
L 110.162022 64.018492 
L 111.99907 66.203819 
L 114.211375 68.389146 
L 116.857361 70.574472 
L 120.072928 72.783839 
L 123.437752 74.69254 
L 126.802576 76.26325 
L 130.1674 77.53774 
L 133.532224 78.537328 
L 137.188373 79.315779 
L 138.579461 79.538535 
L 138.579461 79.538535 
" style="fill:none;stroke:#4c72b0;stroke-width:1.5;"/>
    <path clip-path="url(#p42e99d1a87)" d="M 321.962375 77.212545 
L 323.644787 77.462187 
L 325.327199 77.634773 
L 327.009611 77.727176 
L 328.692023 77.73456 
L 330.374435 77.650181 
L 332.056848 77.465125 
L 333.73926 77.167954 
L 333.894877 77.130452 
L 335.421672 76.733336 
L 337.104084 76.145068 
L 337.353059 76.037789 
L 338.786496 75.345864 
L 339.46987 74.945126 
L 340.468908 74.267874 
L 340.995043 73.852462 
L 342.147931 72.759799 
L 342.15132 72.755937 
L 343.00877 71.667136 
L 343.671381 70.574472 
L 343.833732 70.22339 
L 344.153176 69.481809 
L 344.485039 68.389146 
L 344.686261 67.296482 
L 344.768641 66.203819 
L 344.741478 65.111156 
L 344.611868 64.018492 
L 344.38495 62.925829 
L 344.064074 61.833166 
L 343.833732 61.224742 
L 343.651468 60.740503 
L 343.14978 59.647839 
L 342.558383 58.555176 
L 342.15132 57.902024 
L 341.875691 57.462513 
L 341.101723 56.369849 
L 340.468908 55.571384 
L 340.231832 55.277186 
L 339.262816 54.184523 
L 338.786496 53.693356 
L 338.187139 53.091859 
L 337.104084 52.0917 
L 337.000214 51.999196 
L 335.68641 50.906533 
L 335.421672 50.699943 
L 334.23155 49.813869 
L 333.73926 49.467549 
L 332.616496 48.721206 
L 332.056848 48.366612 
L 330.811567 47.628543 
L 330.374435 47.379486 
L 328.774729 46.535879 
L 328.692023 46.493603 
L 327.009611 45.701062 
L 326.404943 45.443216 
L 325.327199 44.992986 
L 323.644787 44.365787 
L 323.59863 44.350553 
L 321.962375 43.815849 
L 320.279963 43.341566 
L 319.928391 43.257889 
L 318.597551 42.940953 
L 316.915139 42.615176 
L 315.232727 42.364601 
L 313.550315 42.190919 
L 313.080863 42.165226 
L 311.867903 42.097763 
L 310.185491 42.089829 
L 308.658707 42.165226 
L 308.503079 42.17323 
L 306.820667 42.358671 
L 305.138255 42.657191 
L 303.455842 43.083321 
L 302.921965 43.257889 
L 301.77343 43.670117 
L 300.279515 44.350553 
L 300.091018 44.447427 
L 298.478974 45.443216 
L 298.408606 45.493846 
L 297.1522 46.535879 
L 296.726194 46.963374 
L 296.130931 47.628543 
L 295.344478 48.721206 
L 295.043782 49.255718 
L 294.750381 49.813869 
L 294.319436 50.906533 
L 294.028016 51.999196 
L 293.863147 53.091859 
L 293.814629 54.184523 
L 293.874696 55.277186 
L 294.037771 56.369849 
L 294.300281 57.462513 
L 294.660533 58.555176 
L 295.043782 59.469745 
L 295.117527 59.647839 
L 295.664716 60.740503 
L 296.308975 61.833166 
L 296.726194 62.448393 
L 297.050038 62.925829 
L 297.886996 64.018492 
L 298.408606 64.627717 
L 298.827146 65.111156 
L 299.871903 66.203819 
L 300.091018 66.414359 
L 301.029535 67.296482 
L 301.77343 67.940362 
L 302.308725 68.389146 
L 303.455842 69.284147 
L 303.720032 69.481809 
L 305.138255 70.479105 
L 305.281147 70.574472 
L 306.820667 71.54933 
L 307.018789 71.667136 
L 308.503079 72.512099 
L 308.971645 72.759799 
L 310.185491 73.379518 
L 311.194839 73.852462 
L 311.867903 74.159631 
L 313.550315 74.857084 
L 313.786247 74.945126 
L 315.232727 75.47658 
L 316.915139 76.020545 
L 316.97649 76.037789 
L 318.597551 76.491238 
L 320.279963 76.88832 
L 321.538235 77.130452 
L 321.962375 77.212545 
" style="fill:none;stroke:#4c72b0;stroke-width:1.5;"/>
    <path clip-path="url(#p42e99d1a87)" d="M 227.7473 70.631558 
L 229.429712 70.90227 
L 231.112124 71.055853 
L 232.794536 71.080522 
L 234.476948 70.960463 
L 236.15936 70.675041 
L 236.530534 70.574472 
L 237.841772 70.157081 
L 239.297489 69.481809 
L 239.524184 69.351788 
L 240.813454 68.389146 
L 241.206596 67.99907 
L 241.790394 67.296482 
L 242.424811 66.203819 
L 242.808765 65.111156 
L 242.889008 64.600429 
L 242.970443 64.018492 
L 242.950538 62.925829 
L 242.889008 62.557762 
L 242.763622 61.833166 
L 242.418326 60.740503 
L 241.92959 59.647839 
L 241.304383 58.555176 
L 241.206596 58.415275 
L 240.508774 57.462513 
L 239.576975 56.369849 
L 239.524184 56.315714 
L 238.449426 55.277186 
L 237.841772 54.751218 
L 237.1374 54.184523 
L 236.15936 53.468724 
L 235.597041 53.091859 
L 234.476948 52.3995 
L 233.757942 51.999196 
L 232.794536 51.498241 
L 231.507175 50.906533 
L 231.112124 50.734964 
L 229.429712 50.107141 
L 228.484777 49.813869 
L 227.7473 49.594968 
L 226.064888 49.204003 
L 224.382476 48.923485 
L 222.700064 48.762818 
L 221.017652 48.735148 
L 219.335239 48.85808 
L 217.652827 49.154601 
L 215.970415 49.654234 
L 215.587578 49.813869 
L 214.288003 50.471185 
L 213.634416 50.906533 
L 212.605591 51.791142 
L 212.407671 51.999196 
L 211.632115 53.091859 
L 211.127852 54.184523 
L 210.923179 54.997967 
L 210.860936 55.277186 
L 210.795717 56.369849 
L 210.898088 57.462513 
L 210.923179 57.567279 
L 211.167918 58.555176 
L 211.588288 59.647839 
L 212.148929 60.740503 
L 212.605591 61.454897 
L 212.85884 61.833166 
L 213.730278 62.925829 
L 214.288003 63.53225 
L 214.762432 64.018492 
L 215.963959 65.111156 
L 215.970415 65.116444 
L 217.397464 66.203819 
L 217.652827 66.382026 
L 219.082221 67.296482 
L 219.335239 67.446673 
L 221.017652 68.347114 
L 221.10677 68.389146 
L 222.700064 69.09545 
L 223.710542 69.481809 
L 224.382476 69.726059 
L 226.064888 70.233045 
L 227.498224 70.574472 
L 227.7473 70.631558 
" style="fill:none;stroke:#4c72b0;stroke-width:1.5;"/>
   </g>
   <g id="LineCollection_6">
    <path clip-path="url(#p42e99d1a87)" d="M 332.056848 201.758403 
L 335.421672 201.761612 
L 338.786496 201.543363 
L 342.15132 201.074416 
L 345.516144 200.304526 
L 348.880968 199.171624 
L 350.596871 198.41608 
L 352.639969 197.323417 
L 354.312849 196.230754 
L 355.708551 195.13809 
L 357.293028 193.618649 
L 358.743438 191.860101 
L 359.469261 190.767437 
L 360.575448 188.582111 
L 361.32054 186.396784 
L 361.735745 184.211457 
L 361.866412 182.026131 
L 361.74302 179.840804 
L 361.380062 177.655477 
L 360.657853 175.135217 
L 359.979689 173.284824 
L 358.94068 171.099497 
L 357.713242 168.914171 
L 355.439395 165.636181 
L 353.646118 163.450854 
L 351.61225 161.265528 
L 348.880968 158.708286 
L 346.713206 156.894874 
L 343.778492 154.709548 
L 340.45646 152.524221 
L 336.646739 150.338894 
L 333.73926 148.869163 
L 329.58942 147.060905 
L 326.690197 145.968241 
L 323.336219 144.875578 
L 320.279963 144.025887 
L 315.232727 142.95731 
L 311.867903 142.470567 
L 308.503079 142.165817 
L 305.138255 142.061472 
L 301.77343 142.169419 
L 298.408606 142.516972 
L 295.043782 143.128819 
L 291.678958 144.067443 
L 288.314134 145.410475 
L 286.631722 146.277022 
L 284.94931 147.30775 
L 283.266898 148.545914 
L 281.303329 150.338894 
L 279.479388 152.524221 
L 278.133955 154.709548 
L 277.147027 156.894874 
L 276.503535 159.080201 
L 276.119775 161.265528 
L 276.014114 163.450854 
L 276.176253 165.636181 
L 276.607751 167.821508 
L 277.269927 170.006834 
L 278.242214 172.192161 
L 279.439755 174.377487 
L 281.771392 177.655477 
L 283.639702 179.840804 
L 285.76924 182.026131 
L 289.479004 185.304121 
L 293.36137 188.238744 
L 296.726194 190.474243 
L 300.091018 192.464959 
L 303.455842 194.230407 
L 307.846469 196.230754 
L 310.601438 197.323417 
L 313.722803 198.41608 
L 317.408968 199.508744 
L 320.279963 200.228241 
L 325.327199 201.162726 
L 328.692023 201.553934 
L 332.056848 201.758403 
L 332.056848 201.758403 
" style="fill:none;stroke:#4c72b0;stroke-width:1.5;"/>
    <path clip-path="url(#p42e99d1a87)" d="M 226.064888 179.119473 
L 227.7473 179.523797 
L 229.429712 179.77104 
L 231.112124 179.836677 
L 232.794536 179.687146 
L 234.476948 179.277373 
L 235.72446 178.748141 
L 236.15936 178.500165 
L 237.198878 177.655477 
L 237.841772 176.84918 
L 238.021227 176.562814 
L 238.405131 175.470151 
L 238.50721 174.377487 
L 238.366549 173.284824 
L 238.011856 172.192161 
L 237.841772 171.859792 
L 237.421995 171.099497 
L 236.624949 170.006834 
L 236.15936 169.489434 
L 235.591757 168.914171 
L 234.476948 167.950622 
L 234.309597 167.821508 
L 232.794536 166.797544 
L 232.677725 166.728844 
L 231.112124 165.904483 
L 230.50776 165.636181 
L 229.429712 165.199749 
L 227.7473 164.653044 
L 227.276036 164.543518 
L 226.064888 164.282928 
L 224.382476 164.075553 
L 222.700064 164.042278 
L 221.017652 164.214918 
L 219.68635 164.543518 
L 219.335239 164.654218 
L 217.652827 165.537598 
L 217.521147 165.636181 
L 216.487892 166.728844 
L 215.970415 167.668786 
L 215.903791 167.821508 
L 215.692057 168.914171 
L 215.727551 170.006834 
L 215.970415 171.067491 
L 215.978389 171.099497 
L 216.472368 172.192161 
L 217.150187 173.284824 
L 217.652827 173.926973 
L 218.041536 174.377487 
L 219.164445 175.470151 
L 219.335239 175.613667 
L 220.601167 176.562814 
L 221.017652 176.841176 
L 222.414792 177.655477 
L 222.700064 177.806351 
L 224.382476 178.553879 
L 224.92925 178.748141 
L 226.064888 179.119473 
" style="fill:none;stroke:#4c72b0;stroke-width:1.5;"/>
    <path clip-path="url(#p42e99d1a87)" d="M 138.579461 76.130968 
L 140.261873 76.283613 
L 141.944285 76.3478 
L 143.626697 76.31744 
L 145.309109 76.184247 
L 146.323712 76.037789 
L 146.991521 75.934307 
L 148.673933 75.546519 
L 150.356345 75.005379 
L 150.505679 74.945126 
L 152.038757 74.248175 
L 152.742205 73.852462 
L 153.721169 73.211265 
L 154.306151 72.759799 
L 155.403581 71.733597 
L 155.46628 71.667136 
L 156.317756 70.574472 
L 156.96221 69.481809 
L 157.085993 69.199482 
L 157.416296 68.389146 
L 157.714829 67.296482 
L 157.876579 66.203819 
L 157.913131 65.111156 
L 157.833355 64.018492 
L 157.643711 62.925829 
L 157.348474 61.833166 
L 157.085993 61.114493 
L 156.949858 60.740503 
L 156.450551 59.647839 
L 155.851179 58.555176 
L 155.403581 57.856314 
L 155.149138 57.462513 
L 154.34394 56.369849 
L 153.721169 55.619764 
L 153.431059 55.277186 
L 152.405962 54.184523 
L 152.038757 53.827504 
L 151.258447 53.091859 
L 150.356345 52.310408 
L 149.982066 51.999196 
L 148.673933 50.988841 
L 148.561742 50.906533 
L 146.991521 49.825488 
L 146.973559 49.813869 
L 145.309109 48.793666 
L 145.181831 48.721206 
L 143.626697 47.874432 
L 143.134538 47.628543 
L 141.944285 47.054666 
L 140.756152 46.535879 
L 140.261873 46.325787 
L 138.579461 45.685025 
L 137.85763 45.443216 
L 136.897049 45.126547 
L 135.214636 44.649031 
L 133.957789 44.350553 
L 133.532224 44.25002 
L 131.849812 43.932429 
L 130.1674 43.69557 
L 128.484988 43.542354 
L 126.802576 43.477547 
L 125.120164 43.507984 
L 123.437752 43.642859 
L 121.75534 43.894118 
L 120.072928 44.276949 
L 119.829671 44.350553 
L 118.390516 44.832095 
L 116.998533 45.443216 
L 116.708104 45.588602 
L 115.170441 46.535879 
L 115.025692 46.641348 
L 113.87209 47.628543 
L 113.34328 48.189109 
L 112.899817 48.721206 
L 112.181319 49.813869 
L 111.660868 50.891621 
L 111.654243 50.906533 
L 111.305558 51.999196 
L 111.098375 53.091859 
L 111.019473 54.184523 
L 111.058451 55.277186 
L 111.207369 56.369849 
L 111.460474 57.462513 
L 111.660868 58.079636 
L 111.815397 58.555176 
L 112.269465 59.647839 
L 112.819042 60.740503 
L 113.34328 61.628094 
L 113.465963 61.833166 
L 114.214548 62.925829 
L 115.025692 63.973307 
L 115.061514 64.018492 
L 116.020794 65.111156 
L 116.708104 65.821443 
L 117.090999 66.203819 
L 118.282246 67.296482 
L 118.390516 67.388915 
L 119.616203 68.389146 
L 120.072928 68.737503 
L 121.104005 69.481809 
L 121.75534 69.925414 
L 122.772824 70.574472 
L 123.437752 70.978309 
L 124.662067 71.667136 
L 125.120164 71.914692 
L 126.802576 72.747308 
L 126.830378 72.759799 
L 128.484988 73.481585 
L 129.439442 73.852462 
L 130.1674 74.12945 
L 131.849812 74.691917 
L 132.730793 74.945126 
L 133.532224 75.173105 
L 135.214636 75.572659 
L 136.897049 75.892775 
L 137.922392 76.037789 
L 138.579461 76.130968 
" style="fill:none;stroke:#4c72b0;stroke-width:1.5;"/>
    <path clip-path="url(#p42e99d1a87)" d="M 320.279963 72.997542 
L 321.962375 73.297861 
L 323.644787 73.501839 
L 325.327199 73.602919 
L 327.009611 73.591799 
L 328.692023 73.455967 
L 330.374435 73.179087 
L 331.985478 72.759799 
L 332.056848 72.738733 
L 333.73926 72.060049 
L 334.480682 71.667136 
L 335.421672 71.070053 
L 336.056876 70.574472 
L 337.104084 69.541663 
L 337.155919 69.481809 
L 337.898562 68.389146 
L 338.41767 67.296482 
L 338.742667 66.203819 
L 338.786496 65.902112 
L 338.891777 65.111156 
L 338.894469 64.018492 
L 338.786496 63.111429 
L 338.764043 62.925829 
L 338.502143 61.833166 
L 338.121613 60.740503 
L 337.627789 59.647839 
L 337.104084 58.701585 
L 337.020651 58.555176 
L 336.283997 57.462513 
L 335.439152 56.369849 
L 335.421672 56.349774 
L 334.448226 55.277186 
L 333.73926 54.573189 
L 333.326884 54.184523 
L 332.056848 53.091859 
L 330.593035 51.999196 
L 330.374435 51.846939 
L 328.917978 50.906533 
L 328.692023 50.769002 
L 327.009611 49.831659 
L 326.974219 49.813869 
L 325.327199 49.024585 
L 324.613404 48.721206 
L 323.644787 48.324915 
L 321.962375 47.72619 
L 321.637269 47.628543 
L 320.279963 47.231733 
L 318.597551 46.831257 
L 316.979906 46.535879 
L 316.915139 46.524241 
L 315.232727 46.322482 
L 313.550315 46.222819 
L 311.867903 46.233472 
L 310.185491 46.365581 
L 309.099396 46.535879 
L 308.503079 46.639538 
L 306.820667 47.09047 
L 305.406117 47.628543 
L 305.138255 47.74694 
L 303.455842 48.711768 
L 303.442396 48.721206 
L 302.153615 49.813869 
L 301.77343 50.228745 
L 301.237356 50.906533 
L 300.596075 51.999196 
L 300.164323 53.091859 
L 300.091018 53.405242 
L 299.923938 54.184523 
L 299.840845 55.277186 
L 299.898071 56.369849 
L 300.085641 57.462513 
L 300.091018 57.481159 
L 300.405092 58.555176 
L 300.843488 59.647839 
L 301.397069 60.740503 
L 301.77343 61.355815 
L 302.073152 61.833166 
L 302.873799 62.925829 
L 303.455842 63.622064 
L 303.800003 64.018492 
L 304.862562 65.111156 
L 305.138255 65.367982 
L 306.080995 66.203819 
L 306.820667 66.80478 
L 307.463982 67.296482 
L 308.503079 68.032944 
L 309.043947 68.389146 
L 310.185491 69.094008 
L 310.870428 69.481809 
L 311.867903 70.016843 
L 313.018197 70.574472 
L 313.550315 70.82128 
L 315.232727 71.515257 
L 315.655899 71.667136 
L 316.915139 72.104499 
L 318.597551 72.600055 
L 319.264976 72.759799 
L 320.279963 72.997542 
" style="fill:none;stroke:#4c72b0;stroke-width:1.5;"/>
   </g>
   <g id="LineCollection_7">
    <path clip-path="url(#p42e99d1a87)" d="M 327.009611 198.514831 
L 330.374435 198.763012 
L 333.73926 198.783373 
L 337.104084 198.553465 
L 340.468908 198.04456 
L 343.833732 197.190418 
L 346.439096 196.230754 
L 348.699017 195.13809 
L 350.474535 194.045427 
L 351.91826 192.952764 
L 353.115842 191.860101 
L 354.113782 190.767437 
L 354.949298 189.674774 
L 356.212756 187.489447 
L 357.029633 185.304121 
L 357.481999 183.118794 
L 357.62031 180.933467 
L 357.468205 178.748141 
L 357.057074 176.562814 
L 356.402556 174.377487 
L 355.490579 172.192161 
L 354.356914 170.006834 
L 352.979531 167.821508 
L 351.352684 165.636181 
L 348.880968 162.842398 
L 347.198556 161.178197 
L 344.827122 159.080201 
L 341.996002 156.894874 
L 338.748989 154.709548 
L 334.972992 152.524221 
L 332.056848 151.057052 
L 327.804412 149.246231 
L 324.75714 148.153568 
L 321.962375 147.288723 
L 318.597551 146.436208 
L 315.232727 145.786824 
L 311.867903 145.331878 
L 308.503079 145.09206 
L 305.138255 145.074254 
L 301.77343 145.301694 
L 298.408606 145.816761 
L 295.043782 146.667223 
L 293.36137 147.248509 
L 291.260915 148.153568 
L 289.245645 149.246231 
L 287.618285 150.338894 
L 286.272992 151.431558 
L 284.94931 152.744055 
L 283.400533 154.709548 
L 282.725222 155.802211 
L 281.719422 157.987538 
L 281.079106 160.172864 
L 280.771324 162.358191 
L 280.764744 164.543518 
L 281.042325 166.728844 
L 281.605053 168.914171 
L 282.404861 171.099497 
L 283.496671 173.284824 
L 284.94931 175.608135 
L 286.631722 177.853411 
L 288.359578 179.840804 
L 290.525542 182.026131 
L 293.36137 184.494642 
L 295.827605 186.396784 
L 299.043076 188.582111 
L 302.744669 190.767437 
L 305.138255 192.018535 
L 308.503079 193.581931 
L 312.474192 195.13809 
L 315.797533 196.230754 
L 318.597551 197.013506 
L 321.962375 197.765135 
L 326.205873 198.41608 
L 327.009611 198.514831 
L 327.009611 198.514831 
" style="fill:none;stroke:#4c72b0;stroke-width:1.5;"/>
    <path clip-path="url(#p42e99d1a87)" d="M 135.214636 69.542408 
L 136.897049 69.802987 
L 138.579461 69.929853 
L 140.261873 69.906949 
L 141.944285 69.71262 
L 142.953292 69.481809 
L 143.626697 69.297613 
L 145.309109 68.577104 
L 145.627548 68.389146 
L 146.991521 67.341387 
L 147.037374 67.296482 
L 147.863277 66.203819 
L 148.381439 65.111156 
L 148.640285 64.018492 
L 148.673933 63.021947 
L 148.676768 62.925829 
L 148.673933 62.90505 
L 148.520111 61.833166 
L 148.190921 60.740503 
L 147.705157 59.647839 
L 147.073763 58.555176 
L 146.991521 58.440069 
L 146.248239 57.462513 
L 145.309109 56.402599 
L 145.277777 56.369849 
L 144.079043 55.277186 
L 143.626697 54.907717 
L 142.656996 54.184523 
L 141.944285 53.700552 
L 140.945483 53.091859 
L 140.261873 52.707199 
L 138.831677 51.999196 
L 138.579461 51.882435 
L 136.897049 51.219516 
L 135.931726 50.906533 
L 135.214636 50.686396 
L 133.532224 50.291346 
L 131.849812 50.020612 
L 130.1674 49.887494 
L 128.484988 49.910533 
L 126.802576 50.114831 
L 125.120164 50.533864 
L 124.16542 50.906533 
L 123.437752 51.259829 
L 122.339747 51.999196 
L 121.75534 52.529413 
L 121.265017 53.091859 
L 120.613762 54.184523 
L 120.242144 55.277186 
L 120.107794 56.369849 
L 120.178179 57.462513 
L 120.428541 58.555176 
L 120.840375 59.647839 
L 121.400299 60.740503 
L 121.75534 61.290375 
L 122.129109 61.833166 
L 123.026006 62.925829 
L 123.437752 63.360097 
L 124.112508 64.018492 
L 125.120164 64.892997 
L 125.396136 65.111156 
L 126.802576 66.116511 
L 126.939052 66.203819 
L 128.484988 67.111389 
L 128.844573 67.296482 
L 130.1674 67.92975 
L 131.289137 68.389146 
L 131.849812 68.605342 
L 133.532224 69.135188 
L 134.953837 69.481809 
L 135.214636 69.542408 
" style="fill:none;stroke:#4c72b0;stroke-width:1.5;"/>
    <path clip-path="url(#p42e99d1a87)" d="M 320.279963 64.096606 
L 321.962375 64.163791 
L 322.812103 64.018492 
L 323.644787 63.795106 
L 324.894695 62.925829 
L 325.327199 62.20134 
L 325.464766 61.833166 
L 325.444247 60.740503 
L 325.327199 60.4151 
L 324.993804 59.647839 
L 324.168969 58.555176 
L 323.644787 58.047504 
L 322.889756 57.462513 
L 321.962375 56.88281 
L 320.858494 56.369849 
L 320.279963 56.14319 
L 318.597551 55.755081 
L 316.915139 55.679978 
L 315.232727 56.037468 
L 314.609992 56.369849 
L 313.550315 57.462513 
L 313.362547 58.555176 
L 313.550315 59.511945 
L 313.582763 59.647839 
L 314.258818 60.740503 
L 315.228348 61.833166 
L 315.232727 61.836875 
L 316.822239 62.925829 
L 316.915139 62.978865 
L 318.597551 63.676544 
L 319.924574 64.018492 
L 320.279963 64.096606 
" style="fill:none;stroke:#4c72b0;stroke-width:1.5;"/>
   </g>
   <g id="LineCollection_8">
    <path clip-path="url(#p42e99d1a87)" d="M 321.962375 192.004015 
L 325.327199 192.485443 
L 328.692023 192.693968 
L 332.056848 192.605075 
L 335.421672 192.168991 
L 337.104084 191.796182 
L 340.191201 190.767437 
L 340.468908 190.653345 
L 342.404879 189.674774 
L 344.046971 188.582111 
L 345.516144 187.291662 
L 346.322967 186.396784 
L 347.198556 185.177187 
L 347.744421 184.211457 
L 348.220709 183.118794 
L 348.799267 180.933467 
L 348.954798 178.748141 
L 348.744051 176.562814 
L 348.203402 174.377487 
L 347.341846 172.192161 
L 346.178137 170.006834 
L 344.698872 167.821508 
L 342.891955 165.636181 
L 340.468908 163.216867 
L 338.15696 161.265528 
L 335.094868 159.080201 
L 332.056848 157.254258 
L 328.692023 155.56155 
L 325.327199 154.166985 
L 321.962375 153.044628 
L 318.597551 152.180815 
L 315.232727 151.573807 
L 311.867903 151.228134 
L 308.503079 151.166067 
L 305.091974 151.431558 
L 301.77343 152.065694 
L 300.091018 152.562398 
L 297.541256 153.616884 
L 295.62758 154.709548 
L 294.167378 155.802211 
L 293.01515 156.894874 
L 291.678958 158.609281 
L 291.377403 159.080201 
L 290.812443 160.172864 
L 290.384798 161.265528 
L 289.885109 163.450854 
L 289.794376 165.636181 
L 290.068829 167.821508 
L 290.672069 170.006834 
L 291.678958 172.325905 
L 292.850193 174.377487 
L 294.421916 176.562814 
L 296.335934 178.748141 
L 298.622234 180.933467 
L 301.332117 183.118794 
L 303.455842 184.5993 
L 306.820667 186.617282 
L 310.185491 188.29733 
L 313.550315 189.68278 
L 316.915139 190.802374 
L 320.279963 191.667296 
L 321.962375 192.004015 
L 321.962375 192.004015 
" style="fill:none;stroke:#4c72b0;stroke-width:1.5;"/>
   </g>
   <g id="LineCollection_9">
    <path clip-path="url(#p42e99d1a87)" d="M 325.327199 185.325866 
L 327.009611 185.306527 
L 327.038917 185.304121 
L 328.692023 185.155321 
L 330.374435 184.854636 
L 332.056848 184.38115 
L 332.499565 184.211457 
L 333.73926 183.658528 
L 334.668688 183.118794 
L 335.421672 182.586361 
L 336.071314 182.026131 
L 337.053201 180.933467 
L 337.104084 180.858691 
L 337.707107 179.840804 
L 338.145272 178.748141 
L 338.39858 177.655477 
L 338.488257 176.562814 
L 338.430987 175.470151 
L 338.239628 174.377487 
L 337.923766 173.284824 
L 337.490132 172.192161 
L 337.104084 171.423468 
L 336.936625 171.099497 
L 336.25559 170.006834 
L 335.464687 168.914171 
L 335.421672 168.861981 
L 334.528191 167.821508 
L 333.73926 166.999416 
L 333.465763 166.728844 
L 332.248892 165.636181 
L 332.056848 165.477702 
L 330.85026 164.543518 
L 330.374435 164.201373 
L 329.248479 163.450854 
L 328.692023 163.1027 
L 327.391545 162.358191 
L 327.009611 162.15087 
L 325.327199 161.327011 
L 325.185495 161.265528 
L 323.644787 160.624491 
L 322.395394 160.172864 
L 321.962375 160.02133 
L 320.279963 159.525199 
L 318.597551 159.12135 
L 318.369148 159.080201 
L 316.915139 158.823317 
L 315.232727 158.625665 
L 313.550315 158.533506 
L 311.867903 158.556212 
L 310.185491 158.70641 
L 308.503079 159.000574 
L 308.198099 159.080201 
L 306.820667 159.488056 
L 305.186551 160.172864 
L 305.138255 160.196722 
L 303.455842 161.265528 
L 302.306443 162.358191 
L 301.77343 163.030882 
L 301.485006 163.450854 
L 300.936466 164.543518 
L 300.586139 165.636181 
L 300.410237 166.728844 
L 300.389958 167.821508 
L 300.510681 168.914171 
L 300.761337 170.006834 
L 301.13393 171.099497 
L 301.623178 172.192161 
L 301.77343 172.463102 
L 302.241989 173.284824 
L 302.978084 174.377487 
L 303.455842 174.993051 
L 303.840982 175.470151 
L 304.836216 176.562814 
L 305.138255 176.861397 
L 305.983511 177.655477 
L 306.820667 178.372812 
L 307.286926 178.748141 
L 308.503079 179.651914 
L 308.776995 179.840804 
L 310.185491 180.747638 
L 310.50071 180.933467 
L 311.867903 181.694011 
L 312.529557 182.026131 
L 313.550315 182.514516 
L 314.973098 183.118794 
L 315.232727 183.224919 
L 316.915139 183.822382 
L 318.209188 184.211457 
L 318.597551 184.3251 
L 320.279963 184.722886 
L 321.962375 185.026055 
L 323.644787 185.229833 
L 324.942556 185.304121 
L 325.327199 185.325866 
" style="fill:none;stroke:#4c72b0;stroke-width:1.5;"/>
   </g>
   <g id="LineCollection_10"/>
   <g id="patch_3">
    <path d="M 59.506094 224.64 
L 59.506094 7.2 
" style="fill:none;stroke:#ffffff;stroke-linecap:square;stroke-linejoin:miter;stroke-width:1.25;"/>
   </g>
   <g id="patch_4">
    <path d="M 394.306094 224.64 
L 394.306094 7.2 
" style="fill:none;stroke:#ffffff;stroke-linecap:square;stroke-linejoin:miter;stroke-width:1.25;"/>
   </g>
   <g id="patch_5">
    <path d="M 59.506094 224.64 
L 394.306094 224.64 
" style="fill:none;stroke:#ffffff;stroke-linecap:square;stroke-linejoin:miter;stroke-width:1.25;"/>
   </g>
   <g id="patch_6">
    <path d="M 59.506094 7.2 
L 394.306094 7.2 
" style="fill:none;stroke:#ffffff;stroke-linecap:square;stroke-linejoin:miter;stroke-width:1.25;"/>
   </g>
  </g>
 </g>
 <defs>
  <clipPath id="p42e99d1a87">
   <rect height="217.44" width="334.8" x="59.506094" y="7.2"/>
  </clipPath>
 </defs>
</svg>
